<?xml version="1.0" standalone="no"?>
<!DOCTYPE svg PUBLIC "-//W3C//DTD SVG 1.1//EN" "http://www.w3.org/Graphics/SVG/1.1/DTD/svg11.dtd" >
<svg xmlns="http://www.w3.org/2000/svg" xmlns:xlink="http://www.w3.org/1999/xlink" version="1.1">
<metadata>
Created by FontForge 20170731 at Mon May 16 18:48:51 2016
 By ,,,
Copyright 2009 Albert-Jan Pool published by FontShop International GmbH for the FontFont library.
</metadata>
<defs>
<font id="FFDINPro-BoldItalic" horiz-adv-x="516" >
  <font-face 
    font-family="FF DIN Pro"
    font-weight="700"
    font-style="italic"
    font-stretch="normal"
    units-per-em="1000"
    panose-1="2 11 8 4 2 1 1 2 1 2"
    ascent="764"
    descent="-236"
    x-height="521"
    cap-height="712"
    bbox="-161 -201 1201 1183"
    underline-thickness="82"
    underline-position="-296"
    slope="-11"
    unicode-range="U+0020-FEFF"
  />
<missing-glyph horiz-adv-x="544" 
d="M18 0v712h508v-712h-508zM100 82h344v548h-344v-548z" />
    <glyph glyph-name="fi" unicode="fi" horiz-adv-x="576" 
d="M392 720l-21 -105h-44q-47 0 -57 -51l-12 -59h92l-19 -95h-92l-82 -410h-124l82 410h-51l19 95h51l15 72q30 143 170 143h73zM557 505l-101 -505h-124l101 505h124zM599 710l-21 -103h-127l20 103h128z" />
    <glyph glyph-name="fl" unicode="fl" horiz-adv-x="628" 
d="M597 712l-111 -555q-3 -9 -3 -22q0 -30 38 -30h51l-21 -105h-68q-55 0 -90 30t-35 83q0 26 4 43l111 556h124zM392 720l-21 -105h-44q-47 0 -57 -51l-12 -59h92l-19 -95h-92l-82 -410h-124l82 410h-51l19 95h51l15 72q30 143 170 143h73z" />
    <glyph glyph-name=".notdef" horiz-adv-x="544" 
d="M18 0v712h508v-712h-508zM100 82h344v548h-344v-548z" />
    <glyph glyph-name=".null" horiz-adv-x="0" 
 />
    <glyph glyph-name="nonmarkingreturn" horiz-adv-x="333" 
 />
    <glyph glyph-name="space" unicode=" " horiz-adv-x="220" 
 />
    <glyph glyph-name="exclam" unicode="!" horiz-adv-x="330" 
d="M348 712l-126 -490h-93l66 490h153zM225 133l-26 -133h-131l26 133h131z" />
    <glyph glyph-name="quotedbl" unicode="&#x22;" horiz-adv-x="441" 
d="M468 712l-43 -211h-116l43 211h116zM272 712l-42 -211h-116l42 211h116z" />
    <glyph glyph-name="numbersign" unicode="#" horiz-adv-x="666" 
d="M675 538l-23 -114h-82l-41 -116h70l-23 -114h-87l-68 -194h-132l68 194h-114l-68 -194h-132l68 194h-67l23 114h84l41 116h-71l23 114h87l63 180h132l-63 -180h114l63 180h132l-63 -180h66zM437 424h-114l-41 -116h114z" />
    <glyph glyph-name="dollar" unicode="$" horiz-adv-x="594" 
d="M608 630l-93 -81q-40 47 -114 52l-35 -185l26 -7q86 -21 123.5 -64t37.5 -115q0 -48 -15.5 -87.5t-40 -65.5t-58.5 -44.5t-68 -27t-71 -11.5l-21 -108h-96l20 110q-69 4 -117.5 27t-88.5 70l96 85q52 -63 145 -66l37 192l-29 8q-152 40 -152 166q0 98 65.5 164t179.5 76
l18 88h96l-17 -91q112 -11 172 -85zM421 213q0 37 -19 53.5t-59 25.5l-34 -181q50 8 81 35.5t31 66.5zM298 428l33 174q-45 -6 -75 -36t-30 -71q0 -50 72 -67z" />
    <glyph glyph-name="percent" unicode="%" horiz-adv-x="816" 
d="M763 257q0 -21 -3 -32l-18 -95q-27 -136 -156 -136q-51 0 -86 28t-35 82q0 21 3 32l18 95q27 136 156 136q51 0 86 -28t35 -82zM673 246q0 41 -41 41q-44 0 -57 -58l-18 -93q-2 -14 -2 -21q0 -41 41 -41q44 0 57 58l18 93q2 14 2 21zM710 712l-463 -712h-100l463 712h100
zM392 608q0 -21 -3 -32l-18 -95q-27 -136 -156 -136q-51 0 -86 28t-35 82q0 21 3 32l18 95q27 136 156 136q51 0 86 -28t35 -82zM302 597q0 41 -41 41q-44 0 -57 -58l-18 -93q-2 -14 -2 -21q0 -41 41 -41q44 0 57 58l18 93q2 14 2 21z" />
    <glyph glyph-name="ampersand" unicode="&#x26;" horiz-adv-x="690" 
d="M520 365h118q-27 -131 -116 -220l95 -145h-151l-39 61q-84 -67 -191 -67q-81 0 -137 42.5t-56 134.5q0 84 42.5 137t124.5 102l-4 6q-40 67 -40 118q0 30 10 60t31.5 59t63.5 47t98 18q49 0 83.5 -15.5t49.5 -40.5t21 -47.5t6 -45.5q0 -84 -99 -148l-57 -37l87 -141
q42 42 60 122zM368 154l-105 168q-48 -28 -72 -59t-24 -74q0 -37 23 -60.5t61 -23.5q58 0 117 49zM410 564q0 23 -13 36t-34 13q-35 0 -53 -23.5t-18 -54.5q0 -27 27 -68l32 20q31 20 45 36.5t14 40.5z" />
    <glyph glyph-name="quotesingle" unicode="'" horiz-adv-x="246" 
d="M273 712l-42 -211h-117l42 211h117z" />
    <glyph glyph-name="parenleft" unicode="(" horiz-adv-x="319" 
d="M288 806l70 -92q-51 -46 -63 -62q-23 -34 -32 -79l-85 -424q-8 -43 -8 -60q0 -42 48 -100l-94 -83q-45 55 -61.5 92t-16.5 78q0 33 10 77l85 426q18 86 46 126q31 43 101 101z" />
    <glyph glyph-name="parenright" unicode=")" horiz-adv-x="319" 
d="M313 636q0 -33 -10 -77l-85 -426q-18 -86 -46 -126q-31 -43 -101 -101l-70 92q51 46 63 62q23 34 32 79l85 424q8 42 8 60q0 42 -48 100l94 83q45 -55 61.5 -92t16.5 -78z" />
    <glyph glyph-name="asterisk" unicode="*" horiz-adv-x="470" 
d="M479 538l-116 -35l93 -76l-57 -64l-86 83l-20 -119l-84 16l28 118l-112 -43l-28 80l116 35l-94 76l57 64l87 -82l19 118l84 -16l-27 -118l111 43z" />
    <glyph glyph-name="plus" unicode="+" 
d="M485 343l-23 -115h-153l-32 -164h-116l33 164h-152l23 115h152l33 164h115l-33 -164h153z" />
    <glyph glyph-name="comma" unicode="," horiz-adv-x="271" 
d="M184 142l-39 -197l-157 -110l62 307h134z" />
    <glyph glyph-name="hyphen" unicode="-" horiz-adv-x="405" 
d="M367 343l-23 -115h-293l23 115h293z" />
    <glyph glyph-name="period" unicode="." horiz-adv-x="271" 
d="M184 148l-29 -148h-141l30 148h140z" />
    <glyph glyph-name="slash" unicode="/" horiz-adv-x="385" 
d="M496 786l-442 -860h-120l443 860h119z" />
    <glyph glyph-name="zero" unicode="0" 
d="M517 547q0 -24 -5 -49l-57 -290q-22 -113 -88 -163.5t-149 -50.5q-80 0 -129 47.5t-49 123.5q0 24 5 49l58 290q22 113 88 163.5t149 50.5q80 0 128.5 -47.5t48.5 -123.5zM394 538q0 35 -19 52t-46 17q-83 0 -103 -99l-58 -299q-5 -18 -5 -35q0 -35 19 -52t46 -17
q83 0 103 99l59 299q4 15 4 35z" />
    <glyph glyph-name="one" unicode="1" 
d="M451 712l-142 -712h-124l114 570l-162 -117l28 143l162 116h124z" />
    <glyph glyph-name="two" unicode="2" 
d="M519 541q0 -41 -17 -79.5t-34 -58.5t-46 -49l-238 -243h262l-23 -111h-420l23 111l308 313q33 33 46.5 56.5t13.5 54.5q0 72 -68 72q-81 0 -103 -93h-125q36 204 241 204q85 0 132.5 -46.5t47.5 -130.5z" />
    <glyph glyph-name="three" unicode="3" 
d="M511 549q0 -130 -109 -185q34 -19 49 -48.5t15 -78.5q0 -102 -69 -172.5t-168 -70.5q-93 0 -147.5 45.5t-54.5 123.5q0 23 3 36h122q-2 -8 -2 -10v-12q0 -32 20.5 -52t59.5 -20q46 0 78.5 38t32.5 89q0 78 -80 78h-19l21 108h20q44 0 74 35.5t30 81.5q0 35 -18 53.5
t-49 18.5q-34 0 -62.5 -23t-39.5 -64h-125q23 99 85.5 148.5t158.5 49.5q78 0 126 -48t48 -121z" />
    <glyph glyph-name="four" unicode="4" 
d="M487 712l-328 -491h141l27 132h118l-26 -132h65l-24 -117h-63l-21 -104h-118l20 104h-281l23 117l329 491h138z" />
    <glyph glyph-name="five" unicode="5" 
d="M542 712l-22 -111h-273l-31 -158q41 33 102 33q77 0 118 -47t41 -115q0 -34 -7 -74q-24 -125 -83 -184q-62 -62 -163 -62q-83 0 -131 46.5t-48 119.5v14q0 8 2 22h119q-1 -3 -1 -10v-10q0 -71 66 -71q48 0 73.5 35t38.5 100q7 40 7 58q0 73 -64 73q-61 0 -96 -59h-112
l80 400h384z" />
    <glyph glyph-name="six" unicode="6" 
d="M468 712l-203 -300q23 6 42 6q71 0 115 -50.5t44 -133.5q0 -104 -64 -172t-165 -68q-100 0 -150.5 57t-50.5 132q0 52 18 95t64 112l213 322h137zM342 230q0 42 -21.5 65t-57.5 23q-48 0 -75.5 -37.5t-27.5 -86.5q0 -42 21 -65.5t57 -23.5q47 0 75.5 37t28.5 88z" />
    <glyph glyph-name="seven" unicode="7" 
d="M571 712l-22 -111l-334 -601h-137l333 601h-180l-22 -109h-118l43 220h437z" />
    <glyph glyph-name="eight" unicode="8" 
d="M520 534q0 -57 -30.5 -104.5t-78.5 -71.5q59 -46 59 -131q0 -99 -65 -166t-179 -67q-86 0 -141.5 47t-55.5 139q0 133 122 195q-52 44 -52 123q0 92 64.5 156t166.5 64q84 0 137 -50.5t53 -133.5zM344 226q0 37 -21 61t-58 24q-48 0 -79.5 -34.5t-31.5 -86.5
q0 -37 21.5 -61t58.5 -24q48 0 79 34t31 87zM395 531q0 32 -18.5 54t-52.5 22q-44 0 -72.5 -33.5t-28.5 -79.5q0 -32 18.5 -53.5t52.5 -21.5q44 0 72.5 33t28.5 79z" />
    <glyph glyph-name="nine" unicode="9" 
d="M522 529q0 -52 -18 -95t-64 -112l-214 -322h-136l203 300q-23 -6 -42 -6q-71 0 -115 50.5t-44 133.5q0 104 64 172t165 68q100 0 150.5 -57t50.5 -132zM398 518q0 42 -21.5 65.5t-57.5 23.5q-47 0 -75 -37t-28 -88q0 -42 21.5 -65t57.5 -23q48 0 75.5 37.5t27.5 86.5z
" />
    <glyph glyph-name="colon" unicode=":" horiz-adv-x="294" 
d="M209 148l-30 -148h-141l30 148h141zM261 419l-29 -148h-141l30 148h140z" />
    <glyph glyph-name="semicolon" unicode=";" horiz-adv-x="294" 
d="M205 142l-39 -197l-158 -110l62 307h135zM262 419l-30 -148h-141l30 148h141z" />
    <glyph glyph-name="less" unicode="&#x3c;" 
d="M492 532l-27 -138l-264 -109l222 -117l-25 -127l-354 199l22 106z" />
    <glyph glyph-name="equal" unicode="=" 
d="M508 448l-23 -115h-422l24 115h421zM467 238l-24 -115h-421l24 115h421z" />
    <glyph glyph-name="greater" unicode="&#x3e;" 
d="M481 329l-22 -106l-426 -185l27 138l264 109l-222 117l26 127z" />
    <glyph glyph-name="question" unicode="?" horiz-adv-x="497" 
d="M518 559q0 -86 -74 -166l-89 -99q-22 -24 -28 -51l-5 -21h-124l7 31q12 60 55 105l88 94q45 49 45 94q0 26 -15.5 43.5t-43.5 17.5q-77 0 -95 -83h-125q17 98 80.5 146t158.5 48q68 0 116.5 -43.5t48.5 -115.5zM312 133l-26 -133h-131l26 133h131z" />
    <glyph glyph-name="at" unicode="@" horiz-adv-x="722" 
d="M718 541q0 -24 -9 -76l-93 -465h-113l9 46q-49 -52 -118 -52q-67 0 -103.5 39t-36.5 95q0 32 14 102q12 56 19 81.5t22 56.5t38 52q48 47 125 47q72 0 109 -51l10 53q5 28 5 43q0 40 -21 64q-27 30 -85 30h-118q-67 0 -104 -33q-39 -33 -52 -104l-59 -295q-5 -22 -5 -44
q0 -26 26 -57l-97 -84q-49 54 -49 118q0 33 6 63l59 300q24 124 83 183q63 63 196 63h147q101 0 154 -56q41 -45 41 -119zM552 297q0 29 -14.5 48t-44.5 19q-45 0 -68.5 -31.5t-38.5 -102.5q-8 -40 -8 -66q0 -29 14.5 -48t44.5 -19q45 0 68.5 31t38.5 102q8 40 8 67z" />
    <glyph glyph-name="A" unicode="A" horiz-adv-x="607" 
d="M552 0h-134l-15 130h-241l-67 -130h-141l388 712h105zM393 238l-34 274l-143 -274h177z" />
    <glyph glyph-name="B" unicode="B" horiz-adv-x="626" 
d="M614 547q0 -128 -116 -186q34 -22 51 -50t17 -75q0 -106 -68 -171t-172 -65h-298l143 712h258q92 0 138.5 -47.5t46.5 -117.5zM433 230q0 34 -19 53.5t-56 19.5h-137l-37 -186h138q51 0 81 32t30 81zM480 525q0 70 -74 70h-126l-36 -175h127q54 0 81.5 32.5t27.5 72.5z
" />
    <glyph glyph-name="C" unicode="C" horiz-adv-x="592" 
d="M597 498h-132q0 47 -23 75.5t-70 28.5q-54 0 -95 -41q-22 -22 -37.5 -66.5t-33.5 -138.5q-20 -109 -20 -150q0 -45 26.5 -70.5t68.5 -25.5q49 0 83 30t49 74h136q-35 -109 -107.5 -164.5t-170.5 -55.5q-100 0 -159 57.5t-59 144.5q0 61 21 160q23 118 43.5 176.5
t62.5 104.5q78 81 201 81q106 0 161 -61.5t55 -158.5z" />
    <glyph glyph-name="D" unicode="D" horiz-adv-x="626" 
d="M614 513q0 -44 -23 -154q-27 -136 -48 -191t-66 -98q-73 -70 -196 -70h-253l143 712h233q94 0 152 -49.5t58 -149.5zM481 502q0 47 -26.5 70.5t-73.5 23.5h-101l-96 -480h100q64 0 104 39q22 21 37 63t34 141q22 114 22 143z" />
    <glyph glyph-name="E" unicode="E" horiz-adv-x="578" 
d="M615 712l-23 -116h-312l-36 -179h269l-23 -116h-269l-37 -185h318l-23 -116h-451l143 712h444z" />
    <glyph glyph-name="F" unicode="F" horiz-adv-x="560" 
d="M615 712l-23 -116h-312l-37 -186h267l-23 -116h-268l-59 -294h-132l143 712h444z" />
    <glyph glyph-name="G" unicode="G" horiz-adv-x="616" 
d="M602 495h-132q-2 50 -26 78.5t-69 28.5q-55 0 -96 -41q-24 -24 -39 -67.5t-34 -137.5q-20 -92 -20 -150q0 -45 27 -70.5t69 -25.5q51 0 91.5 37t54.5 106l6 31h-124l20 110h256l-19 -102q-28 -143 -98 -218q-78 -80 -197 -80q-105 0 -162 58t-57 144q0 61 21 160
q28 132 46.5 183.5t61.5 97.5q75 81 201 81q106 0 162.5 -61.5t56.5 -161.5z" />
    <glyph glyph-name="H" unicode="H" horiz-adv-x="651" 
d="M664 712l-143 -712h-132l61 302h-229l-61 -302h-132l143 712h132l-58 -294h229l58 294h132z" />
    <glyph glyph-name="I" unicode="I" horiz-adv-x="290" 
d="M303 712l-143 -712h-132l143 712h132z" />
    <glyph glyph-name="J" unicode="J" horiz-adv-x="485" 
d="M507 712l-98 -487q-14 -68 -44.5 -116.5t-69.5 -72t-74 -33t-72 -9.5q-119 0 -179 77l95 81q33 -42 87 -42q42 0 78 28.5t49 94.5l96 479h132z" />
    <glyph glyph-name="K" unicode="K" horiz-adv-x="636" 
d="M702 712l-281 -297l163 -415h-144l-125 329l-113 -110l-43 -219h-131l143 712h131l-63 -310l299 310h164z" />
    <glyph glyph-name="L" unicode="L" horiz-adv-x="550" 
d="M494 116l-23 -116h-443l143 712h132l-119 -596h310z" />
    <glyph glyph-name="M" unicode="M" horiz-adv-x="770" 
d="M783 712l-143 -712h-132l85 421l-179 -263h-89l-80 265l-85 -423h-132l143 712h124l101 -380l258 380h129z" />
    <glyph glyph-name="N" unicode="N" horiz-adv-x="677" 
d="M690 712l-143 -712h-112l-185 445l-90 -445h-132l143 712h112l186 -446l89 446h132z" />
    <glyph glyph-name="O" unicode="O" horiz-adv-x="611" 
d="M595 516q0 -60 -20 -160q-22 -117 -43 -176.5t-63 -103.5q-77 -82 -201 -82q-99 0 -157 58t-58 144q0 60 20 160q22 117 43 176.5t63 103.5q77 82 201 82q99 0 157 -58t58 -144zM463 505q0 46 -26 71.5t-66 25.5q-56 0 -95 -43q-38 -42 -71 -203q-20 -100 -20 -149
q0 -46 26.5 -71.5t65.5 -25.5q56 0 95 43q21 22 36 64.5t35 138.5q20 100 20 149z" />
    <glyph glyph-name="P" unicode="P" horiz-adv-x="597" 
d="M615 524q0 -102 -70.5 -175t-192.5 -73h-137l-55 -276h-132l143 712h253q89 0 140 -51.5t51 -136.5zM482 513q0 82 -80 82h-122l-41 -202h118q59 0 92 37t33 83z" />
    <glyph glyph-name="Q" unicode="Q" horiz-adv-x="611" 
d="M595 516q0 -60 -20 -160q-20 -105 -38.5 -162.5t-52.5 -100.5l48 -63l-79 -70l-50 65q-58 -31 -135 -31q-99 0 -157 58t-58 144q0 60 20 160q22 117 43 176.5t63 103.5q77 82 201 82q99 0 157 -58t58 -144zM277 191l79 70l45 -60q17 35 42 155q20 100 20 149
q0 46 -26 71.5t-66 25.5q-56 0 -95 -43q-38 -42 -71 -203q-20 -100 -20 -149q0 -46 26.5 -71.5t65.5 -25.5q29 0 53 11z" />
    <glyph glyph-name="R" unicode="R" horiz-adv-x="625" 
d="M615 521q0 -70 -43 -130.5t-123 -87.5l98 -303h-145l-83 288h-100l-59 -288h-132l143 712h250q101 0 147.5 -54t46.5 -137zM483 514q0 81 -83 81h-120l-40 -197h120q62 0 92.5 36.5t30.5 79.5z" />
    <glyph glyph-name="S" unicode="S" horiz-adv-x="563" 
d="M577 632l-93 -81q-44 52 -126 52q-59 0 -95.5 -33t-36.5 -75q0 -31 19.5 -45.5t56.5 -24.5l59 -14q87 -22 124 -65t37 -120q0 -114 -82 -173t-203 -59q-84 0 -139.5 22.5t-100.5 75.5l96 84q56 -65 156 -65q59 0 100 30t41 73q0 36 -18.5 53t-56.5 26l-59 15
q-83 21 -122.5 65.5t-39.5 103.5q0 105 75.5 173t203.5 68q135 0 204 -86z" />
    <glyph glyph-name="T" unicode="T" horiz-adv-x="544" 
d="M605 712l-23 -117h-175l-119 -595h-132l119 595h-179l23 117h486z" />
    <glyph glyph-name="U" unicode="U" horiz-adv-x="635" 
d="M658 712l-94 -468q-24 -125 -102 -187.5t-183 -62.5q-93 0 -155 55.5t-62 147.5q0 26 7 61l91 454h132l-93 -462q-5 -18 -5 -44q0 -40 23.5 -67.5t70.5 -27.5q57 0 95 37.5t52 108.5l91 455h132z" />
    <glyph glyph-name="V" unicode="V" horiz-adv-x="552" 
d="M642 712l-363 -712h-104l-81 712h130l48 -472l228 472h142z" />
    <glyph glyph-name="W" unicode="W" horiz-adv-x="846" 
d="M929 712l-318 -712h-111l-37 438l-216 -438h-110l-42 712h136l16 -455l216 455h99l35 -455l192 455h140z" />
    <glyph glyph-name="X" unicode="X" horiz-adv-x="579" 
d="M647 712l-264 -352l143 -360h-148l-88 253l-180 -253h-154l280 370l-132 342h147l79 -234l163 234h154z" />
    <glyph glyph-name="Y" unicode="Y" horiz-adv-x="550" 
d="M635 712l-286 -425l-58 -287h-132l59 292l-129 420h140l76 -295l184 295h146z" />
    <glyph glyph-name="Z" unicode="Z" horiz-adv-x="526" 
d="M575 712l-21 -103l-382 -492h290l-24 -117h-450l22 105l379 490h-275l23 117h438z" />
    <glyph glyph-name="bracketleft" unicode="[" horiz-adv-x="359" 
d="M421 786l-22 -111h-116l-128 -638h126l-22 -111h-249l171 860h240z" />
    <glyph glyph-name="backslash" unicode="\" horiz-adv-x="378" 
d="M313 -74h-112l-98 847h113z" />
    <glyph glyph-name="bracketright" unicode="]" horiz-adv-x="359" 
d="M389 786l-171 -860h-240l22 110h117l128 640h-126l22 110h248z" />
    <glyph glyph-name="asciicircum" unicode="^" horiz-adv-x="581" 
d="M548 389h-124l-62 198l-141 -198h-135l236 330h122z" />
    <glyph glyph-name="underscore" unicode="_" 
d="M446 -91l-16 -82h-516l16 82h516z" />
    <glyph glyph-name="grave" unicode="`" horiz-adv-x="515" 
d="M370 601h-91l-72 167h118z" />
    <glyph glyph-name="a" unicode="a" horiz-adv-x="509" 
d="M469 382q0 -21 -5 -46l-68 -336h-119l9 46q-51 -51 -126 -51q-68 0 -108.5 38t-40.5 99q0 76 47 123q54 54 152 54h124l7 31q3 11 3 27q0 56 -77 56q-66 0 -112 -49l-64 83q70 70 193 70q77 0 131 -34.5t54 -110.5zM317 224h-95q-41 0 -65 -22t-24 -58q0 -49 66 -49
q49 0 81 32q23 23 31 66z" />
    <glyph glyph-name="b" unicode="b" horiz-adv-x="533" 
d="M501 376q0 -44 -15 -115q-17 -86 -34 -135t-50 -82q-50 -50 -133 -50q-86 0 -121 59l-10 -53h-120l142 712h124l-47 -236q44 51 121 51q62 0 102.5 -37.5t40.5 -113.5zM373 344q0 72 -63 72q-52 0 -76.5 -37.5t-39.5 -117.5q-11 -59 -11 -84q0 -72 63 -72q52 0 76.5 38
t39.5 118q11 59 11 83z" />
    <glyph glyph-name="c" unicode="c" horiz-adv-x="458" 
d="M463 455l-93 -82q-32 43 -72 43q-42 0 -74 -33q-40 -42 -55 -122q-7 -40 -7 -67q0 -42 19 -65.5t55 -23.5q47 0 91 44l69 -89q-71 -66 -172 -66q-79 0 -133 49t-54 137q0 35 8 81q28 145 99.5 205.5t165.5 60.5q97 0 153 -72z" />
    <glyph glyph-name="d" unicode="d" horiz-adv-x="533" 
d="M555 712l-142 -712h-120l11 50q-49 -56 -129 -56q-75 0 -108 43t-33 103q0 37 16 121q32 164 83 215t132 51q80 0 118 -56l48 241h124zM352 345q0 71 -62 71q-52 0 -76.5 -37.5t-39.5 -117.5q-11 -59 -11 -84q0 -72 62 -72q52 0 76.5 38t39.5 118q11 59 11 84z" />
    <glyph glyph-name="e" unicode="e" horiz-adv-x="523" 
d="M486 341q0 -47 -16 -118h-312q-4 -16 -4 -37q0 -40 22.5 -63.5t66.5 -23.5q69 0 124 53l65 -82q-82 -76 -203 -76q-36 0 -69 10t-61.5 30.5t-45.5 57t-17 85.5q0 91 27.5 168.5t89.5 129.5t148 52q82 0 133.5 -51t51.5 -135zM368 341q0 41 -20 62.5t-54 21.5
q-88 0 -120 -119h191q3 16 3 35z" />
    <glyph glyph-name="f" unicode="f" horiz-adv-x="325" 
d="M392 720l-21 -105h-44q-47 0 -57 -51l-12 -59h92l-19 -95h-92l-82 -410h-124l82 410h-51l19 95h51l15 72q30 143 170 143h73z" />
    <glyph glyph-name="g" unicode="g" horiz-adv-x="527" 
d="M511 521l-100 -501q-21 -109 -88 -163t-162 -54q-112 0 -173 71l86 75q35 -41 87 -41q50 0 82.5 30t44.5 83l11 53q-44 -52 -116 -52q-62 0 -103 38t-41 109q0 35 13 106q15 80 32 125.5t46 74.5q52 52 133 52q82 0 118 -59l10 53h120zM348 347q0 69 -62 69
q-46 0 -70.5 -33.5t-39.5 -108.5q-9 -48 -9 -72q0 -69 62 -69q46 0 70.5 33.5t39.5 108.5q9 48 9 72z" />
    <glyph glyph-name="h" unicode="h" horiz-adv-x="544" 
d="M501 383q0 -25 -7 -58l-65 -325h-124l64 317q4 15 4 34q0 32 -18.5 48.5t-44.5 16.5q-35 0 -64.5 -22t-40.5 -78l-64 -316h-124l142 712h124l-47 -232q50 47 128 47q55 0 96 -36.5t41 -107.5z" />
    <glyph glyph-name="i" unicode="i" horiz-adv-x="262" 
d="M243 505l-101 -505h-124l101 505h124zM285 710l-21 -103h-127l20 103h128z" />
    <glyph glyph-name="j" unicode="j" horiz-adv-x="262" 
d="M243 505l-110 -553q-14 -70 -57 -108.5t-111 -38.5h-77l21 105h45q44 0 56 53l109 542h124zM285 710l-21 -103h-127l20 103h128z" />
    <glyph glyph-name="k" unicode="k" horiz-adv-x="534" 
d="M557 521l-218 -217l138 -304h-142l-90 227l-71 -66l-32 -161h-124l142 712h124l-80 -403l206 212h147z" />
    <glyph glyph-name="l" unicode="l" horiz-adv-x="311" 
d="M280 712l-111 -555q-3 -9 -3 -22q0 -30 38 -30h51l-21 -105h-68q-55 0 -90 30t-35 83q0 26 4 43l111 556h124z" />
    <glyph glyph-name="m" unicode="m" horiz-adv-x="832" 
d="M789 383q0 -26 -6 -58l-65 -325h-124l63 317q4 15 4 34q0 32 -18 48.5t-44 16.5q-34 0 -64.5 -22t-41.5 -78l-63 -316h-124l63 317q4 15 4 34q0 32 -18 48.5t-43 16.5q-34 0 -65 -22t-42 -78l-63 -316h-124l104 521h119l-10 -50q56 56 137 56q76 0 113 -67q62 67 163 67
q58 0 101.5 -37.5t43.5 -106.5z" />
    <glyph glyph-name="n" unicode="n" horiz-adv-x="544" 
d="M501 383q0 -28 -7 -58l-65 -325h-124l64 317q4 16 4 34q0 32 -18 48.5t-44 16.5q-35 0 -65 -22t-41 -78l-64 -316h-124l104 521h119l-9 -50q51 56 137 56q52 0 92.5 -36.5t40.5 -107.5z" />
    <glyph glyph-name="o" unicode="o" horiz-adv-x="515" 
d="M477 355q0 -37 -10 -94q-28 -147 -93 -207q-62 -60 -160 -60q-73 0 -125 44t-52 128q0 42 11 95q15 80 36.5 125.5t56.5 80.5q60 60 160 60q72 0 124 -44t52 -128zM354 341q0 37 -18 56t-48 19q-38 0 -64 -26q-33 -32 -53 -129q-11 -55 -11 -81q0 -37 18 -56t48 -19
q38 0 64 26q35 34 53 130q11 54 11 80z" />
    <glyph glyph-name="p" unicode="p" horiz-adv-x="533" 
d="M501 383q0 -37 -16 -122q-32 -165 -83 -216t-132 -51q-80 0 -118 56l-48 -241h-124l142 712h120l-11 -50q49 56 129 56q75 0 108 -43t33 -101zM372 345q0 71 -62 71q-52 0 -76.5 -37.5t-39.5 -117.5q-11 -59 -11 -84q0 -72 62 -72q52 0 76.5 38t39.5 118q11 59 11 84z
" />
    <glyph glyph-name="q" unicode="q" horiz-adv-x="533" 
d="M517 521l-142 -712h-124l46 237q-45 -52 -121 -52q-63 0 -102.5 38t-39.5 114q0 44 15 115q17 86 34 135t50 82q49 49 133 49q85 0 120 -59l11 53h120zM351 344q0 72 -62 72q-52 0 -76.5 -37.5t-39.5 -117.5q-11 -59 -11 -84q0 -72 62 -72q52 0 76.5 38t39.5 118
q11 59 11 83z" />
    <glyph glyph-name="r" unicode="r" horiz-adv-x="430" 
d="M474 478l-107 -95q-24 32 -57 32q-37 0 -66.5 -27.5t-38.5 -72.5l-63 -315h-124l104 521h120l-11 -51q47 57 132 57q69 0 111 -49z" />
    <glyph glyph-name="s" unicode="s" horiz-adv-x="475" 
d="M459 463l-85 -75q-36 37 -99 37q-45 0 -68 -18.5t-23 -44.5q0 -32 48 -39l67 -11q126 -20 126 -135q0 -73 -56 -126q-60 -57 -181 -57q-129 0 -201 78l89 78q44 -50 120 -50q50 0 78 19.5t28 45.5q0 20 -12 29.5t-37 13.5l-68 11q-66 11 -95.5 44t-29.5 74q0 77 53 130
q60 60 173 60q112 0 173 -64z" />
    <glyph glyph-name="t" unicode="t" horiz-adv-x="337" 
d="M341 505l-19 -94h-86l-51 -256q-2 -10 -2 -12v-7q0 -32 40 -32h45l-21 -104h-64q-56 0 -91 30t-35 83q0 28 4 43l51 255h-53l19 94h53l31 156h124l-31 -156h86z" />
    <glyph glyph-name="u" unicode="u" horiz-adv-x="544" 
d="M528 521l-104 -521h-119l9 50q-51 -56 -136 -56q-52 0 -93 36.5t-41 108.5q0 17 7 57l65 325h124l-64 -317q-4 -15 -4 -34q0 -32 18 -48.5t44 -16.5q34 0 64.5 22t41.5 78l64 316h124z" />
    <glyph glyph-name="v" unicode="v" horiz-adv-x="469" 
d="M518 521l-285 -521h-98l-78 521h123l37 -336l168 336h133z" />
    <glyph glyph-name="w" unicode="w" horiz-adv-x="719" 
d="M765 521l-249 -521h-98l-41 331l-171 -331h-100l-49 521h124l18 -325l165 325h90l38 -325l142 325h131z" />
    <glyph glyph-name="x" unicode="x" horiz-adv-x="502" 
d="M531 521l-210 -259l123 -262h-143l-65 163l-121 -163h-153l221 269l-118 252h143l61 -155l111 155h151z" />
    <glyph glyph-name="y" unicode="y" horiz-adv-x="464" 
d="M515 521l-325 -605q-20 -38 -43 -61q-46 -46 -124 -46h-48l23 112h28q26 0 41 12.5t30 41.5l33 62l-74 484h123l38 -336l167 336h131z" />
    <glyph glyph-name="z" unicode="z" horiz-adv-x="461" 
d="M470 521l-19 -95l-279 -315h223l-22 -111h-386l19 95l277 315h-208l22 111h373z" />
    <glyph glyph-name="braceleft" unicode="{" horiz-adv-x="435" 
d="M495 786l-22 -111h-46q-43 0 -59.5 -15.5t-24.5 -60.5l-29 -143q-16 -82 -86 -98q48 -25 48 -78q0 -14 -3 -29l-27 -136q-5 -27 -5 -40q0 -22 13 -30t44 -8h57l-22 -111h-96q-64 0 -94.5 36t-30.5 83q0 22 4 37l30 147q3 15 3 27t-5 24q-13 28 -51 28h-42l23 110h43
q32 0 54 19q16 13 28 60l28 141q15 77 58 115q39 33 112 33h98z" />
    <glyph glyph-name="bar" unicode="|" horiz-adv-x="333" 
d="M334 786l-172 -860h-123l171 860h124z" />
    <glyph glyph-name="braceright" unicode="}" horiz-adv-x="435" 
d="M424 404l-23 -110h-43q-32 0 -54 -19q-19 -16 -28 -60l-28 -141q-15 -77 -58 -115q-39 -33 -112 -33h-98l22 111h46q44 0 59 14.5t25 61.5l29 143q16 82 86 98q-48 25 -48 78q0 14 3 29l27 136q5 27 5 40q0 22 -13 30t-44 8h-57l22 111h96q64 0 94.5 -36t30.5 -83
q0 -22 -4 -37l-30 -147q-3 -11 -3 -27q0 -12 5 -24q13 -28 51 -28h42z" />
    <glyph glyph-name="asciitilde" unicode="~" horiz-adv-x="576" 
d="M485 360l64 -83q-82 -77 -169 -77q-52 0 -107 32q-41 24 -76 24q-47 0 -94 -43l-65 84q84 77 170 77q52 0 107 -32q41 -24 75 -24q50 0 95 42z" />
    <glyph glyph-name="uni00A0" unicode="&#xa0;" horiz-adv-x="220" 
 />
    <glyph glyph-name="exclamdown" unicode="&#xa1;" horiz-adv-x="330" 
d="M203 299l-66 -490h-153l126 490h93zM264 521l-26 -133h-131l26 133h131z" />
    <glyph glyph-name="cent" unicode="&#xa2;" horiz-adv-x="484" 
d="M507 547l-91 -75q-19 34 -59 42l-59 -299q41 6 77 42l68 -83q-34 -32 -68 -48.5t-86 -24.5l-20 -101h-96l21 105q-55 13 -94.5 65.5t-39.5 128.5q0 77 24.5 146t80 121t131.5 61l17 85h96l-17 -86q76 -18 115 -79zM230 218l57 296q-35 -12 -59 -50q-44 -70 -44 -157
q0 -73 46 -89z" />
    <glyph glyph-name="sterling" unicode="&#xa3;" horiz-adv-x="551" 
d="M580 643l-98 -84q-26 42 -81 42q-102 0 -129 -121l-17 -86h109l-19 -94h-108l-37 -183h284l-23 -117h-416l60 300h-58l18 94h58l19 91q47 233 270 233q110 0 168 -75z" />
    <glyph glyph-name="currency" unicode="&#xa4;" horiz-adv-x="669" 
d="M605 95l-80 -80l-72 72q-53 -33 -118 -33q-64 0 -119 33l-72 -72l-80 80l72 72q-33 55 -33 119q0 66 33 118l-72 72l80 80l72 -72q55 33 119 33q65 0 118 -33l72 72l80 -80l-72 -72q33 -52 33 -118q0 -64 -33 -119zM456 286q0 50 -35.5 85.5t-85.5 35.5
q-51 0 -86.5 -35.5t-35.5 -85.5q0 -51 35.5 -86.5t86.5 -35.5q50 0 85.5 35.5t35.5 86.5z" />
    <glyph glyph-name="yen" unicode="&#xa5;" horiz-adv-x="550" 
d="M635 712l-186 -276h74l-19 -94h-118l-37 -55l-10 -46h145l-19 -94h-144l-30 -147h-132l30 147h-143l19 94h142l11 51l-15 50h-118l18 94h70l-84 276h140l76 -295l184 295h146z" />
    <glyph glyph-name="brokenbar" unicode="&#xa6;" horiz-adv-x="336" 
d="M334 786l-70 -350h-124l70 350h124zM232 276l-70 -350h-123l69 350h124z" />
    <glyph glyph-name="section" unicode="&#xa7;" horiz-adv-x="504" 
d="M484 575q0 -10 -2 -24h-111q5 61 -57 61q-37 0 -56.5 -20.5t-19.5 -52.5q0 -37 51 -59l53 -21q43 -18 72 -56.5t29 -91.5q0 -136 -116 -197q54 -39 54 -117q0 -79 -53.5 -136.5t-161.5 -57.5q-69 0 -114.5 39t-45.5 104v14q0 10 1 15h115q-3 -28 12.5 -45.5t47.5 -17.5
q33 0 56.5 20t23.5 60q0 45 -53 67l-52 21q-46 18 -73.5 56t-27.5 92q0 63 30.5 116t87.5 81q-51 42 -51 114t53 125.5t150 53.5q75 0 116.5 -40t41.5 -103zM328 297q0 34 -18 49.5t-43 15.5q-29 0 -55 -21q-29 -25 -38 -72q-3 -11 -3 -27q0 -34 18.5 -49.5t41.5 -15.5
q31 0 56 20q29 25 38 72q3 15 3 28z" />
    <glyph glyph-name="dieresis" unicode="&#xa8;" horiz-adv-x="514" 
d="M507 725l-24 -122h-106l24 122h106zM298 725l-24 -122h-106l24 122h106z" />
    <glyph glyph-name="copyright" unicode="&#xa9;" horiz-adv-x="801" 
d="M764 356q0 -142 -101 -243t-243 -101t-243 101t-101 243t101 243t243 101t243 -101t101 -243zM682 356q0 114 -75.5 190.5t-186.5 76.5t-186 -76.5t-75 -190.5t75 -190.5t186 -76.5t186.5 76.5t75.5 190.5zM499 272l53 -53q-55 -49 -124 -49q-74 0 -122.5 49t-48.5 137
t48.5 137t122.5 49q67 0 124 -49l-53 -53q-35 30 -71 30q-44 0 -67.5 -30t-23.5 -84t23.5 -84t67.5 -30q36 0 71 30z" />
    <glyph glyph-name="ordfeminine" unicode="&#xaa;" horiz-adv-x="431" 
d="M439 601q0 -22 -4 -37l-54 -268h-96l7 36q-38 -40 -101 -40q-53 0 -85.5 31.5t-32.5 80.5q0 61 40 98q43 41 119 41h99l4 24q3 11 3 22q0 44 -61 44q-54 0 -89 -38l-52 67q55 55 155 55q60 0 104 -28t44 -88zM317 475h-76q-33 0 -52 -17.5t-19 -44.5q0 -40 54 -40
q39 0 64 25q17 17 24 52z" />
    <glyph glyph-name="guillemotleft" unicode="&#xab;" horiz-adv-x="597" 
d="M588 521l-33 -160l-111 -96l73 -96l-27 -142l-189 249zM323 521l-33 -160l-111 -96l73 -96l-27 -142l-189 249z" />
    <glyph glyph-name="logicalnot" unicode="&#xac;" 
d="M493 359l-53 -264h-115l30 149h-313l23 115h428z" />
    <glyph glyph-name="uni00AD" unicode="&#xad;" horiz-adv-x="405" 
d="M367 343l-23 -115h-293l23 115h293z" />
    <glyph glyph-name="registered" unicode="&#xae;" horiz-adv-x="801" 
d="M764 356q0 -142 -101 -243t-243 -101t-243 101t-101 243t101 243t243 101t243 -101t101 -243zM682 356q0 114 -75.5 190.5t-186.5 76.5t-186.5 -76.5t-75.5 -190.5t75.5 -190.5t186.5 -76.5t186.5 76.5t75.5 190.5zM575 173h-93l-66 141h-39v-141h-82v366h149
q54 0 87.5 -33.5t33.5 -81.5q0 -69 -66 -97zM484 424q0 21 -14 34.5t-37 13.5h-56v-94h56q23 0 37 13t14 33z" />
    <glyph glyph-name="macron" unicode="&#xaf;" horiz-adv-x="508" 
d="M496 701l-16 -82h-302l17 82h301z" />
    <glyph glyph-name="degree" unicode="&#xb0;" horiz-adv-x="460" 
d="M465 542q0 -76 -51 -127t-127 -51t-127 51t-51 127t51 127.5t127 51.5t127 -51.5t51 -127.5zM366 542q0 34 -23 57t-56 23t-56 -23t-23 -57t23 -57t56 -23t56 23t23 57z" />
    <glyph glyph-name="plusminus" unicode="&#xb1;" 
d="M508 451l-23 -114h-153l-33 -165h-116l33 165h-152l23 114h152l33 164h116l-33 -164h153zM442 115l-23 -115h-421l23 115h421z" />
    <glyph glyph-name="twosuperior" unicode="&#xb2;" horiz-adv-x="316" 
d="M345 606q0 -36 -16.5 -64t-51.5 -60l-125 -117h151l-16 -80h-263l17 80l177 169q36 35 36 65q0 37 -34 37q-41 0 -49 -46h-90q24 126 148 126q56 0 86 -29t30 -81z" />
    <glyph glyph-name="threesuperior" unicode="&#xb3;" horiz-adv-x="316" 
d="M345 605q0 -73 -63 -104q33 -24 33 -79q0 -63 -40.5 -102t-109.5 -39q-62 0 -92.5 28.5t-30.5 69.5q0 10 2 32h89q-6 -50 38 -50q22 0 37.5 16t15.5 44q0 44 -39 44h-11l15 76h10q29 0 42 18t13 40q0 37 -32 37q-41 0 -51 -46h-90q22 126 151 126q51 0 82 -30.5t31 -80.5
z" />
    <glyph glyph-name="acute" unicode="&#xb4;" horiz-adv-x="508" 
d="M501 768l-130 -167h-100l111 167h119z" />
    <glyph glyph-name="mu" unicode="&#xb5;" horiz-adv-x="548" 
d="M531 521l-104 -521h-119l10 50q-56 -56 -137 -56q-25 0 -40 15l-40 -200h-124l142 712h124l-64 -317q-3 -16 -3 -34q0 -32 18 -48.5t43 -16.5q34 0 65 22t42 78l63 316h124z" />
    <glyph glyph-name="paragraph" unicode="&#xb6;" horiz-adv-x="636" 
d="M648 712l-181 -903h-123l157 787h-95l-158 -787h-123l103 518q-55 4 -100 51t-45 125q0 87 63 148t190 61h312z" />
    <glyph glyph-name="periodcentered" unicode="&#xb7;" horiz-adv-x="271" 
d="M226 356l-28 -141h-141l28 141h141z" />
    <glyph glyph-name="cedilla" unicode="&#xb8;" horiz-adv-x="515" 
d="M257 -57l-70 -144h-113l86 144h97z" />
    <glyph glyph-name="onesuperior" unicode="&#xb9;" horiz-adv-x="316" 
d="M310 712l-85 -427h-90l64 321l-101 -73l22 107l101 72h89z" />
    <glyph glyph-name="ordmasculine" unicode="&#xba;" horiz-adv-x="439" 
d="M441 580q0 -38 -8 -76q-21 -114 -75 -165q-50 -48 -127 -48q-56 0 -98.5 34.5t-42.5 104.5q0 36 8 74q22 115 74 165q50 48 128 48q56 0 98.5 -34t42.5 -103zM342 568q0 59 -52 59q-33 0 -52 -21q-27 -27 -41 -102q-8 -40 -8 -64q0 -59 51 -59q33 0 53 22q26 26 40 101
q9 45 9 64z" />
    <glyph glyph-name="guillemotright" unicode="&#xbb;" horiz-adv-x="597" 
d="M570 273l-287 -246l32 160l111 96l-73 97l28 141zM305 273l-287 -246l32 160l112 96l-74 97l28 141z" />
    <glyph glyph-name="onequarter" unicode="&#xbc;" horiz-adv-x="832" 
d="M310 712l-85 -427h-90l64 321l-101 -73l22 107l101 72h89zM717 712l-462 -712h-100l463 712h99zM785 141l-16 -81h-33l-12 -60h-85l12 60h-170l15 81l193 286h100l-194 -286h71l13 66h86l-14 -66h34z" />
    <glyph glyph-name="onehalf" unicode="&#xbd;" horiz-adv-x="832" 
d="M310 712l-85 -427h-90l64 321l-101 -73l22 107l101 72h89zM717 712l-462 -712h-100l463 712h99zM804 321q0 -36 -16.5 -64t-51.5 -60l-125 -117h151l-16 -80h-263l17 80l177 169q36 35 36 65q0 37 -34 37q-41 0 -49 -46h-90q24 126 148 126q56 0 86 -29t30 -81z" />
    <glyph glyph-name="threequarters" unicode="&#xbe;" horiz-adv-x="832" 
d="M345 606q0 -73 -63 -104q33 -24 33 -79q0 -63 -40.5 -102t-109.5 -39q-62 0 -92.5 28.5t-30.5 69.5q0 10 2 32h89q-6 -50 38 -50q22 0 37.5 16t15.5 44q0 44 -39 44h-11l15 76h10q29 0 42 18t13 40q0 37 -32 37q-41 0 -51 -46h-90q22 126 151 126q51 0 82 -30.5t31 -80.5
zM717 712l-462 -712h-100l463 712h99zM785 141l-16 -81h-33l-12 -60h-85l12 60h-170l15 81l193 286h100l-194 -286h71l13 66h86l-14 -66h34z" />
    <glyph glyph-name="questiondown" unicode="&#xbf;" horiz-adv-x="497" 
d="M262 -3h124q-17 -98 -80.5 -146t-157.5 -48q-68 0 -116.5 43.5t-48.5 115.5q0 87 74 167l89 98q22 24 28 51l4 22h124l-7 -32q-13 -61 -54 -105l-89 -94q-44 -48 -44 -94q0 -26 15.5 -43.5t43.5 -17.5q77 0 95 83zM345 521l-25 -133h-131l26 133h130z" />
    <glyph glyph-name="Agrave" unicode="&#xc0;" horiz-adv-x="607" 
d="M552 0h-134l-15 130h-241l-67 -130h-141l388 712h105zM393 238l-34 274l-143 -274h177zM446 778h-92l-71 168h118z" />
    <glyph glyph-name="Aacute" unicode="&#xc1;" horiz-adv-x="607" 
d="M552 0h-134l-15 130h-241l-67 -130h-141l388 712h105zM393 238l-34 274l-143 -274h177zM577 946l-131 -168h-99l110 168h120z" />
    <glyph glyph-name="Acircumflex" unicode="&#xc2;" horiz-adv-x="607" 
d="M552 0h-134l-15 130h-241l-67 -130h-141l388 712h105zM393 238l-34 274l-143 -274h177zM575 778h-92l-59 94l-99 -94h-101l159 170h100z" />
    <glyph glyph-name="Atilde" unicode="&#xc3;" horiz-adv-x="607" 
d="M552 0h-134l-15 130h-241l-67 -130h-141l388 712h105zM393 238l-34 274l-143 -274h177zM542 901l45 -59q-55 -52 -111 -52q-40 0 -77 22q-28 17 -53 17q-31 0 -62 -31l-45 60q55 52 111 52q40 0 77 -22q28 -17 53 -17q32 0 62 30z" />
    <glyph glyph-name="Adieresis" unicode="&#xc4;" horiz-adv-x="607" 
d="M552 0h-134l-15 130h-241l-67 -130h-141l388 712h105zM393 238l-34 274l-143 -274h177zM582 902l-24 -122h-106l24 122h106zM373 902l-24 -122h-106l24 122h106z" />
    <glyph glyph-name="Aring" unicode="&#xc5;" horiz-adv-x="607" 
d="M552 0h-134l-15 130h-241l-67 -130h-141l388 712h105zM393 238l-34 274l-143 -274h177zM529 878q0 -54 -37 -90.5t-89 -36.5q-53 0 -90 36.5t-37 90.5t37 90.5t90 36.5q52 0 89 -36.5t37 -90.5zM461 878q0 24 -17.5 41t-40.5 17t-40.5 -17t-17.5 -41t17.5 -41t40.5 -17
t40.5 17t17.5 41z" />
    <glyph glyph-name="AE" unicode="&#xc6;" horiz-adv-x="940" 
d="M977 712l-23 -115h-313l-35 -181h268l-23 -115h-269l-37 -186h317l-23 -115h-449l32 163h-212l-112 -163h-146l496 712h529zM509 596l-223 -323h159z" />
    <glyph glyph-name="Ccedilla" unicode="&#xc7;" horiz-adv-x="592" 
d="M597 498h-132q0 47 -23 75.5t-70 28.5q-54 0 -95 -41q-22 -22 -37.5 -66.5t-33.5 -138.5q-20 -109 -20 -150q0 -45 26.5 -70.5t68.5 -25.5q49 0 83 30t49 74h136q-35 -109 -107.5 -164.5t-170.5 -55.5q-100 0 -159 57.5t-59 144.5q0 61 21 160q23 118 43.5 176.5
t62.5 104.5q78 81 201 81q106 0 161 -61.5t55 -158.5zM316 -57l-70 -144h-113l86 144h97z" />
    <glyph glyph-name="Egrave" unicode="&#xc8;" horiz-adv-x="578" 
d="M615 712l-23 -116h-312l-36 -179h269l-23 -116h-269l-37 -185h318l-23 -116h-451l143 712h444zM436 778h-92l-71 168h118z" />
    <glyph glyph-name="Eacute" unicode="&#xc9;" horiz-adv-x="578" 
d="M615 712l-23 -116h-312l-36 -179h269l-23 -116h-269l-37 -185h318l-23 -116h-451l143 712h444zM567 946l-131 -168h-99l110 168h120z" />
    <glyph glyph-name="Ecircumflex" unicode="&#xca;" horiz-adv-x="578" 
d="M615 712l-23 -116h-312l-36 -179h269l-23 -116h-269l-37 -185h318l-23 -116h-451l143 712h444zM565 778h-92l-59 94l-99 -94h-101l159 170h100z" />
    <glyph glyph-name="Edieresis" unicode="&#xcb;" horiz-adv-x="578" 
d="M615 712l-23 -116h-312l-36 -179h269l-23 -116h-269l-37 -185h318l-23 -116h-451l143 712h444zM572 902l-24 -122h-106l24 122h106zM363 902l-24 -122h-106l24 122h106z" />
    <glyph glyph-name="Igrave" unicode="&#xcc;" horiz-adv-x="290" 
d="M303 712l-143 -712h-132l143 712h132zM303 778h-92l-71 168h118z" />
    <glyph glyph-name="Iacute" unicode="&#xcd;" horiz-adv-x="290" 
d="M303 712l-143 -712h-132l143 712h132zM422 946l-131 -168h-99l110 168h120z" />
    <glyph glyph-name="Icircumflex" unicode="&#xce;" horiz-adv-x="290" 
d="M303 712l-143 -712h-132l143 712h132zM420 778h-92l-59 94l-99 -94h-101l159 170h100z" />
    <glyph glyph-name="Idieresis" unicode="&#xcf;" horiz-adv-x="290" 
d="M303 712l-143 -712h-132l143 712h132zM427 902l-24 -122h-106l24 122h106zM218 902l-24 -122h-106l24 122h106z" />
    <glyph glyph-name="Eth" unicode="&#xd0;" horiz-adv-x="648" 
d="M636 513q0 -44 -23 -154q-27 -136 -48 -191t-66 -98q-73 -70 -196 -70h-253l62 309h-66l20 100h66l61 303h233q94 0 152 -49.5t58 -149.5zM503 502q0 47 -26.5 70.5t-73.5 23.5h-101l-38 -187h110l-20 -100h-110l-39 -193h100q66 0 106 39q22 20 36.5 62t33.5 142
q22 114 22 143z" />
    <glyph glyph-name="Ntilde" unicode="&#xd1;" horiz-adv-x="677" 
d="M690 712l-143 -712h-112l-185 445l-90 -445h-132l143 712h112l186 -446l89 446h132zM561 901l45 -59q-55 -52 -111 -52q-40 0 -77 22q-28 17 -53 17q-31 0 -62 -31l-45 60q55 52 111 52q40 0 77 -22q28 -17 53 -17q32 0 62 30z" />
    <glyph glyph-name="Ograve" unicode="&#xd2;" horiz-adv-x="611" 
d="M595 516q0 -60 -20 -160q-22 -117 -43 -176.5t-63 -103.5q-77 -82 -201 -82q-99 0 -157 58t-58 144q0 60 20 160q22 117 43 176.5t63 103.5q77 82 201 82q99 0 157 -58t58 -144zM463 505q0 46 -26 71.5t-66 25.5q-56 0 -95 -43q-38 -42 -71 -203q-20 -100 -20 -149
q0 -46 26.5 -71.5t65.5 -25.5q56 0 95 43q21 22 36 64.5t35 138.5q20 100 20 149zM446 778h-92l-71 168h118z" />
    <glyph glyph-name="Oacute" unicode="&#xd3;" horiz-adv-x="611" 
d="M595 516q0 -60 -20 -160q-22 -117 -43 -176.5t-63 -103.5q-77 -82 -201 -82q-99 0 -157 58t-58 144q0 60 20 160q22 117 43 176.5t63 103.5q77 82 201 82q99 0 157 -58t58 -144zM463 505q0 46 -26 71.5t-66 25.5q-56 0 -95 -43q-38 -42 -71 -203q-20 -100 -20 -149
q0 -46 26.5 -71.5t65.5 -25.5q56 0 95 43q21 22 36 64.5t35 138.5q20 100 20 149zM577 946l-131 -168h-99l110 168h120z" />
    <glyph glyph-name="Ocircumflex" unicode="&#xd4;" horiz-adv-x="611" 
d="M595 516q0 -60 -20 -160q-22 -117 -43 -176.5t-63 -103.5q-77 -82 -201 -82q-99 0 -157 58t-58 144q0 60 20 160q22 117 43 176.5t63 103.5q77 82 201 82q99 0 157 -58t58 -144zM463 505q0 46 -26 71.5t-66 25.5q-56 0 -95 -43q-38 -42 -71 -203q-20 -100 -20 -149
q0 -46 26.5 -71.5t65.5 -25.5q56 0 95 43q21 22 36 64.5t35 138.5q20 100 20 149zM575 778h-92l-59 94l-99 -94h-101l159 170h100z" />
    <glyph glyph-name="Otilde" unicode="&#xd5;" horiz-adv-x="611" 
d="M595 516q0 -60 -20 -160q-22 -117 -43 -176.5t-63 -103.5q-77 -82 -201 -82q-99 0 -157 58t-58 144q0 60 20 160q22 117 43 176.5t63 103.5q77 82 201 82q99 0 157 -58t58 -144zM463 505q0 46 -26 71.5t-66 25.5q-56 0 -95 -43q-38 -42 -71 -203q-20 -100 -20 -149
q0 -46 26.5 -71.5t65.5 -25.5q56 0 95 43q21 22 36 64.5t35 138.5q20 100 20 149zM542 901l45 -59q-55 -52 -111 -52q-40 0 -77 22q-28 17 -53 17q-31 0 -62 -31l-45 60q55 52 111 52q40 0 77 -22q28 -17 53 -17q32 0 62 30z" />
    <glyph glyph-name="Odieresis" unicode="&#xd6;" horiz-adv-x="611" 
d="M595 516q0 -60 -20 -160q-22 -117 -43 -176.5t-63 -103.5q-77 -82 -201 -82q-99 0 -157 58t-58 144q0 60 20 160q22 117 43 176.5t63 103.5q77 82 201 82q99 0 157 -58t58 -144zM463 505q0 46 -26 71.5t-66 25.5q-56 0 -95 -43q-38 -42 -71 -203q-20 -100 -20 -149
q0 -46 26.5 -71.5t65.5 -25.5q56 0 95 43q21 22 36 64.5t35 138.5q20 100 20 149zM582 902l-24 -122h-106l24 122h106zM373 902l-24 -122h-106l24 122h106z" />
    <glyph glyph-name="multiply" unicode="&#xd7;" 
d="M504 422l-162 -141l107 -140l-90 -78l-106 142l-162 -141l-66 86l162 140l-107 141l91 78l106 -141l161 140z" />
    <glyph glyph-name="Oslash" unicode="&#xd8;" horiz-adv-x="611" 
d="M595 516q0 -60 -20 -160q-22 -117 -43 -176.5t-63 -103.5q-77 -82 -201 -82q-65 0 -112 25l-41 -63h-96l75 114q-41 53 -41 126q0 60 20 160q22 117 43 176.5t63 103.5q77 82 201 82q63 0 114 -27l42 65h96l-76 -117q39 -53 39 -123zM185 207v-5l244 381q-25 19 -58 19
q-56 0 -95 -43q-38 -42 -71 -203q-20 -100 -20 -149zM463 505v3l-244 -380q24 -18 58 -18q56 0 95 43q21 22 36 64.5t35 138.5q20 100 20 149z" />
    <glyph glyph-name="Ugrave" unicode="&#xd9;" horiz-adv-x="635" 
d="M658 712l-94 -468q-24 -125 -102 -187.5t-183 -62.5q-93 0 -155 55.5t-62 147.5q0 26 7 61l91 454h132l-93 -462q-5 -18 -5 -44q0 -40 23.5 -67.5t70.5 -27.5q57 0 95 37.5t52 108.5l91 455h132zM462 778h-92l-71 168h118z" />
    <glyph glyph-name="Uacute" unicode="&#xda;" horiz-adv-x="635" 
d="M658 712l-94 -468q-24 -125 -102 -187.5t-183 -62.5q-93 0 -155 55.5t-62 147.5q0 26 7 61l91 454h132l-93 -462q-5 -18 -5 -44q0 -40 23.5 -67.5t70.5 -27.5q57 0 95 37.5t52 108.5l91 455h132zM593 946l-131 -168h-99l110 168h120z" />
    <glyph glyph-name="Ucircumflex" unicode="&#xdb;" horiz-adv-x="635" 
d="M658 712l-94 -468q-24 -125 -102 -187.5t-183 -62.5q-93 0 -155 55.5t-62 147.5q0 26 7 61l91 454h132l-93 -462q-5 -18 -5 -44q0 -40 23.5 -67.5t70.5 -27.5q57 0 95 37.5t52 108.5l91 455h132zM592 778h-92l-59 94l-99 -94h-101l159 170h100z" />
    <glyph glyph-name="Udieresis" unicode="&#xdc;" horiz-adv-x="635" 
d="M658 712l-94 -468q-24 -125 -102 -187.5t-183 -62.5q-93 0 -155 55.5t-62 147.5q0 26 7 61l91 454h132l-93 -462q-5 -18 -5 -44q0 -40 23.5 -67.5t70.5 -27.5q57 0 95 37.5t52 108.5l91 455h132zM598 902l-24 -122h-106l24 122h106zM389 902l-24 -122h-106l24 122h106z
" />
    <glyph glyph-name="Yacute" unicode="&#xdd;" horiz-adv-x="550" 
d="M635 712l-286 -425l-58 -287h-132l59 292l-129 420h140l76 -295l184 295h146zM539 946l-131 -168h-99l110 168h120z" />
    <glyph glyph-name="Thorn" unicode="&#xde;" horiz-adv-x="601" 
d="M588 390q0 -102 -70.5 -175t-193.5 -73h-136l-28 -142h-132l143 712h132l-27 -134h120q89 0 140.5 -51.5t51.5 -136.5zM455 379q0 82 -80 82h-122l-41 -202h118q59 0 92 37t33 83z" />
    <glyph glyph-name="germandbls" unicode="&#xdf;" horiz-adv-x="547" 
d="M551 565q0 -41 -21 -79t-63 -61q41 -27 41 -76q0 -13 -3 -28l-30 -160q-16 -84 -60.5 -122.5t-123.5 -38.5h-59l21 104h27q26 0 45 16q20 17 27 50l29 148q2 16 2 20q0 41 -46 41h-31l20 97h29q33 0 52 23t19 54q0 22 -12 37q-19 21 -58 21q-51 0 -75.5 -24.5
t-34.5 -72.5l-103 -514h-125l105 524q21 105 83.5 149.5t163.5 44.5q82 0 131.5 -40t49.5 -113z" />
    <glyph glyph-name="agrave" unicode="&#xe0;" horiz-adv-x="509" 
d="M469 382q0 -21 -5 -46l-68 -336h-119l9 46q-51 -51 -126 -51q-68 0 -108.5 38t-40.5 99q0 76 47 123q54 54 152 54h124l7 31q3 11 3 27q0 56 -77 56q-66 0 -112 -49l-64 83q70 70 193 70q77 0 131 -34.5t54 -110.5zM317 224h-95q-41 0 -65 -22t-24 -58q0 -49 66 -49
q49 0 81 32q23 23 31 66zM360 601h-91l-72 167h118z" />
    <glyph glyph-name="aacute" unicode="&#xe1;" horiz-adv-x="509" 
d="M469 382q0 -21 -5 -46l-68 -336h-119l9 46q-51 -51 -126 -51q-68 0 -108.5 38t-40.5 99q0 76 47 123q54 54 152 54h124l7 31q3 11 3 27q0 56 -77 56q-66 0 -112 -49l-64 83q70 70 193 70q77 0 131 -34.5t54 -110.5zM317 224h-95q-41 0 -65 -22t-24 -58q0 -49 66 -49
q49 0 81 32q23 23 31 66zM491 768l-130 -167h-100l111 167h119z" />
    <glyph glyph-name="acircumflex" unicode="&#xe2;" horiz-adv-x="509" 
d="M469 382q0 -21 -5 -46l-68 -336h-119l9 46q-51 -51 -126 -51q-68 0 -108.5 38t-40.5 99q0 76 47 123q54 54 152 54h124l7 31q3 11 3 27q0 56 -77 56q-66 0 -112 -49l-64 83q70 70 193 70q77 0 131 -34.5t54 -110.5zM317 224h-95q-41 0 -65 -22t-24 -58q0 -49 66 -49
q49 0 81 32q23 23 31 66zM489 601h-91l-60 94l-98 -94h-101l159 169h99z" />
    <glyph glyph-name="atilde" unicode="&#xe3;" horiz-adv-x="509" 
d="M469 382q0 -21 -5 -46l-68 -336h-119l9 46q-51 -51 -126 -51q-68 0 -108.5 38t-40.5 99q0 76 47 123q54 54 152 54h124l7 31q3 11 3 27q0 56 -77 56q-66 0 -112 -49l-64 83q70 70 193 70q77 0 131 -34.5t54 -110.5zM317 224h-95q-41 0 -65 -22t-24 -58q0 -49 66 -49
q49 0 81 32q23 23 31 66zM455 718l45 -59q-55 -52 -111 -52q-40 0 -77 22q-28 17 -52 17q-31 0 -62 -31l-45 60q53 52 110 52q40 0 77 -22q28 -17 53 -17q32 0 62 30z" />
    <glyph glyph-name="adieresis" unicode="&#xe4;" horiz-adv-x="509" 
d="M469 382q0 -21 -5 -46l-68 -336h-119l9 46q-51 -51 -126 -51q-68 0 -108.5 38t-40.5 99q0 76 47 123q54 54 152 54h124l7 31q3 11 3 27q0 56 -77 56q-66 0 -112 -49l-64 83q70 70 193 70q77 0 131 -34.5t54 -110.5zM317 224h-95q-41 0 -65 -22t-24 -58q0 -49 66 -49
q49 0 81 32q23 23 31 66zM497 725l-24 -122h-106l24 122h106zM288 725l-24 -122h-106l24 122h106z" />
    <glyph glyph-name="aring" unicode="&#xe5;" horiz-adv-x="509" 
d="M469 382q0 -21 -5 -46l-68 -336h-119l9 46q-51 -51 -126 -51q-68 0 -108.5 38t-40.5 99q0 76 47 123q54 54 152 54h124l7 31q3 11 3 27q0 56 -77 56q-66 0 -112 -49l-64 83q70 70 193 70q77 0 131 -34.5t54 -110.5zM317 224h-95q-41 0 -65 -22t-24 -58q0 -49 66 -49
q49 0 81 32q23 23 31 66zM461 711q0 -54 -37.5 -90.5t-89.5 -36.5t-89 36.5t-37 90.5q0 53 37 89.5t89 36.5t89.5 -36.5t37.5 -89.5zM393 711q0 23 -18 40t-41 17t-40.5 -17t-17.5 -40q0 -24 17.5 -41.5t40.5 -17.5t41 17.5t18 41.5z" />
    <glyph glyph-name="ae" unicode="&#xe6;" horiz-adv-x="802" 
d="M764 342q0 -46 -16 -119h-312q-4 -20 -4 -37q0 -40 22.5 -63.5t66.5 -23.5q69 0 124 53l65 -82q-82 -76 -203 -76q-107 0 -158 73q-66 -73 -172 -73q-78 0 -122.5 36t-44.5 102q0 75 46 121q54 54 153 54h125l6 31q3 13 3 29q0 56 -77 56q-69 0 -112 -49l-64 83
q70 70 194 70q99 0 146 -56q62 56 148 56q84 0 135 -49.5t51 -135.5zM317 223h-96q-41 0 -65 -21.5t-24 -57.5q0 -49 66 -49q49 0 81 32q24 23 32 65zM646 342q0 40 -20 61.5t-54 21.5q-88 0 -120 -118h191q3 17 3 35z" />
    <glyph glyph-name="ccedilla" unicode="&#xe7;" horiz-adv-x="458" 
d="M463 455l-93 -82q-32 43 -72 43q-42 0 -74 -33q-40 -42 -55 -122q-7 -40 -7 -67q0 -42 19 -65.5t55 -23.5q47 0 91 44l69 -89q-71 -66 -172 -66q-79 0 -133 49t-54 137q0 35 8 81q28 145 99.5 205.5t165.5 60.5q97 0 153 -72zM258 -57l-70 -144h-113l86 144h97z" />
    <glyph glyph-name="egrave" unicode="&#xe8;" horiz-adv-x="523" 
d="M486 341q0 -47 -16 -118h-312q-4 -16 -4 -37q0 -40 22.5 -63.5t66.5 -23.5q69 0 124 53l65 -82q-82 -76 -203 -76q-36 0 -69 10t-61.5 30.5t-45.5 57t-17 85.5q0 91 27.5 168.5t89.5 129.5t148 52q82 0 133.5 -51t51.5 -135zM368 341q0 41 -20 62.5t-54 21.5
q-88 0 -120 -119h191q3 16 3 35zM375 601h-91l-72 167h118z" />
    <glyph glyph-name="eacute" unicode="&#xe9;" horiz-adv-x="523" 
d="M486 341q0 -47 -16 -118h-312q-4 -16 -4 -37q0 -40 22.5 -63.5t66.5 -23.5q69 0 124 53l65 -82q-82 -76 -203 -76q-36 0 -69 10t-61.5 30.5t-45.5 57t-17 85.5q0 91 27.5 168.5t89.5 129.5t148 52q82 0 133.5 -51t51.5 -135zM368 341q0 41 -20 62.5t-54 21.5
q-88 0 -120 -119h191q3 16 3 35zM506 768l-130 -167h-100l111 167h119z" />
    <glyph glyph-name="ecircumflex" unicode="&#xea;" horiz-adv-x="523" 
d="M486 341q0 -47 -16 -118h-312q-4 -16 -4 -37q0 -40 22.5 -63.5t66.5 -23.5q69 0 124 53l65 -82q-82 -76 -203 -76q-36 0 -69 10t-61.5 30.5t-45.5 57t-17 85.5q0 91 27.5 168.5t89.5 129.5t148 52q82 0 133.5 -51t51.5 -135zM368 341q0 41 -20 62.5t-54 21.5
q-88 0 -120 -119h191q3 16 3 35zM504 601h-91l-60 94l-98 -94h-101l159 169h99z" />
    <glyph glyph-name="edieresis" unicode="&#xeb;" horiz-adv-x="523" 
d="M486 341q0 -47 -16 -118h-312q-4 -16 -4 -37q0 -40 22.5 -63.5t66.5 -23.5q69 0 124 53l65 -82q-82 -76 -203 -76q-36 0 -69 10t-61.5 30.5t-45.5 57t-17 85.5q0 91 27.5 168.5t89.5 129.5t148 52q82 0 133.5 -51t51.5 -135zM368 341q0 41 -20 62.5t-54 21.5
q-88 0 -120 -119h191q3 16 3 35zM512 725l-24 -122h-106l24 122h106zM303 725l-24 -122h-106l24 122h106z" />
    <glyph glyph-name="igrave" unicode="&#xec;" horiz-adv-x="262" 
d="M243 505l-101 -505h-124l101 505h124zM246 601h-91l-72 167h118z" />
    <glyph glyph-name="iacute" unicode="&#xed;" horiz-adv-x="262" 
d="M376 768l-130 -167h-100l111 167h119zM243 505l-101 -505h-124l101 505h124z" />
    <glyph glyph-name="icircumflex" unicode="&#xee;" horiz-adv-x="262" 
d="M243 505l-101 -505h-124l101 505h124zM372 601h-91l-60 94l-98 -94h-101l159 169h99z" />
    <glyph glyph-name="idieresis" unicode="&#xef;" horiz-adv-x="262" 
d="M243 505l-101 -505h-124l101 505h124zM377 725l-24 -122h-106l24 122h106zM168 725l-24 -122h-106l24 122h106z" />
    <glyph glyph-name="eth" unicode="&#xf0;" horiz-adv-x="515" 
d="M484 658l-17 -86h-46l24 -76q27 -87 27 -150q0 -42 -10 -92q-9 -44 -17 -72t-28 -67.5t-48 -65.5q-61 -55 -154 -55q-71 0 -122 42.5t-51 128.5q0 37 11 89q13 76 33.5 121.5t56.5 79.5q55 55 143 55q16 0 30 -3l-21 65h-112l17 86h70l-19 62h128l18 -62h87zM348 336
q0 67 -60 67q-37 0 -60 -23q-32 -29 -51 -126q-11 -49 -11 -82q0 -68 61 -68q36 0 60 24q32 29 51 126q10 44 10 82z" />
    <glyph glyph-name="ntilde" unicode="&#xf1;" horiz-adv-x="544" 
d="M501 383q0 -28 -7 -58l-65 -325h-124l64 317q4 16 4 34q0 32 -18 48.5t-44 16.5q-35 0 -65 -22t-41 -78l-64 -316h-124l104 521h119l-9 -50q51 56 137 56q52 0 92.5 -36.5t40.5 -107.5zM479 718l45 -59q-55 -52 -111 -52q-40 0 -77 22q-28 17 -52 17q-31 0 -62 -31
l-45 60q53 52 110 52q40 0 77 -22q28 -17 53 -17q32 0 62 30z" />
    <glyph glyph-name="ograve" unicode="&#xf2;" horiz-adv-x="515" 
d="M477 355q0 -37 -10 -94q-28 -147 -93 -207q-62 -60 -160 -60q-73 0 -125 44t-52 128q0 42 11 95q15 80 36.5 125.5t56.5 80.5q60 60 160 60q72 0 124 -44t52 -128zM354 341q0 37 -18 56t-48 19q-38 0 -64 -26q-33 -32 -53 -129q-11 -55 -11 -81q0 -37 18 -56t48 -19
q38 0 64 26q35 34 53 130q11 54 11 80zM370 601h-91l-72 167h118z" />
    <glyph glyph-name="oacute" unicode="&#xf3;" horiz-adv-x="515" 
d="M477 355q0 -37 -10 -94q-28 -147 -93 -207q-62 -60 -160 -60q-73 0 -125 44t-52 128q0 42 11 95q15 80 36.5 125.5t56.5 80.5q60 60 160 60q72 0 124 -44t52 -128zM354 341q0 37 -18 56t-48 19q-38 0 -64 -26q-33 -32 -53 -129q-11 -55 -11 -81q0 -37 18 -56t48 -19
q38 0 64 26q35 34 53 130q11 54 11 80zM501 768l-130 -167h-100l111 167h119z" />
    <glyph glyph-name="ocircumflex" unicode="&#xf4;" horiz-adv-x="515" 
d="M477 355q0 -37 -10 -94q-28 -147 -93 -207q-62 -60 -160 -60q-73 0 -125 44t-52 128q0 42 11 95q15 80 36.5 125.5t56.5 80.5q60 60 160 60q72 0 124 -44t52 -128zM354 341q0 37 -18 56t-48 19q-38 0 -64 -26q-33 -32 -53 -129q-11 -55 -11 -81q0 -37 18 -56t48 -19
q38 0 64 26q35 34 53 130q11 54 11 80zM499 601h-91l-60 94l-98 -94h-101l159 169h99z" />
    <glyph glyph-name="otilde" unicode="&#xf5;" horiz-adv-x="515" 
d="M477 355q0 -37 -10 -94q-28 -147 -93 -207q-62 -60 -160 -60q-73 0 -125 44t-52 128q0 42 11 95q15 80 36.5 125.5t56.5 80.5q60 60 160 60q72 0 124 -44t52 -128zM354 341q0 37 -18 56t-48 19q-38 0 -64 -26q-33 -32 -53 -129q-11 -55 -11 -81q0 -37 18 -56t48 -19
q38 0 64 26q35 34 53 130q11 54 11 80zM465 718l45 -59q-55 -52 -111 -52q-40 0 -77 22q-28 17 -52 17q-31 0 -62 -31l-45 60q53 52 110 52q40 0 77 -22q28 -17 53 -17q32 0 62 30z" />
    <glyph glyph-name="odieresis" unicode="&#xf6;" horiz-adv-x="515" 
d="M477 355q0 -37 -10 -94q-28 -147 -93 -207q-62 -60 -160 -60q-73 0 -125 44t-52 128q0 42 11 95q15 80 36.5 125.5t56.5 80.5q60 60 160 60q72 0 124 -44t52 -128zM354 341q0 37 -18 56t-48 19q-38 0 -64 -26q-33 -32 -53 -129q-11 -55 -11 -81q0 -37 18 -56t48 -19
q38 0 64 26q35 34 53 130q11 54 11 80zM507 725l-24 -122h-106l24 122h106zM298 725l-24 -122h-106l24 122h106z" />
    <glyph glyph-name="divide" unicode="&#xf7;" 
d="M490 343l-23 -115h-429l23 115h429zM376 543l-25 -124h-124l25 124h124zM301 153l-24 -124h-124l25 124h123z" />
    <glyph glyph-name="oslash" unicode="&#xf8;" horiz-adv-x="517" 
d="M477 355q0 -37 -10 -94q-28 -147 -93 -207q-62 -60 -160 -60q-54 0 -100 25l-46 -63h-76l77 104q-32 43 -32 106q0 42 11 95q15 80 36.5 125.5t56.5 80.5q60 60 160 60q57 0 100 -26l48 62h76l-79 -103q31 -44 31 -105zM160 167l173 233q-17 17 -45 17q-38 0 -64 -26
q-35 -34 -53 -130q-11 -55 -11 -94zM354 342v6l-170 -230q19 -13 42 -13q38 0 64 26q35 34 53 130q11 55 11 81z" />
    <glyph glyph-name="ugrave" unicode="&#xf9;" horiz-adv-x="544" 
d="M528 521l-104 -521h-119l9 50q-51 -56 -136 -56q-52 0 -93 36.5t-41 108.5q0 17 7 57l65 325h124l-64 -317q-4 -15 -4 -34q0 -32 18 -48.5t44 -16.5q34 0 64.5 22t41.5 78l64 316h124zM377 601h-91l-72 167h118z" />
    <glyph glyph-name="uacute" unicode="&#xfa;" horiz-adv-x="544" 
d="M528 521l-104 -521h-119l9 50q-51 -56 -136 -56q-52 0 -93 36.5t-41 108.5q0 17 7 57l65 325h124l-64 -317q-4 -15 -4 -34q0 -32 18 -48.5t44 -16.5q34 0 64.5 22t41.5 78l64 316h124zM508 768l-130 -167h-100l111 167h119z" />
    <glyph glyph-name="ucircumflex" unicode="&#xfb;" horiz-adv-x="544" 
d="M528 521l-104 -521h-119l9 50q-51 -56 -136 -56q-52 0 -93 36.5t-41 108.5q0 17 7 57l65 325h124l-64 -317q-4 -15 -4 -34q0 -32 18 -48.5t44 -16.5q34 0 64.5 22t41.5 78l64 316h124zM506 601h-91l-60 94l-98 -94h-101l159 169h99z" />
    <glyph glyph-name="udieresis" unicode="&#xfc;" horiz-adv-x="544" 
d="M528 521l-104 -521h-119l9 50q-51 -56 -136 -56q-52 0 -93 36.5t-41 108.5q0 17 7 57l65 325h124l-64 -317q-4 -15 -4 -34q0 -32 18 -48.5t44 -16.5q34 0 64.5 22t41.5 78l64 316h124zM514 725l-24 -122h-106l24 122h106zM305 725l-24 -122h-106l24 122h106z" />
    <glyph glyph-name="yacute" unicode="&#xfd;" horiz-adv-x="464" 
d="M515 521l-325 -605q-20 -38 -43 -61q-46 -46 -124 -46h-48l23 112h28q26 0 41 12.5t30 41.5l33 62l-74 484h123l38 -336l167 336h131zM474 768l-130 -167h-100l111 167h119z" />
    <glyph glyph-name="thorn" unicode="&#xfe;" horiz-adv-x="533" 
d="M501 383q0 -35 -16 -122q-19 -89 -37 -138.5t-46 -77.5q-51 -51 -131 -51q-86 0 -118 54l-49 -239h-124l180 903h124l-47 -234q45 49 124 49q51 0 84 -23.5t44.5 -54t11.5 -66.5zM372 344q0 72 -62 72q-52 0 -76.5 -37.5t-39.5 -117.5q-11 -59 -11 -84q0 -72 62 -72
q52 0 76.5 38t39.5 118q11 59 11 83z" />
    <glyph glyph-name="ydieresis" unicode="&#xff;" horiz-adv-x="464" 
d="M515 521l-325 -605q-20 -38 -43 -61q-46 -46 -124 -46h-48l23 112h28q26 0 41 12.5t30 41.5l33 62l-74 484h123l38 -336l167 336h131zM479 725l-24 -122h-106l24 122h106zM270 725l-24 -122h-106l24 122h106z" />
    <glyph glyph-name="Amacron" unicode="&#x100;" horiz-adv-x="607" 
d="M552 0h-134l-15 130h-241l-67 -130h-141l388 712h105zM393 238l-34 274l-143 -274h177zM569 874l-16 -82h-302l17 82h301z" />
    <glyph glyph-name="amacron" unicode="&#x101;" horiz-adv-x="509" 
d="M469 382q0 -21 -5 -46l-68 -336h-119l9 46q-51 -51 -126 -51q-68 0 -108.5 38t-40.5 99q0 76 47 123q54 54 152 54h124l7 31q3 11 3 27q0 56 -77 56q-66 0 -112 -49l-64 83q70 70 193 70q77 0 131 -34.5t54 -110.5zM317 224h-95q-41 0 -65 -22t-24 -58q0 -49 66 -49
q49 0 81 32q23 23 31 66zM486 701l-16 -82h-302l17 82h301z" />
    <glyph glyph-name="Abreve" unicode="&#x102;" horiz-adv-x="607" 
d="M552 0h-134l-15 130h-241l-67 -130h-141l388 712h105zM393 238l-34 274l-143 -274h177zM493 915h84q-15 -76 -56.5 -110t-110.5 -34q-64 0 -99 31.5t-35 81.5q0 14 3 31h82q-1 -5 -1 -11v-5q0 -44 59 -44t74 60z" />
    <glyph glyph-name="abreve" unicode="&#x103;" horiz-adv-x="509" 
d="M469 382q0 -21 -5 -46l-68 -336h-119l9 46q-51 -51 -126 -51q-68 0 -108.5 38t-40.5 99q0 76 47 123q54 54 152 54h124l7 31q3 11 3 27q0 56 -77 56q-66 0 -112 -49l-64 83q70 70 193 70q77 0 131 -34.5t54 -110.5zM317 224h-95q-41 0 -65 -22t-24 -58q0 -49 66 -49
q49 0 81 32q23 23 31 66zM402 736h84q-15 -76 -56.5 -110t-110.5 -34q-64 0 -99 31.5t-35 81.5q0 15 3 31h82q-1 -5 -1 -11v-5q0 -44 59 -44t74 60z" />
    <glyph glyph-name="Aogonek" unicode="&#x104;" horiz-adv-x="607" 
d="M552 0h-134l-15 130h-241l-67 -130h-141l388 712h105zM393 238l-34 274l-143 -274h177zM523 -57l-70 -144h-113l86 144h97z" />
    <glyph glyph-name="aogonek" unicode="&#x105;" horiz-adv-x="509" 
d="M469 382q0 -21 -5 -46l-68 -336h-119l9 46q-51 -51 -126 -51q-68 0 -108.5 38t-40.5 99q0 76 47 123q54 54 152 54h124l7 31q3 11 3 27q0 56 -77 56q-66 0 -112 -49l-64 83q70 70 193 70q77 0 131 -34.5t54 -110.5zM317 224h-95q-41 0 -65 -22t-24 -58q0 -49 66 -49
q49 0 81 32q23 23 31 66zM367 -57l-70 -144h-113l86 144h97z" />
    <glyph glyph-name="Cacute" unicode="&#x106;" horiz-adv-x="592" 
d="M597 498h-132q0 47 -23 75.5t-70 28.5q-54 0 -95 -41q-22 -22 -37.5 -66.5t-33.5 -138.5q-20 -109 -20 -150q0 -45 26.5 -70.5t68.5 -25.5q49 0 83 30t49 74h136q-35 -109 -107.5 -164.5t-170.5 -55.5q-100 0 -159 57.5t-59 144.5q0 61 21 160q23 118 43.5 176.5
t62.5 104.5q78 81 201 81q106 0 161 -61.5t55 -158.5zM577 946l-131 -168h-99l110 168h120z" />
    <glyph glyph-name="cacute" unicode="&#x107;" horiz-adv-x="458" 
d="M463 455l-93 -82q-32 43 -72 43q-42 0 -74 -33q-40 -42 -55 -122q-7 -40 -7 -67q0 -42 19 -65.5t55 -23.5q47 0 91 44l69 -89q-71 -66 -172 -66q-79 0 -133 49t-54 137q0 35 8 81q28 145 99.5 205.5t165.5 60.5q97 0 153 -72zM508 768l-130 -167h-100l111 167h119z" />
    <glyph glyph-name="Ccircumflex" unicode="&#x108;" horiz-adv-x="592" 
d="M597 498h-132q0 47 -23 75.5t-70 28.5q-54 0 -95 -41q-22 -22 -37.5 -66.5t-33.5 -138.5q-20 -109 -20 -150q0 -45 26.5 -70.5t68.5 -25.5q49 0 83 30t49 74h136q-35 -109 -107.5 -164.5t-170.5 -55.5q-100 0 -159 57.5t-59 144.5q0 61 21 160q23 118 43.5 176.5
t62.5 104.5q78 81 201 81q106 0 161 -61.5t55 -158.5zM575 778h-92l-59 94l-99 -94h-101l159 170h100z" />
    <glyph glyph-name="ccircumflex" unicode="&#x109;" horiz-adv-x="458" 
d="M463 455l-93 -82q-32 43 -72 43q-42 0 -74 -33q-40 -42 -55 -122q-7 -40 -7 -67q0 -42 19 -65.5t55 -23.5q47 0 91 44l69 -89q-71 -66 -172 -66q-79 0 -133 49t-54 137q0 35 8 81q28 145 99.5 205.5t165.5 60.5q97 0 153 -72zM506 601h-91l-60 94l-98 -94h-101l159 169
h99z" />
    <glyph glyph-name="Cdotaccent" unicode="&#x10a;" horiz-adv-x="592" 
d="M597 498h-132q0 47 -23 75.5t-70 28.5q-54 0 -95 -41q-22 -22 -37.5 -66.5t-33.5 -138.5q-20 -109 -20 -150q0 -45 26.5 -70.5t68.5 -25.5q49 0 83 30t49 74h136q-35 -109 -107.5 -164.5t-170.5 -55.5q-100 0 -159 57.5t-59 144.5q0 61 21 160q23 118 43.5 176.5
t62.5 104.5q78 81 201 81q106 0 161 -61.5t55 -158.5zM480 900l-23 -114h-107l23 114h107z" />
    <glyph glyph-name="cdotaccent" unicode="&#x10b;" horiz-adv-x="458" 
d="M463 455l-93 -82q-32 43 -72 43q-42 0 -74 -33q-40 -42 -55 -122q-7 -40 -7 -67q0 -42 19 -65.5t55 -23.5q47 0 91 44l69 -89q-71 -66 -172 -66q-79 0 -133 49t-54 137q0 35 8 81q28 145 99.5 205.5t165.5 60.5q97 0 153 -72zM410 723l-22 -114h-108l24 114h106z" />
    <glyph glyph-name="Ccaron" unicode="&#x10c;" horiz-adv-x="592" 
d="M597 498h-132q0 47 -23 75.5t-70 28.5q-54 0 -95 -41q-22 -22 -37.5 -66.5t-33.5 -138.5q-20 -109 -20 -150q0 -45 26.5 -70.5t68.5 -25.5q49 0 83 30t49 74h136q-35 -109 -107.5 -164.5t-170.5 -55.5q-100 0 -159 57.5t-59 144.5q0 61 21 160q23 118 43.5 176.5
t62.5 104.5q78 81 201 81q106 0 161 -61.5t55 -158.5zM614 948l-159 -170h-100l-92 170h92l59 -95l99 95h101z" />
    <glyph glyph-name="ccaron" unicode="&#x10d;" horiz-adv-x="458" 
d="M463 455l-93 -82q-32 43 -72 43q-42 0 -74 -33q-40 -42 -55 -122q-7 -40 -7 -67q0 -42 19 -65.5t55 -23.5q47 0 91 44l69 -89q-71 -66 -172 -66q-79 0 -133 49t-54 137q0 35 8 81q28 145 99.5 205.5t165.5 60.5q97 0 153 -72zM543 770l-160 -169h-99l-93 169h93l59 -94
l99 94h101z" />
    <glyph glyph-name="Dcaron" unicode="&#x10e;" horiz-adv-x="626" 
d="M614 513q0 -44 -23 -154q-27 -136 -48 -191t-66 -98q-73 -70 -196 -70h-253l143 712h233q94 0 152 -49.5t58 -149.5zM481 502q0 47 -26.5 70.5t-73.5 23.5h-101l-96 -480h100q64 0 104 39q22 21 37 63t34 141q22 114 22 143zM614 948l-159 -170h-100l-92 170h92l59 -95
l99 95h101z" />
    <glyph glyph-name="dcaron" unicode="&#x10f;" horiz-adv-x="533" 
d="M555 712l-142 -712h-120l11 50q-49 -56 -129 -56q-75 0 -108 43t-33 103q0 37 16 121q32 164 83 215t132 51q80 0 118 -56l48 241h124zM352 345q0 71 -62 71q-52 0 -76.5 -37.5t-39.5 -117.5q-11 -59 -11 -84q0 -72 62 -72q52 0 76.5 38t39.5 118q11 59 11 84zM767 740
l-91 -165h-91l67 165h115z" />
    <glyph glyph-name="Dcroat" unicode="&#x110;" horiz-adv-x="648" 
d="M636 513q0 -44 -23 -154q-27 -136 -48 -191t-66 -98q-73 -70 -196 -70h-253l62 309h-66l20 100h66l61 303h233q94 0 152 -49.5t58 -149.5zM503 502q0 47 -26.5 70.5t-73.5 23.5h-101l-38 -187h110l-20 -100h-110l-39 -193h100q66 0 106 39q22 20 36.5 62t33.5 142
q22 114 22 143z" />
    <glyph glyph-name="dcroat" unicode="&#x111;" horiz-adv-x="553" 
d="M593 648l-16 -78h-51l-113 -570h-120l11 50q-49 -56 -129 -56q-75 0 -108 43t-33 103q0 37 16 121q32 164 83 215t132 51q80 0 118 -56l19 99h-87l16 78h87l13 64h124l-13 -64h51zM352 345q0 71 -62 71q-52 0 -76.5 -37.5t-39.5 -117.5q-11 -59 -11 -84q0 -72 62 -72
q52 0 76.5 38t39.5 118q11 59 11 84z" />
    <glyph glyph-name="Emacron" unicode="&#x112;" horiz-adv-x="578" 
d="M615 712l-23 -116h-312l-36 -179h269l-23 -116h-269l-37 -185h318l-23 -116h-451l143 712h444zM559 874l-16 -82h-302l17 82h301z" />
    <glyph glyph-name="emacron" unicode="&#x113;" horiz-adv-x="523" 
d="M486 341q0 -47 -16 -118h-312q-4 -16 -4 -37q0 -40 22.5 -63.5t66.5 -23.5q69 0 124 53l65 -82q-82 -76 -203 -76q-36 0 -69 10t-61.5 30.5t-45.5 57t-17 85.5q0 91 27.5 168.5t89.5 129.5t148 52q82 0 133.5 -51t51.5 -135zM368 341q0 41 -20 62.5t-54 21.5
q-88 0 -120 -119h191q3 16 3 35zM501 701l-16 -82h-302l17 82h301z" />
    <glyph glyph-name="Ebreve" unicode="&#x114;" horiz-adv-x="578" 
d="M615 712l-23 -116h-312l-36 -179h269l-23 -116h-269l-37 -185h318l-23 -116h-451l143 712h444zM469 915h84q-15 -76 -56.5 -110t-110.5 -34q-64 0 -99 31.5t-35 81.5q0 14 3 31h82q-1 -5 -1 -11v-5q0 -44 59 -44t74 60z" />
    <glyph glyph-name="ebreve" unicode="&#x115;" horiz-adv-x="523" 
d="M486 341q0 -47 -16 -118h-312q-4 -16 -4 -37q0 -40 22.5 -63.5t66.5 -23.5q69 0 124 53l65 -82q-82 -76 -203 -76q-36 0 -69 10t-61.5 30.5t-45.5 57t-17 85.5q0 91 27.5 168.5t89.5 129.5t148 52q82 0 133.5 -51t51.5 -135zM368 341q0 41 -20 62.5t-54 21.5
q-88 0 -120 -119h191q3 16 3 35zM411 736h84q-15 -76 -56.5 -110t-110.5 -34q-64 0 -99 31.5t-35 81.5q0 15 3 31h82q-1 -5 -1 -11v-5q0 -44 59 -44t74 60z" />
    <glyph glyph-name="Edotaccent" unicode="&#x116;" horiz-adv-x="578" 
d="M615 712l-23 -116h-312l-36 -179h269l-23 -116h-269l-37 -185h318l-23 -116h-451l143 712h444zM470 900l-23 -114h-107l23 114h107z" />
    <glyph glyph-name="edotaccent" unicode="&#x117;" horiz-adv-x="523" 
d="M486 341q0 -47 -16 -118h-312q-4 -16 -4 -37q0 -40 22.5 -63.5t66.5 -23.5q69 0 124 53l65 -82q-82 -76 -203 -76q-36 0 -69 10t-61.5 30.5t-45.5 57t-17 85.5q0 91 27.5 168.5t89.5 129.5t148 52q82 0 133.5 -51t51.5 -135zM368 341q0 41 -20 62.5t-54 21.5
q-88 0 -120 -119h191q3 16 3 35zM408 723l-22 -114h-108l24 114h106z" />
    <glyph glyph-name="Eogonek" unicode="&#x118;" horiz-adv-x="578" 
d="M615 712l-23 -116h-312l-36 -179h269l-23 -116h-269l-37 -185h318l-23 -116h-451l143 712h444zM451 -57l-70 -144h-113l86 144h97z" />
    <glyph glyph-name="eogonek" unicode="&#x119;" horiz-adv-x="523" 
d="M486 341q0 -47 -16 -118h-312q-4 -16 -4 -37q0 -40 22.5 -63.5t66.5 -23.5q69 0 124 53l65 -82q-82 -76 -203 -76q-36 0 -69 10t-61.5 30.5t-45.5 57t-17 85.5q0 91 27.5 168.5t89.5 129.5t148 52q82 0 133.5 -51t51.5 -135zM368 341q0 41 -20 62.5t-54 21.5
q-88 0 -120 -119h191q3 16 3 35zM352 -57l-70 -144h-113l86 144h97z" />
    <glyph glyph-name="Ecaron" unicode="&#x11a;" horiz-adv-x="578" 
d="M615 712l-23 -116h-312l-36 -179h269l-23 -116h-269l-37 -185h318l-23 -116h-451l143 712h444zM601 948l-159 -170h-100l-92 170h92l59 -95l99 95h101z" />
    <glyph glyph-name="ecaron" unicode="&#x11b;" horiz-adv-x="523" 
d="M486 341q0 -47 -16 -118h-312q-4 -16 -4 -37q0 -40 22.5 -63.5t66.5 -23.5q69 0 124 53l65 -82q-82 -76 -203 -76q-36 0 -69 10t-61.5 30.5t-45.5 57t-17 85.5q0 91 27.5 168.5t89.5 129.5t148 52q82 0 133.5 -51t51.5 -135zM368 341q0 41 -20 62.5t-54 21.5
q-88 0 -120 -119h191q3 16 3 35zM541 770l-160 -169h-99l-93 169h93l59 -94l99 94h101z" />
    <glyph glyph-name="Gcircumflex" unicode="&#x11c;" horiz-adv-x="616" 
d="M602 495h-132q-2 50 -26 78.5t-69 28.5q-55 0 -96 -41q-24 -24 -39 -67.5t-34 -137.5q-20 -92 -20 -150q0 -45 27 -70.5t69 -25.5q51 0 91.5 37t54.5 106l6 31h-124l20 110h256l-19 -102q-28 -143 -98 -218q-78 -80 -197 -80q-105 0 -162 58t-57 144q0 61 21 160
q28 132 46.5 183.5t61.5 97.5q75 81 201 81q106 0 162.5 -61.5t56.5 -161.5zM575 778h-92l-59 94l-99 -94h-101l159 170h100z" />
    <glyph glyph-name="gcircumflex" unicode="&#x11d;" horiz-adv-x="527" 
d="M511 521l-100 -501q-21 -109 -88 -163t-162 -54q-112 0 -173 71l86 75q35 -41 87 -41q50 0 82.5 30t44.5 83l11 53q-44 -52 -116 -52q-62 0 -103 38t-41 109q0 35 13 106q15 80 32 125.5t46 74.5q52 52 133 52q82 0 118 -59l10 53h120zM348 347q0 69 -62 69
q-46 0 -70.5 -33.5t-39.5 -108.5q-9 -48 -9 -72q0 -69 62 -69q46 0 70.5 33.5t39.5 108.5q9 48 9 72zM499 601h-91l-60 94l-98 -94h-101l159 169h99z" />
    <glyph glyph-name="Gbreve" unicode="&#x11e;" horiz-adv-x="616" 
d="M602 495h-132q-2 50 -26 78.5t-69 28.5q-55 0 -96 -41q-24 -24 -39 -67.5t-34 -137.5q-20 -92 -20 -150q0 -45 27 -70.5t69 -25.5q51 0 91.5 37t54.5 106l6 31h-124l20 110h256l-19 -102q-28 -143 -98 -218q-78 -80 -197 -80q-105 0 -162 58t-57 144q0 61 21 160
q28 132 46.5 183.5t61.5 97.5q75 81 201 81q106 0 162.5 -61.5t56.5 -161.5zM493 915h84q-15 -76 -56.5 -110t-110.5 -34q-64 0 -99 31.5t-35 81.5q0 14 3 31h82q-1 -5 -1 -11v-5q0 -44 59 -44t74 60z" />
    <glyph glyph-name="gbreve" unicode="&#x11f;" horiz-adv-x="527" 
d="M511 521l-100 -501q-21 -109 -88 -163t-162 -54q-112 0 -173 71l86 75q35 -41 87 -41q50 0 82.5 30t44.5 83l11 53q-44 -52 -116 -52q-62 0 -103 38t-41 109q0 35 13 106q15 80 32 125.5t46 74.5q52 52 133 52q82 0 118 -59l10 53h120zM348 347q0 69 -62 69
q-46 0 -70.5 -33.5t-39.5 -108.5q-9 -48 -9 -72q0 -69 62 -69q46 0 70.5 33.5t39.5 108.5q9 48 9 72zM412 736h84q-15 -76 -56.5 -110t-110.5 -34q-64 0 -99 31.5t-35 81.5q0 15 3 31h82q-1 -5 -1 -11v-5q0 -44 59 -44t74 60z" />
    <glyph glyph-name="Gdotaccent" unicode="&#x120;" horiz-adv-x="616" 
d="M602 495h-132q-2 50 -26 78.5t-69 28.5q-55 0 -96 -41q-24 -24 -39 -67.5t-34 -137.5q-20 -92 -20 -150q0 -45 27 -70.5t69 -25.5q51 0 91.5 37t54.5 106l6 31h-124l20 110h256l-19 -102q-28 -143 -98 -218q-78 -80 -197 -80q-105 0 -162 58t-57 144q0 61 21 160
q28 132 46.5 183.5t61.5 97.5q75 81 201 81q106 0 162.5 -61.5t56.5 -161.5zM480 900l-23 -114h-107l23 114h107z" />
    <glyph glyph-name="gdotaccent" unicode="&#x121;" horiz-adv-x="527" 
d="M511 521l-100 -501q-21 -109 -88 -163t-162 -54q-112 0 -173 71l86 75q35 -41 87 -41q50 0 82.5 30t44.5 83l11 53q-44 -52 -116 -52q-62 0 -103 38t-41 109q0 35 13 106q15 80 32 125.5t46 74.5q52 52 133 52q82 0 118 -59l10 53h120zM348 347q0 69 -62 69
q-46 0 -70.5 -33.5t-39.5 -108.5q-9 -48 -9 -72q0 -69 62 -69q46 0 70.5 33.5t39.5 108.5q9 48 9 72zM403 723l-22 -114h-108l24 114h106z" />
    <glyph glyph-name="Gcommaaccent" unicode="&#x122;" horiz-adv-x="616" 
d="M602 495h-132q-2 50 -26 78.5t-69 28.5q-55 0 -96 -41q-24 -24 -39 -67.5t-34 -137.5q-20 -92 -20 -150q0 -45 27 -70.5t69 -25.5q51 0 91.5 37t54.5 106l6 31h-124l20 110h256l-19 -102q-28 -143 -98 -218q-78 -80 -197 -80q-105 0 -162 58t-57 144q0 61 21 160
q28 132 46.5 183.5t61.5 97.5q75 81 201 81q106 0 162.5 -61.5t56.5 -161.5zM316 -57l-70 -144h-114l86 144h98z" />
    <glyph glyph-name="gcommaaccent" unicode="&#x123;" horiz-adv-x="527" 
d="M511 521l-100 -501q-21 -109 -88 -163t-162 -54q-112 0 -173 71l86 75q35 -41 87 -41q50 0 82.5 30t44.5 83l11 53q-44 -52 -116 -52q-62 0 -103 38t-41 109q0 35 13 106q15 80 32 125.5t46 74.5q52 52 133 52q82 0 118 -59l10 53h120zM348 347q0 69 -62 69
q-46 0 -70.5 -33.5t-39.5 -108.5q-9 -48 -9 -72q0 -69 62 -69q46 0 70.5 33.5t39.5 108.5q9 48 9 72zM500 768l-131 -167h-99l110 167h120z" />
    <glyph glyph-name="Hcircumflex" unicode="&#x124;" horiz-adv-x="651" 
d="M664 712l-143 -712h-132l61 302h-229l-61 -302h-132l143 712h132l-58 -294h229l58 294h132zM601 778h-92l-59 94l-99 -94h-101l159 170h100z" />
    <glyph glyph-name="hcircumflex" unicode="&#x125;" horiz-adv-x="544" 
d="M501 383q0 -25 -7 -58l-65 -325h-124l64 317q4 15 4 34q0 32 -18.5 48.5t-44.5 16.5q-35 0 -64.5 -22t-40.5 -78l-64 -316h-124l142 712h124l-47 -232q50 47 128 47q55 0 96 -36.5t41 -107.5zM409 780h-91l-60 94l-98 -94h-101l159 169h99z" />
    <glyph glyph-name="Hbar" unicode="&#x126;" horiz-adv-x="734" 
d="M729 611l-21 -101h-67l-102 -510h-132l61 302h-229l-61 -302h-132l102 510h-67l21 101h67l20 101h132l-20 -101h230l19 101h132l-21 -101h68zM510 510h-229l-18 -92h229z" />
    <glyph glyph-name="hbar" unicode="&#x127;" horiz-adv-x="562" 
d="M518 383q0 -28 -7 -58l-65 -325h-124l63 317q4 15 4 34q0 32 -18 48.5t-43 16.5q-34 0 -65 -22t-42 -78l-63 -316h-124l113 570h-50l16 78h50l13 64h124l-13 -64h88l-16 -78h-87l-18 -90q50 47 128 47q54 0 95 -36t41 -108z" />
    <glyph glyph-name="Itilde" unicode="&#x128;" horiz-adv-x="290" 
d="M303 712l-143 -712h-132l143 712h132zM389 901l45 -59q-55 -52 -111 -52q-40 0 -77 22q-28 17 -53 17q-31 0 -62 -31l-45 60q55 52 111 52q40 0 77 -22q28 -17 53 -17q32 0 62 30z" />
    <glyph glyph-name="itilde" unicode="&#x129;" horiz-adv-x="262" 
d="M243 505l-101 -505h-124l101 505h124zM336 718l45 -59q-55 -52 -111 -52q-40 0 -77 22q-28 17 -52 17q-31 0 -62 -31l-45 60q53 52 110 52q40 0 77 -22q28 -17 53 -17q32 0 62 30z" />
    <glyph glyph-name="Imacron" unicode="&#x12a;" horiz-adv-x="290" 
d="M303 712l-143 -712h-132l143 712h132zM414 874l-16 -82h-302l17 82h301z" />
    <glyph glyph-name="imacron" unicode="&#x12b;" horiz-adv-x="262" 
d="M243 505l-101 -505h-124l101 505h124zM371 701l-16 -82h-302l17 82h301z" />
    <glyph glyph-name="Ibreve" unicode="&#x12c;" horiz-adv-x="290" 
d="M303 712l-143 -712h-132l143 712h132zM340 915h84q-15 -76 -56.5 -110t-110.5 -34q-64 0 -99 31.5t-35 81.5q0 14 3 31h82q-1 -5 -1 -11v-5q0 -44 59 -44t74 60z" />
    <glyph glyph-name="ibreve" unicode="&#x12d;" horiz-adv-x="262" 
d="M243 505l-101 -505h-124l101 505h124zM289 736h84q-15 -76 -56.5 -110t-110.5 -34q-64 0 -99 31.5t-35 81.5q0 15 3 31h82q-1 -5 -1 -11v-5q0 -44 59 -44t74 60z" />
    <glyph glyph-name="Iogonek" unicode="&#x12e;" horiz-adv-x="290" 
d="M303 712l-143 -712h-132l143 712h132zM126 -57l-70 -144h-113l86 144h97z" />
    <glyph glyph-name="iogonek" unicode="&#x12f;" horiz-adv-x="262" 
d="M243 505l-101 -505h-124l101 505h124zM285 710l-21 -103h-127l20 103h128zM109 -57l-70 -144h-113l86 144h97z" />
    <glyph glyph-name="Idotaccent" unicode="&#x130;" horiz-adv-x="290" 
d="M303 712l-143 -712h-132l143 712h132zM328 900l-23 -114h-107l23 114h107z" />
    <glyph glyph-name="dotlessi" unicode="&#x131;" horiz-adv-x="262" 
d="M243 505l-101 -505h-124l101 505h124z" />
    <glyph glyph-name="IJ" unicode="&#x132;" horiz-adv-x="775" 
d="M303 712l-143 -712h-132l143 712h132zM797 712l-98 -487q-14 -68 -44.5 -116.5t-69.5 -72t-74 -33t-72 -9.5q-119 0 -179 77l95 81q33 -42 87 -42q42 0 78 28.5t49 94.5l96 479h132z" />
    <glyph glyph-name="ij" unicode="&#x133;" horiz-adv-x="524" 
d="M243 505l-101 -505h-124l101 505h124zM285 710l-21 -103h-127l20 103h128zM505 505l-110 -553q-14 -70 -57 -108.5t-111 -38.5h-77l21 105h45q44 0 56 53l109 542h124zM547 710l-21 -103h-127l20 103h128z" />
    <glyph glyph-name="Jcircumflex" unicode="&#x134;" horiz-adv-x="485" 
d="M507 712l-98 -487q-14 -68 -44.5 -116.5t-69.5 -72t-74 -33t-72 -9.5q-119 0 -179 77l95 81q33 -42 87 -42q42 0 78 28.5t49 94.5l96 479h132zM622 778h-92l-59 94l-99 -94h-101l159 170h100z" />
    <glyph glyph-name="jcircumflex" unicode="&#x135;" horiz-adv-x="262" 
d="M243 505l-110 -553q-14 -70 -57 -108.5t-111 -38.5h-77l21 105h45q44 0 56 53l109 542h124zM371 601h-91l-60 94l-98 -94h-101l159 169h99z" />
    <glyph glyph-name="Kcommaaccent" unicode="&#x136;" horiz-adv-x="636" 
d="M702 712l-281 -297l163 -415h-144l-125 329l-113 -110l-43 -219h-131l143 712h131l-63 -310l299 310h164zM328 -57l-70 -144h-114l86 144h98z" />
    <glyph glyph-name="kcommaaccent" unicode="&#x137;" horiz-adv-x="534" 
d="M557 521l-218 -217l138 -304h-142l-90 227l-71 -66l-32 -161h-124l142 712h124l-80 -403l206 212h147zM284 -57l-70 -144h-114l86 144h98z" />
    <glyph glyph-name="kgreenlandic" unicode="&#x138;" horiz-adv-x="534" 
d="M557 521l-218 -217l138 -304h-142l-90 227l-71 -66l-32 -161h-124l104 521h124l-42 -212l206 212h147z" />
    <glyph glyph-name="Lacute" unicode="&#x139;" horiz-adv-x="550" 
d="M494 116l-23 -116h-443l143 712h132l-119 -596h310zM422 946l-131 -168h-99l110 168h120z" />
    <glyph glyph-name="lacute" unicode="&#x13a;" horiz-adv-x="311" 
d="M280 712l-111 -555q-3 -9 -3 -22q0 -30 38 -30h51l-21 -105h-68q-55 0 -90 30t-35 83q0 26 4 43l111 556h124zM408 947l-130 -167h-100l111 167h119z" />
    <glyph glyph-name="Lcommaaccent" unicode="&#x13b;" horiz-adv-x="550" 
d="M494 116l-23 -116h-443l143 712h132l-119 -596h310zM293 -57l-70 -144h-114l86 144h98z" />
    <glyph glyph-name="lcommaaccent" unicode="&#x13c;" horiz-adv-x="311" 
d="M280 712l-111 -555q-3 -9 -3 -22q0 -30 38 -30h51l-21 -105h-68q-55 0 -90 30t-35 83q0 26 4 43l111 556h124zM165 -57l-70 -144h-114l86 144h98z" />
    <glyph glyph-name="Lcaron" unicode="&#x13d;" horiz-adv-x="550" 
d="M494 116l-23 -116h-443l143 712h132l-119 -596h310zM535 713l-91 -165h-91l67 165h115z" />
    <glyph glyph-name="lcaron" unicode="&#x13e;" horiz-adv-x="311" 
d="M280 712l-111 -555q-3 -9 -3 -22q0 -30 38 -30h51l-21 -105h-68q-55 0 -90 30t-35 83q0 26 4 43l111 556h124zM493 740l-91 -165h-91l67 165h115z" />
    <glyph glyph-name="Ldot" unicode="&#x13f;" horiz-adv-x="550" 
d="M494 116l-23 -116h-443l143 712h132l-119 -596h310zM505 417l-23 -114h-107l23 114h107z" />
    <glyph glyph-name="ldot" unicode="&#x140;" horiz-adv-x="372" 
d="M280 712l-111 -555q-3 -9 -3 -22q0 -30 38 -30h51l-21 -105h-68q-55 0 -90 30t-35 83q0 26 4 43l111 556h124zM388 343l-22 -114h-108l24 114h106z" />
    <glyph glyph-name="Lslash" unicode="&#x141;" horiz-adv-x="567" 
d="M511 116l-22 -116h-444l50 245l-70 -41l23 117l70 40l70 351h132l-53 -266l138 81l-24 -118l-137 -80l-43 -213h310z" />
    <glyph glyph-name="lslash" unicode="&#x142;" horiz-adv-x="322" 
d="M315 525l-23 -111l-64 -37l-44 -220q-3 -9 -3 -22q0 -30 39 -30h51l-22 -105h-67q-56 0 -91 30t-35 83q0 26 4 43l30 147l-59 -34l22 111l58 33l60 299h123l-45 -224z" />
    <glyph glyph-name="Nacute" unicode="&#x143;" horiz-adv-x="677" 
d="M690 712l-143 -712h-112l-185 445l-90 -445h-132l143 712h112l186 -446l89 446h132zM596 946l-131 -168h-99l110 168h120z" />
    <glyph glyph-name="nacute" unicode="&#x144;" horiz-adv-x="544" 
d="M501 383q0 -28 -7 -58l-65 -325h-124l64 317q4 16 4 34q0 32 -18 48.5t-44 16.5q-35 0 -65 -22t-41 -78l-64 -316h-124l104 521h119l-9 -50q51 56 137 56q52 0 92.5 -36.5t40.5 -107.5zM515 768l-130 -167h-100l111 167h119z" />
    <glyph glyph-name="Ncommaaccent" unicode="&#x145;" horiz-adv-x="677" 
d="M690 712l-143 -712h-112l-185 445l-90 -445h-132l143 712h112l186 -446l89 446h132zM350 -57l-70 -144h-114l86 144h98z" />
    <glyph glyph-name="ncommaaccent" unicode="&#x146;" horiz-adv-x="544" 
d="M501 383q0 -28 -7 -58l-65 -325h-124l64 317q4 16 4 34q0 32 -18 48.5t-44 16.5q-35 0 -65 -22t-41 -78l-64 -316h-124l104 521h119l-9 -50q51 56 137 56q52 0 92.5 -36.5t40.5 -107.5zM283 -57l-70 -144h-114l86 144h98z" />
    <glyph glyph-name="Ncaron" unicode="&#x147;" horiz-adv-x="677" 
d="M690 712l-143 -712h-112l-185 445l-90 -445h-132l143 712h112l186 -446l89 446h132zM630 948l-159 -170h-100l-92 170h92l59 -95l99 95h101z" />
    <glyph glyph-name="ncaron" unicode="&#x148;" horiz-adv-x="544" 
d="M501 383q0 -28 -7 -58l-65 -325h-124l64 317q4 16 4 34q0 32 -18 48.5t-44 16.5q-35 0 -65 -22t-41 -78l-64 -316h-124l104 521h119l-9 -50q51 56 137 56q52 0 92.5 -36.5t40.5 -107.5zM550 770l-160 -169h-99l-93 169h93l59 -94l99 94h101z" />
    <glyph glyph-name="napostrophe" unicode="&#x149;" horiz-adv-x="544" 
d="M501 383q0 -28 -7 -58l-65 -325h-124l64 317q4 16 4 34q0 32 -18 48.5t-44 16.5q-35 0 -65 -22t-41 -78l-64 -316h-124l104 521h119l-9 -50q51 56 137 56q52 0 92.5 -36.5t40.5 -107.5zM166 741l-24 -121l-126 -85l42 206h108z" />
    <glyph glyph-name="Eng" unicode="&#x14a;" horiz-adv-x="677" 
d="M690 712l-154 -766q-14 -70 -57 -108.5t-111 -38.5h-77l21 105h38q44 0 56 53l15 76l-171 412l-90 -445h-132l143 712h112l186 -446l89 446h132z" />
    <glyph glyph-name="eng" unicode="&#x14b;" horiz-adv-x="544" 
d="M501 383q0 -28 -7 -58l-76 -379q-14 -70 -57 -108.5t-111 -38.5h-77l21 105h46q44 0 56 53l73 360q4 16 4 34q0 32 -18 48.5t-44 16.5q-35 0 -65 -22t-41 -78l-64 -316h-124l104 521h119l-9 -50q51 56 137 56q52 0 92.5 -36.5t40.5 -107.5z" />
    <glyph glyph-name="Omacron" unicode="&#x14c;" horiz-adv-x="611" 
d="M595 516q0 -60 -20 -160q-22 -117 -43 -176.5t-63 -103.5q-77 -82 -201 -82q-99 0 -157 58t-58 144q0 60 20 160q22 117 43 176.5t63 103.5q77 82 201 82q99 0 157 -58t58 -144zM463 505q0 46 -26 71.5t-66 25.5q-56 0 -95 -43q-38 -42 -71 -203q-20 -100 -20 -149
q0 -46 26.5 -71.5t65.5 -25.5q56 0 95 43q21 22 36 64.5t35 138.5q20 100 20 149zM569 874l-16 -82h-302l17 82h301z" />
    <glyph glyph-name="omacron" unicode="&#x14d;" horiz-adv-x="515" 
d="M477 355q0 -37 -10 -94q-28 -147 -93 -207q-62 -60 -160 -60q-73 0 -125 44t-52 128q0 42 11 95q15 80 36.5 125.5t56.5 80.5q60 60 160 60q72 0 124 -44t52 -128zM354 341q0 37 -18 56t-48 19q-38 0 -64 -26q-33 -32 -53 -129q-11 -55 -11 -81q0 -37 18 -56t48 -19
q38 0 64 26q35 34 53 130q11 54 11 80zM496 701l-16 -82h-302l17 82h301z" />
    <glyph glyph-name="Obreve" unicode="&#x14e;" horiz-adv-x="611" 
d="M595 516q0 -60 -20 -160q-22 -117 -43 -176.5t-63 -103.5q-77 -82 -201 -82q-99 0 -157 58t-58 144q0 60 20 160q22 117 43 176.5t63 103.5q77 82 201 82q99 0 157 -58t58 -144zM463 505q0 46 -26 71.5t-66 25.5q-56 0 -95 -43q-38 -42 -71 -203q-20 -100 -20 -149
q0 -46 26.5 -71.5t65.5 -25.5q56 0 95 43q21 22 36 64.5t35 138.5q20 100 20 149zM481 915h84q-15 -76 -56.5 -110t-110.5 -34q-64 0 -99 31.5t-35 81.5q0 14 3 31h82q-1 -5 -1 -11v-5q0 -44 59 -44t74 60z" />
    <glyph glyph-name="obreve" unicode="&#x14f;" horiz-adv-x="515" 
d="M477 355q0 -37 -10 -94q-28 -147 -93 -207q-62 -60 -160 -60q-73 0 -125 44t-52 128q0 42 11 95q15 80 36.5 125.5t56.5 80.5q60 60 160 60q72 0 124 -44t52 -128zM354 341q0 37 -18 56t-48 19q-38 0 -64 -26q-33 -32 -53 -129q-11 -55 -11 -81q0 -37 18 -56t48 -19
q38 0 64 26q35 34 53 130q11 54 11 80zM409 736h84q-15 -76 -56.5 -110t-110.5 -34q-64 0 -99 31.5t-35 81.5q0 15 3 31h82q-1 -5 -1 -11v-5q0 -44 59 -44t74 60z" />
    <glyph glyph-name="Ohungarumlaut" unicode="&#x150;" horiz-adv-x="611" 
d="M595 516q0 -60 -20 -160q-22 -117 -43 -176.5t-63 -103.5q-77 -82 -201 -82q-99 0 -157 58t-58 144q0 60 20 160q22 117 43 176.5t63 103.5q77 82 201 82q99 0 157 -58t58 -144zM463 505q0 46 -26 71.5t-66 25.5q-56 0 -95 -43q-38 -42 -71 -203q-20 -100 -20 -149
q0 -46 26.5 -71.5t65.5 -25.5q56 0 95 43q21 22 36 64.5t35 138.5q20 100 20 149zM676 945l-131 -167h-99l110 167h120zM478 945l-130 -167h-100l110 167h120z" />
    <glyph glyph-name="ohungarumlaut" unicode="&#x151;" horiz-adv-x="515" 
d="M477 355q0 -37 -10 -94q-28 -147 -93 -207q-62 -60 -160 -60q-73 0 -125 44t-52 128q0 42 11 95q15 80 36.5 125.5t56.5 80.5q60 60 160 60q72 0 124 -44t52 -128zM354 341q0 37 -18 56t-48 19q-38 0 -64 -26q-33 -32 -53 -129q-11 -55 -11 -81q0 -37 18 -56t48 -19
q38 0 64 26q35 34 53 130q11 54 11 80zM600 768l-131 -168h-99l111 168h119zM403 768l-131 -168h-99l110 168h120z" />
    <glyph glyph-name="OE" unicode="&#x152;" horiz-adv-x="918" 
d="M955 712l-23 -116h-311l-36 -179h268l-23 -116h-268l-37 -185h317l-23 -116h-435l9 48q-50 -54 -128 -54q-97 0 -154.5 58t-57.5 144q0 60 20 160q22 117 43 176.5t63 103.5q77 82 201 82q92 0 130 -60l10 54h435zM463 505q0 46 -26 71.5t-66 25.5q-56 0 -95 -43
q-38 -42 -71 -203q-20 -100 -20 -149q0 -46 26.5 -71.5t65.5 -25.5q56 0 95 43q21 22 36 64.5t35 138.5q20 100 20 149z" />
    <glyph glyph-name="oe" unicode="&#x153;" horiz-adv-x="822" 
d="M301 527q92 0 137 -68q63 68 162 68q82 0 133.5 -51t51.5 -135q0 -47 -16 -118h-312q-4 -16 -4 -37q0 -40 22.5 -63.5t66.5 -23.5q69 0 124 53l65 -82q-82 -76 -203 -76q-102 0 -151 69q-63 -69 -163 -69q-73 0 -125 44t-52 128q0 42 11 95q15 80 36.5 125.5t56.5 80.5
q60 60 160 60zM354 342q0 37 -18 56t-48 19q-38 0 -64 -26q-35 -34 -53 -130q-11 -55 -11 -81q0 -37 18 -56t48 -19q38 0 64 26q35 34 53 130q11 55 11 81zM667 341q0 41 -20 62.5t-54 21.5q-88 0 -120 -119h191q3 16 3 35z" />
    <glyph glyph-name="Racute" unicode="&#x154;" horiz-adv-x="625" 
d="M615 521q0 -70 -43 -130.5t-123 -87.5l98 -303h-145l-83 288h-100l-59 -288h-132l143 712h250q101 0 147.5 -54t46.5 -137zM483 514q0 81 -83 81h-120l-40 -197h120q62 0 92.5 36.5t30.5 79.5zM583 946l-131 -168h-99l110 168h120z" />
    <glyph glyph-name="racute" unicode="&#x155;" horiz-adv-x="430" 
d="M474 478l-107 -95q-24 32 -57 32q-37 0 -66.5 -27.5t-38.5 -72.5l-63 -315h-124l104 521h120l-11 -51q47 57 132 57q69 0 111 -49zM434 768l-130 -167h-100l111 167h119z" />
    <glyph glyph-name="Rcommaaccent" unicode="&#x156;" horiz-adv-x="625" 
d="M615 521q0 -70 -43 -130.5t-123 -87.5l98 -303h-145l-83 288h-100l-59 -288h-132l143 712h250q101 0 147.5 -54t46.5 -137zM483 514q0 81 -83 81h-120l-40 -197h120q62 0 92.5 36.5t30.5 79.5zM317 -57l-70 -144h-114l86 144h98z" />
    <glyph glyph-name="rcommaaccent" unicode="&#x157;" horiz-adv-x="430" 
d="M474 478l-107 -95q-24 32 -57 32q-37 0 -66.5 -27.5t-38.5 -72.5l-63 -315h-124l104 521h120l-11 -51q47 57 132 57q69 0 111 -49zM119 -57l-70 -144h-114l86 144h98z" />
    <glyph glyph-name="Rcaron" unicode="&#x158;" horiz-adv-x="625" 
d="M615 521q0 -70 -43 -130.5t-123 -87.5l98 -303h-145l-83 288h-100l-59 -288h-132l143 712h250q101 0 147.5 -54t46.5 -137zM483 514q0 81 -83 81h-120l-40 -197h120q62 0 92.5 36.5t30.5 79.5zM617 948l-159 -170h-100l-92 170h92l59 -95l99 95h101z" />
    <glyph glyph-name="rcaron" unicode="&#x159;" horiz-adv-x="430" 
d="M474 478l-107 -95q-24 32 -57 32q-37 0 -66.5 -27.5t-38.5 -72.5l-63 -315h-124l104 521h120l-11 -51q47 57 132 57q69 0 111 -49zM465 770l-160 -169h-99l-93 169h93l59 -94l99 94h101z" />
    <glyph glyph-name="Sacute" unicode="&#x15a;" horiz-adv-x="563" 
d="M577 632l-93 -81q-44 52 -126 52q-59 0 -95.5 -33t-36.5 -75q0 -31 19.5 -45.5t56.5 -24.5l59 -14q87 -22 124 -65t37 -120q0 -114 -82 -173t-203 -59q-84 0 -139.5 22.5t-100.5 75.5l96 84q56 -65 156 -65q59 0 100 30t41 73q0 36 -18.5 53t-56.5 26l-59 15
q-83 21 -122.5 65.5t-39.5 103.5q0 105 75.5 173t203.5 68q135 0 204 -86zM564 946l-131 -168h-99l110 168h120z" />
    <glyph glyph-name="sacute" unicode="&#x15b;" horiz-adv-x="475" 
d="M459 463l-85 -75q-36 37 -99 37q-45 0 -68 -18.5t-23 -44.5q0 -32 48 -39l67 -11q126 -20 126 -135q0 -73 -56 -126q-60 -57 -181 -57q-129 0 -201 78l89 78q44 -50 120 -50q50 0 78 19.5t28 45.5q0 20 -12 29.5t-37 13.5l-68 11q-66 11 -95.5 44t-29.5 74q0 77 53 130
q60 60 173 60q112 0 173 -64zM492 768l-130 -167h-100l111 167h119z" />
    <glyph glyph-name="Scircumflex" unicode="&#x15c;" horiz-adv-x="563" 
d="M577 632l-93 -81q-44 52 -126 52q-59 0 -95.5 -33t-36.5 -75q0 -31 19.5 -45.5t56.5 -24.5l59 -14q87 -22 124 -65t37 -120q0 -114 -82 -173t-203 -59q-84 0 -139.5 22.5t-100.5 75.5l96 84q56 -65 156 -65q59 0 100 30t41 73q0 36 -18.5 53t-56.5 26l-59 15
q-83 21 -122.5 65.5t-39.5 103.5q0 105 75.5 173t203.5 68q135 0 204 -86zM562 778h-92l-59 94l-99 -94h-101l159 170h100z" />
    <glyph glyph-name="scircumflex" unicode="&#x15d;" horiz-adv-x="475" 
d="M459 463l-85 -75q-36 37 -99 37q-45 0 -68 -18.5t-23 -44.5q0 -32 48 -39l67 -11q126 -20 126 -135q0 -73 -56 -126q-60 -57 -181 -57q-129 0 -201 78l89 78q44 -50 120 -50q50 0 78 19.5t28 45.5q0 20 -12 29.5t-37 13.5l-68 11q-66 11 -95.5 44t-29.5 74q0 77 53 130
q60 60 173 60q112 0 173 -64zM490 601h-91l-60 94l-98 -94h-101l159 169h99z" />
    <glyph glyph-name="Scedilla" unicode="&#x15e;" horiz-adv-x="563" 
d="M577 632l-93 -81q-44 52 -126 52q-59 0 -95.5 -33t-36.5 -75q0 -31 19.5 -45.5t56.5 -24.5l59 -14q87 -22 124 -65t37 -120q0 -114 -82 -173t-203 -59q-84 0 -139.5 22.5t-100.5 75.5l96 84q56 -65 156 -65q59 0 100 30t41 73q0 36 -18.5 53t-56.5 26l-59 15
q-83 21 -122.5 65.5t-39.5 103.5q0 105 75.5 173t203.5 68q135 0 204 -86zM282 -57l-70 -144h-113l86 144h97z" />
    <glyph glyph-name="scedilla" unicode="&#x15f;" horiz-adv-x="475" 
d="M459 463l-85 -75q-36 37 -99 37q-45 0 -68 -18.5t-23 -44.5q0 -32 48 -39l67 -11q126 -20 126 -135q0 -73 -56 -126q-60 -57 -181 -57q-129 0 -201 78l89 78q44 -50 120 -50q50 0 78 19.5t28 45.5q0 20 -12 29.5t-37 13.5l-68 11q-66 11 -95.5 44t-29.5 74q0 77 53 130
q60 60 173 60q112 0 173 -64zM235 -57l-70 -144h-113l86 144h97z" />
    <glyph glyph-name="Scaron" unicode="&#x160;" horiz-adv-x="563" 
d="M577 632l-93 -81q-44 52 -126 52q-59 0 -95.5 -33t-36.5 -75q0 -31 19.5 -45.5t56.5 -24.5l59 -14q87 -22 124 -65t37 -120q0 -114 -82 -173t-203 -59q-84 0 -139.5 22.5t-100.5 75.5l96 84q56 -65 156 -65q59 0 100 30t41 73q0 36 -18.5 53t-56.5 26l-59 15
q-83 21 -122.5 65.5t-39.5 103.5q0 105 75.5 173t203.5 68q135 0 204 -86zM598 948l-159 -170h-100l-92 170h92l59 -95l99 95h101z" />
    <glyph glyph-name="scaron" unicode="&#x161;" horiz-adv-x="475" 
d="M459 463l-85 -75q-36 37 -99 37q-45 0 -68 -18.5t-23 -44.5q0 -32 48 -39l67 -11q126 -20 126 -135q0 -73 -56 -126q-60 -57 -181 -57q-129 0 -201 78l89 78q44 -50 120 -50q50 0 78 19.5t28 45.5q0 20 -12 29.5t-37 13.5l-68 11q-66 11 -95.5 44t-29.5 74q0 77 53 130
q60 60 173 60q112 0 173 -64zM527 770l-160 -169h-99l-93 169h93l59 -94l99 94h101z" />
    <glyph glyph-name="Tcommaaccent" unicode="&#x162;" horiz-adv-x="544" 
d="M605 712l-23 -117h-175l-119 -595h-132l119 595h-179l23 117h486zM259 -57l-70 -144h-113l86 144h97z" />
    <glyph glyph-name="tcommaaccent" unicode="&#x163;" horiz-adv-x="337" 
d="M341 505l-19 -94h-86l-51 -256q-2 -10 -2 -12v-7q0 -32 40 -32h45l-21 -104h-64q-56 0 -91 30t-35 83q0 28 4 43l51 255h-53l19 94h53l31 156h124l-31 -156h86zM173 -57l-70 -144h-114l86 144h98z" />
    <glyph glyph-name="Tcaron" unicode="&#x164;" horiz-adv-x="544" 
d="M605 712l-23 -117h-175l-119 -595h-132l119 595h-179l23 117h486zM586 948l-159 -170h-100l-92 170h92l59 -95l99 95h101z" />
    <glyph glyph-name="tcaron" unicode="&#x165;" horiz-adv-x="337" 
d="M341 505l-19 -94h-86l-51 -256q-2 -10 -2 -12v-7q0 -32 40 -32h45l-21 -104h-64q-56 0 -91 30t-35 83q0 28 4 43l51 255h-53l19 94h53l31 156h124l-31 -156h86zM509 740l-91 -165h-91l67 165h115z" />
    <glyph glyph-name="Tbar" unicode="&#x166;" horiz-adv-x="544" 
d="M605 712l-23 -117h-175l-37 -186h88l-20 -100h-88l-62 -309h-132l62 309h-88l20 100h88l37 186h-179l23 117h486z" />
    <glyph glyph-name="tbar" unicode="&#x167;" horiz-adv-x="337" 
d="M23 236l19 96h54l16 79h-53l19 94h53l31 156h124l-31 -156h86l-19 -94h-86l-16 -79h85l-19 -96h-85l-16 -81q-2 -10 -2 -12v-7q0 -32 40 -32h45l-21 -104h-64q-56 0 -91 30t-35 83q0 28 4 43l16 80h-54z" />
    <glyph glyph-name="Utilde" unicode="&#x168;" horiz-adv-x="635" 
d="M658 712l-94 -468q-24 -125 -102 -187.5t-183 -62.5q-93 0 -155 55.5t-62 147.5q0 26 7 61l91 454h132l-93 -462q-5 -18 -5 -44q0 -40 23.5 -67.5t70.5 -27.5q57 0 95 37.5t52 108.5l91 455h132zM558 901l45 -59q-55 -52 -111 -52q-40 0 -77 22q-28 17 -53 17
q-31 0 -62 -31l-45 60q55 52 111 52q40 0 77 -22q28 -17 53 -17q32 0 62 30z" />
    <glyph glyph-name="utilde" unicode="&#x169;" horiz-adv-x="544" 
d="M528 521l-104 -521h-119l9 50q-51 -56 -136 -56q-52 0 -93 36.5t-41 108.5q0 17 7 57l65 325h124l-64 -317q-4 -15 -4 -34q0 -32 18 -48.5t44 -16.5q34 0 64.5 22t41.5 78l64 316h124zM474 718l45 -59q-55 -52 -111 -52q-40 0 -77 22q-28 17 -52 17q-31 0 -62 -31l-45 60
q53 52 110 52q40 0 77 -22q28 -17 53 -17q32 0 62 30z" />
    <glyph glyph-name="Umacron" unicode="&#x16a;" horiz-adv-x="635" 
d="M658 712l-94 -468q-24 -125 -102 -187.5t-183 -62.5q-93 0 -155 55.5t-62 147.5q0 26 7 61l91 454h132l-93 -462q-5 -18 -5 -44q0 -40 23.5 -67.5t70.5 -27.5q57 0 95 37.5t52 108.5l91 455h132zM585 874l-16 -82h-302l17 82h301z" />
    <glyph glyph-name="umacron" unicode="&#x16b;" horiz-adv-x="544" 
d="M528 521l-104 -521h-119l9 50q-51 -56 -136 -56q-52 0 -93 36.5t-41 108.5q0 17 7 57l65 325h124l-64 -317q-4 -15 -4 -34q0 -32 18 -48.5t44 -16.5q34 0 64.5 22t41.5 78l64 316h124zM503 701l-16 -82h-302l17 82h301z" />
    <glyph glyph-name="Ubreve" unicode="&#x16c;" horiz-adv-x="635" 
d="M658 712l-94 -468q-24 -125 -102 -187.5t-183 -62.5q-93 0 -155 55.5t-62 147.5q0 26 7 61l91 454h132l-93 -462q-5 -18 -5 -44q0 -40 23.5 -67.5t70.5 -27.5q57 0 95 37.5t52 108.5l91 455h132zM509 915h84q-15 -76 -56.5 -110t-110.5 -34q-64 0 -99 31.5t-35 81.5
q0 14 3 31h82q-1 -5 -1 -11v-5q0 -44 59 -44t74 60z" />
    <glyph glyph-name="ubreve" unicode="&#x16d;" horiz-adv-x="544" 
d="M528 521l-104 -521h-119l9 50q-51 -56 -136 -56q-52 0 -93 36.5t-41 108.5q0 17 7 57l65 325h124l-64 -317q-4 -15 -4 -34q0 -32 18 -48.5t44 -16.5q34 0 64.5 22t41.5 78l64 316h124zM419 736h84q-15 -76 -56.5 -110t-110.5 -34q-64 0 -99 31.5t-35 81.5q0 15 3 31h82
q-1 -5 -1 -11v-5q0 -44 59 -44t74 60z" />
    <glyph glyph-name="Uring" unicode="&#x16e;" horiz-adv-x="635" 
d="M658 712l-94 -468q-24 -125 -102 -187.5t-183 -62.5q-93 0 -155 55.5t-62 147.5q0 26 7 61l91 454h132l-93 -462q-5 -18 -5 -44q0 -40 23.5 -67.5t70.5 -27.5q57 0 95 37.5t52 108.5l91 455h132zM558 878q0 -54 -37 -90.5t-89 -36.5q-53 0 -90 36.5t-37 90.5t37 90.5
t90 36.5q52 0 89 -36.5t37 -90.5zM490 878q0 24 -17.5 41t-40.5 17t-40.5 -17t-17.5 -41t17.5 -41t40.5 -17t40.5 17t17.5 41z" />
    <glyph glyph-name="uring" unicode="&#x16f;" horiz-adv-x="544" 
d="M528 521l-104 -521h-119l9 50q-51 -56 -136 -56q-52 0 -93 36.5t-41 108.5q0 17 7 57l65 325h124l-64 -317q-4 -15 -4 -34q0 -32 18 -48.5t44 -16.5q34 0 64.5 22t41.5 78l64 316h124zM476 711q0 -54 -37.5 -90.5t-89.5 -36.5t-89 36.5t-37 90.5q0 53 37 89.5t89 36.5
t89.5 -36.5t37.5 -89.5zM408 711q0 23 -18 40t-41 17t-40.5 -17t-17.5 -40q0 -24 17.5 -41.5t40.5 -17.5t41 17.5t18 41.5z" />
    <glyph glyph-name="Uhungarumlaut" unicode="&#x170;" horiz-adv-x="635" 
d="M658 712l-94 -468q-24 -125 -102 -187.5t-183 -62.5q-93 0 -155 55.5t-62 147.5q0 26 7 61l91 454h132l-93 -462q-5 -18 -5 -44q0 -40 23.5 -67.5t70.5 -27.5q57 0 95 37.5t52 108.5l91 455h132zM692 945l-131 -167h-99l110 167h120zM494 945l-130 -167h-100l110 167h120
z" />
    <glyph glyph-name="uhungarumlaut" unicode="&#x171;" horiz-adv-x="544" 
d="M528 521l-104 -521h-119l9 50q-51 -56 -136 -56q-52 0 -93 36.5t-41 108.5q0 17 7 57l65 325h124l-64 -317q-4 -15 -4 -34q0 -32 18 -48.5t44 -16.5q34 0 64.5 22t41.5 78l64 316h124zM607 768l-131 -168h-99l111 168h119zM410 768l-131 -168h-99l110 168h120z" />
    <glyph glyph-name="Uogonek" unicode="&#x172;" horiz-adv-x="635" 
d="M658 712l-94 -468q-24 -125 -102 -187.5t-183 -62.5q-93 0 -155 55.5t-62 147.5q0 26 7 61l91 454h132l-93 -462q-5 -18 -5 -44q0 -40 23.5 -67.5t70.5 -27.5q57 0 95 37.5t52 108.5l91 455h132zM418 -57l-70 -144h-113l86 144h97z" />
    <glyph glyph-name="uogonek" unicode="&#x173;" horiz-adv-x="544" 
d="M528 521l-104 -521h-119l9 50q-51 -56 -136 -56q-52 0 -93 36.5t-41 108.5q0 17 7 57l65 325h124l-64 -317q-4 -15 -4 -34q0 -32 18 -48.5t44 -16.5q34 0 64.5 22t41.5 78l64 316h124zM387 -57l-70 -144h-113l86 144h97z" />
    <glyph glyph-name="Wcircumflex" unicode="&#x174;" horiz-adv-x="846" 
d="M929 712l-318 -712h-111l-37 438l-216 -438h-110l-42 712h136l16 -455l216 455h99l35 -455l192 455h140zM700 778h-92l-59 94l-99 -94h-101l159 170h100z" />
    <glyph glyph-name="wcircumflex" unicode="&#x175;" horiz-adv-x="719" 
d="M765 521l-249 -521h-98l-41 331l-171 -331h-100l-49 521h124l18 -325l165 325h90l38 -325l142 325h131zM602 601h-91l-60 94l-98 -94h-101l159 169h99z" />
    <glyph glyph-name="Ycircumflex" unicode="&#x176;" horiz-adv-x="550" 
d="M635 712l-286 -425l-58 -287h-132l59 292l-129 420h140l76 -295l184 295h146zM535 778h-92l-59 94l-99 -94h-101l159 170h100z" />
    <glyph glyph-name="ycircumflex" unicode="&#x177;" horiz-adv-x="464" 
d="M515 521l-325 -605q-20 -38 -43 -61q-46 -46 -124 -46h-48l23 112h28q26 0 41 12.5t30 41.5l33 62l-74 484h123l38 -336l167 336h131zM467 601h-91l-60 94l-98 -94h-101l159 169h99z" />
    <glyph glyph-name="Ydieresis" unicode="&#x178;" horiz-adv-x="550" 
d="M635 712l-286 -425l-58 -287h-132l59 292l-129 420h140l76 -295l184 295h146zM546 902l-24 -122h-106l24 122h106zM337 902l-24 -122h-106l24 122h106z" />
    <glyph glyph-name="Zacute" unicode="&#x179;" horiz-adv-x="526" 
d="M575 712l-21 -103l-382 -492h290l-24 -117h-450l22 105l379 490h-275l23 117h438zM541 946l-131 -168h-99l110 168h120z" />
    <glyph glyph-name="zacute" unicode="&#x17a;" horiz-adv-x="461" 
d="M470 521l-19 -95l-279 -315h223l-22 -111h-386l19 95l277 315h-208l22 111h373zM474 768l-130 -167h-100l111 167h119z" />
    <glyph glyph-name="Zdotaccent" unicode="&#x17b;" horiz-adv-x="526" 
d="M575 712l-21 -103l-382 -492h290l-24 -117h-450l22 105l379 490h-275l23 117h438zM444 900l-23 -114h-107l23 114h107z" />
    <glyph glyph-name="zdotaccent" unicode="&#x17c;" horiz-adv-x="461" 
d="M470 521l-19 -95l-279 -315h223l-22 -111h-386l19 95l277 315h-208l22 111h373zM376 723l-22 -114h-108l24 114h106z" />
    <glyph glyph-name="Zcaron" unicode="&#x17d;" horiz-adv-x="526" 
d="M575 712l-21 -103l-382 -492h290l-24 -117h-450l22 105l379 490h-275l23 117h438zM575 948l-159 -170h-100l-92 170h92l59 -95l99 95h101z" />
    <glyph glyph-name="zcaron" unicode="&#x17e;" horiz-adv-x="461" 
d="M470 521l-19 -95l-279 -315h223l-22 -111h-386l19 95l277 315h-208l22 111h373zM509 770l-160 -169h-99l-93 169h93l59 -94l99 94h101z" />
    <glyph glyph-name="longs" unicode="&#x17f;" horiz-adv-x="262" 
d="M376 720l-21 -105h-44q-47 0 -57 -51l-113 -564h-124l116 577q30 143 170 143h73z" />
    <glyph glyph-name="uni018F" unicode="&#x18f;" horiz-adv-x="614" 
d="M600 516q0 -55 -21 -160q-18 -86 -27.5 -123t-29.5 -80.5t-50 -76.5q-75 -82 -200 -82q-100 0 -159.5 58t-59.5 144q0 75 17 148l11 50h372q14 81 14 111q0 46 -26 71.5t-66 25.5q-60 0 -100 -43q-21 -23 -35 -64h-135q25 88 75 141q77 82 205 82q99 0 157 -58t58 -144z
M430 284h-237q-8 -45 -8 -77q0 -46 28 -71.5t69 -25.5q55 0 95 43q27 27 53 131z" />
    <glyph glyph-name="florin" unicode="&#x192;" horiz-adv-x="406" 
d="M469 719l-20 -103h-64q-45 0 -62 -48l-62 -171h93l-20 -94h-107l-181 -494h-124l181 494h-64l18 94h81l63 174q29 80 76.5 114t124.5 34h67z" />
    <glyph glyph-name="uni01B5" unicode="&#x1b5;" horiz-adv-x="526" 
d="M575 712l-21 -103l-155 -199h49l-20 -100h-106l-150 -193h290l-24 -117h-450l22 105l158 205h-47l20 100h105l143 185h-275l23 117h438z" />
    <glyph glyph-name="uni01B6" unicode="&#x1b6;" horiz-adv-x="461" 
d="M470 521l-19 -95l-113 -127h29l-16 -78h-82l-97 -110h223l-22 -111h-386l19 95l111 126h-28l16 78h80l98 111h-208l22 111h373z" />
    <glyph glyph-name="uni01C4" unicode="&#x1c4;" horiz-adv-x="1152" 
d="M614 513q0 -44 -23 -154q-27 -136 -48 -191t-66 -98q-73 -70 -196 -70h-253l143 712h233q94 0 152 -49.5t58 -149.5zM481 502q0 47 -26.5 70.5t-73.5 23.5h-101l-96 -480h100q64 0 104 39q22 21 37 63t34 141q22 114 22 143zM1201 712l-21 -103l-382 -492h290l-24 -117
h-450l22 105l379 490h-275l23 117h438zM1200 948l-159 -170h-100l-92 170h92l59 -95l99 95h101z" />
    <glyph glyph-name="uni01C5" unicode="&#x1c5;" horiz-adv-x="1087" 
d="M614 513q0 -44 -23 -154q-27 -136 -48 -191t-66 -98q-73 -70 -196 -70h-253l143 712h233q94 0 152 -49.5t58 -149.5zM481 502q0 47 -26.5 70.5t-73.5 23.5h-101l-96 -480h100q64 0 104 39q22 21 37 63t34 141q22 114 22 143zM1096 521l-19 -95l-279 -315h223l-22 -111
h-386l19 95l277 315h-208l22 111h373zM1134 770l-160 -169h-99l-93 169h93l59 -94l99 94h101z" />
    <glyph glyph-name="uni01C6" unicode="&#x1c6;" horiz-adv-x="994" 
d="M555 712l-142 -712h-120l11 50q-49 -56 -129 -56q-75 0 -108 43t-33 103q0 37 16 121q32 164 83 215t132 51q80 0 118 -56l48 241h124zM352 345q0 71 -62 71q-52 0 -76.5 -37.5t-39.5 -117.5q-11 -59 -11 -84q0 -72 62 -72q52 0 76.5 38t39.5 118q11 59 11 84zM1003 521
l-19 -95l-279 -315h223l-22 -111h-386l19 95l277 315h-208l22 111h373zM1041 770l-160 -169h-99l-93 169h93l59 -94l99 94h101z" />
    <glyph glyph-name="uni01C7" unicode="&#x1c7;" horiz-adv-x="1035" 
d="M494 116l-23 -116h-443l143 712h132l-119 -596h310zM1057 712l-98 -487q-14 -68 -44.5 -116.5t-69.5 -72t-74 -33t-72 -9.5q-119 0 -179 77l95 81q33 -42 87 -42q42 0 78 28.5t49 94.5l96 479h132z" />
    <glyph glyph-name="uni01C8" unicode="&#x1c8;" horiz-adv-x="812" 
d="M494 116l-23 -116h-443l143 712h132l-119 -596h310zM793 505l-110 -553q-14 -70 -57 -108.5t-111 -38.5h-77l21 105h45q44 0 56 53l109 542h124zM835 710l-21 -103h-127l20 103h128z" />
    <glyph glyph-name="uni01C9" unicode="&#x1c9;" horiz-adv-x="573" 
d="M280 712l-111 -555q-3 -9 -3 -22q0 -30 38 -30h51l-21 -105h-68q-55 0 -90 30t-35 83q0 26 4 43l111 556h124zM554 505l-110 -553q-14 -70 -57 -108.5t-111 -38.5h-77l21 105h45q44 0 56 53l109 542h124zM596 710l-21 -103h-127l20 103h128z" />
    <glyph glyph-name="uni01CA" unicode="&#x1ca;" horiz-adv-x="1161" 
d="M690 712l-143 -712h-112l-185 445l-90 -445h-132l143 712h112l186 -446l89 446h132zM1184 712l-98 -487q-14 -68 -44.5 -116.5t-69.5 -72t-74 -33t-72 -9.5q-119 0 -179 77l95 81q33 -42 87 -42q42 0 78 28.5t49 94.5l96 479h132z" />
    <glyph glyph-name="uni01CB" unicode="&#x1cb;" horiz-adv-x="939" 
d="M690 712l-143 -712h-112l-185 445l-90 -445h-132l143 712h112l186 -446l89 446h132zM920 505l-110 -553q-14 -70 -57 -108.5t-111 -38.5h-77l21 105h45q44 0 56 53l109 542h124zM962 710l-21 -103h-127l20 103h128z" />
    <glyph glyph-name="uni01CC" unicode="&#x1cc;" horiz-adv-x="806" 
d="M501 383q0 -28 -7 -58l-65 -325h-124l64 317q4 16 4 34q0 32 -18 48.5t-44 16.5q-35 0 -65 -22t-41 -78l-64 -316h-124l104 521h119l-9 -50q51 56 137 56q52 0 92.5 -36.5t40.5 -107.5zM787 505l-110 -553q-14 -70 -57 -108.5t-111 -38.5h-77l21 105h45q44 0 56 53
l109 542h124zM829 710l-21 -103h-127l20 103h128z" />
    <glyph glyph-name="uni01F1" unicode="&#x1f1;" horiz-adv-x="1152" 
d="M614 513q0 -44 -23 -154q-27 -136 -48 -191t-66 -98q-73 -70 -196 -70h-253l143 712h233q94 0 152 -49.5t58 -149.5zM481 502q0 47 -26.5 70.5t-73.5 23.5h-101l-96 -480h100q64 0 104 39q22 21 37 63t34 141q22 114 22 143zM1201 712l-21 -103l-382 -492h290l-24 -117
h-450l22 105l379 490h-275l23 117h438z" />
    <glyph glyph-name="uni01F2" unicode="&#x1f2;" horiz-adv-x="1087" 
d="M614 513q0 -44 -23 -154q-27 -136 -48 -191t-66 -98q-73 -70 -196 -70h-253l143 712h233q94 0 152 -49.5t58 -149.5zM481 502q0 47 -26.5 70.5t-73.5 23.5h-101l-96 -480h100q64 0 104 39q22 21 37 63t34 141q22 114 22 143zM1096 521l-19 -95l-279 -315h223l-22 -111
h-386l19 95l277 315h-208l22 111h373z" />
    <glyph glyph-name="uni01F3" unicode="&#x1f3;" horiz-adv-x="994" 
d="M555 712l-142 -712h-120l11 50q-49 -56 -129 -56q-75 0 -108 43t-33 103q0 37 16 121q32 164 83 215t132 51q80 0 118 -56l48 241h124zM352 345q0 71 -62 71q-52 0 -76.5 -37.5t-39.5 -117.5q-11 -59 -11 -84q0 -72 62 -72q52 0 76.5 38t39.5 118q11 59 11 84zM1003 521
l-19 -95l-279 -315h223l-22 -111h-386l19 95l277 315h-208l22 111h373z" />
    <glyph glyph-name="Aringacute" unicode="&#x1fa;" horiz-adv-x="607" 
d="M552 0h-134l-15 130h-241l-67 -130h-141l388 712h105zM393 238l-34 274l-143 -274h177zM529 878q0 -54 -37 -90.5t-89 -36.5q-53 0 -90 36.5t-37 90.5t37 90.5t90 36.5q52 0 89 -36.5t37 -90.5zM461 878q0 24 -17.5 41t-40.5 17t-40.5 -17t-17.5 -41t17.5 -41t40.5 -17
t40.5 17t17.5 41zM621 1183l-131 -168h-99l110 168h120z" />
    <glyph glyph-name="aringacute" unicode="&#x1fb;" horiz-adv-x="509" 
d="M469 382q0 -21 -5 -46l-68 -336h-119l9 46q-51 -51 -126 -51q-68 0 -108.5 38t-40.5 99q0 76 47 123q54 54 152 54h124l7 31q3 11 3 27q0 56 -77 56q-66 0 -112 -49l-64 83q70 70 193 70q77 0 131 -34.5t54 -110.5zM317 224h-95q-41 0 -65 -22t-24 -58q0 -49 66 -49
q49 0 81 32q23 23 31 66zM461 711q0 -54 -37.5 -90.5t-89.5 -36.5t-89 36.5t-37 90.5q0 53 37 89.5t89 36.5t89.5 -36.5t37.5 -89.5zM393 711q0 23 -18 40t-41 17t-40.5 -17t-17.5 -40q0 -24 17.5 -41.5t40.5 -17.5t41 17.5t18 41.5zM538 1014l-130 -167h-100l111 167h119z
" />
    <glyph glyph-name="AEacute" unicode="&#x1fc;" horiz-adv-x="940" 
d="M977 712l-23 -115h-313l-35 -181h268l-23 -115h-269l-37 -186h317l-23 -115h-449l32 163h-212l-112 -163h-146l496 712h529zM509 596l-223 -323h159zM783 946l-131 -168h-99l110 168h120z" />
    <glyph glyph-name="aeacute" unicode="&#x1fd;" horiz-adv-x="802" 
d="M764 342q0 -46 -16 -119h-312q-4 -20 -4 -37q0 -40 22.5 -63.5t66.5 -23.5q69 0 124 53l65 -82q-82 -76 -203 -76q-107 0 -158 73q-66 -73 -172 -73q-78 0 -122.5 36t-44.5 102q0 75 46 121q54 54 153 54h125l6 31q3 13 3 29q0 56 -77 56q-69 0 -112 -49l-64 83
q70 70 194 70q99 0 146 -56q62 56 148 56q84 0 135 -49.5t51 -135.5zM317 223h-96q-41 0 -65 -21.5t-24 -57.5q0 -49 66 -49q49 0 81 32q24 23 32 65zM646 342q0 40 -20 61.5t-54 21.5q-88 0 -120 -118h191q3 17 3 35zM631 768l-130 -167h-100l111 167h119z" />
    <glyph glyph-name="Oslashacute" unicode="&#x1fe;" horiz-adv-x="611" 
d="M595 516q0 -60 -20 -160q-22 -117 -43 -176.5t-63 -103.5q-77 -82 -201 -82q-65 0 -112 25l-41 -63h-96l75 114q-41 53 -41 126q0 60 20 160q22 117 43 176.5t63 103.5q77 82 201 82q63 0 114 -27l42 65h96l-76 -117q39 -53 39 -123zM185 207v-5l244 381q-25 19 -58 19
q-56 0 -95 -43q-38 -42 -71 -203q-20 -100 -20 -149zM463 505v3l-244 -380q24 -18 58 -18q56 0 95 43q21 22 36 64.5t35 138.5q20 100 20 149zM577 946l-131 -168h-99l110 168h120z" />
    <glyph glyph-name="oslashacute" unicode="&#x1ff;" horiz-adv-x="517" 
d="M477 355q0 -37 -10 -94q-28 -147 -93 -207q-62 -60 -160 -60q-54 0 -100 25l-46 -63h-76l77 104q-32 43 -32 106q0 42 11 95q15 80 36.5 125.5t56.5 80.5q60 60 160 60q57 0 100 -26l48 62h76l-79 -103q31 -44 31 -105zM160 167l173 233q-17 17 -45 17q-38 0 -64 -26
q-35 -34 -53 -130q-11 -55 -11 -94zM354 342v6l-170 -230q19 -13 42 -13q38 0 64 26q35 34 53 130q11 55 11 81zM501 768l-130 -167h-100l111 167h119z" />
    <glyph glyph-name="Scommaaccent" unicode="&#x218;" horiz-adv-x="563" 
d="M577 632l-93 -81q-44 52 -126 52q-59 0 -95.5 -33t-36.5 -75q0 -31 19.5 -45.5t56.5 -24.5l59 -14q87 -22 124 -65t37 -120q0 -114 -82 -173t-203 -59q-84 0 -139.5 22.5t-100.5 75.5l96 84q56 -65 156 -65q59 0 100 30t41 73q0 36 -18.5 53t-56.5 26l-59 15
q-83 21 -122.5 65.5t-39.5 103.5q0 105 75.5 173t203.5 68q135 0 204 -86zM282 -57l-70 -144h-114l86 144h98z" />
    <glyph glyph-name="scommaaccent" unicode="&#x219;" horiz-adv-x="475" 
d="M459 463l-85 -75q-36 37 -99 37q-45 0 -68 -18.5t-23 -44.5q0 -32 48 -39l67 -11q126 -20 126 -135q0 -73 -56 -126q-60 -57 -181 -57q-129 0 -201 78l89 78q44 -50 120 -50q50 0 78 19.5t28 45.5q0 20 -12 29.5t-37 13.5l-68 11q-66 11 -95.5 44t-29.5 74q0 77 53 130
q60 60 173 60q112 0 173 -64zM235 -57l-70 -144h-114l86 144h98z" />
    <glyph glyph-name="uni021A" unicode="&#x21a;" horiz-adv-x="544" 
d="M605 712l-23 -117h-175l-119 -595h-132l119 595h-179l23 117h486zM260 -57l-70 -144h-114l86 144h98z" />
    <glyph glyph-name="uni021B" unicode="&#x21b;" horiz-adv-x="337" 
d="M341 505l-19 -94h-86l-51 -256q-2 -10 -2 -12v-7q0 -32 40 -32h45l-21 -104h-64q-56 0 -91 30t-35 83q0 28 4 43l51 255h-53l19 94h53l31 156h124l-31 -156h86zM173 -57l-70 -144h-114l86 144h98z" />
    <glyph glyph-name="uni0237" unicode="&#x237;" horiz-adv-x="262" 
d="M243 505l-110 -553q-14 -70 -57 -108.5t-111 -38.5h-77l21 105h45q44 0 56 53l109 542h124z" />
    <glyph glyph-name="uni0259" unicode="&#x259;" horiz-adv-x="523" 
d="M37 180q0 47 16 118h312q4 16 4 37q0 40 -22.5 63.5t-66.5 23.5q-69 0 -124 -53l-65 82q82 76 203 76q78 0 135.5 -44.5t57.5 -138.5q0 -91 -27.5 -168.5t-89.5 -129.5t-148 -52q-82 0 -133.5 51t-51.5 135zM155 180q0 -41 20 -62.5t54 -21.5q88 0 120 119h-191
q-3 -17 -3 -35z" />
    <glyph glyph-name="uni02BB" unicode="&#x2bb;" horiz-adv-x="258" 
d="M306 817l-45 -228h-129l24 123z" />
    <glyph glyph-name="afii57929" unicode="&#x2bc;" horiz-adv-x="258" 
d="M285 712l-24 -124l-150 -104l45 228h129z" />
    <glyph glyph-name="circumflex" unicode="&#x2c6;" horiz-adv-x="514" 
d="M499 601h-91l-60 94l-98 -94h-101l159 169h99z" />
    <glyph glyph-name="caron" unicode="&#x2c7;" horiz-adv-x="514" 
d="M536 770l-160 -169h-99l-93 169h93l59 -94l99 94h101z" />
    <glyph glyph-name="breve" unicode="&#x2d8;" horiz-adv-x="515" 
d="M412 736h84q-15 -76 -56.5 -110t-110.5 -34q-64 0 -99 31.5t-35 81.5q0 15 3 31h82q-1 -5 -1 -11v-5q0 -44 59 -44t74 60z" />
    <glyph glyph-name="dotaccent" unicode="&#x2d9;" horiz-adv-x="514" 
d="M403 723l-22 -114h-108l24 114h106z" />
    <glyph glyph-name="ring" unicode="&#x2da;" horiz-adv-x="514" 
d="M469 711q0 -54 -37.5 -90.5t-89.5 -36.5t-89 36.5t-37 90.5q0 53 37 89.5t89 36.5t89.5 -36.5t37.5 -89.5zM401 711q0 23 -18 40t-41 17t-40.5 -17t-17.5 -40q0 -24 17.5 -41.5t40.5 -17.5t41 17.5t18 41.5z" />
    <glyph glyph-name="ogonek" unicode="&#x2db;" horiz-adv-x="515" 
d="M257 -57l-70 -144h-113l86 144h97z" />
    <glyph glyph-name="tilde" unicode="&#x2dc;" horiz-adv-x="514" 
d="M465 718l45 -59q-55 -52 -111 -52q-40 0 -77 22q-28 17 -52 17q-31 0 -62 -31l-45 60q53 52 110 52q40 0 77 -22q28 -17 53 -17q32 0 62 30z" />
    <glyph glyph-name="hungarumlaut" unicode="&#x2dd;" horiz-adv-x="515" 
d="M600 768l-131 -168h-99l111 168h119zM403 768l-131 -168h-99l110 168h120z" />
    <glyph glyph-name="uni0394" unicode="&#x394;" horiz-adv-x="604" 
d="M550 0h-598l389 712h105zM410 110l-48 403l-214 -403h262z" />
    <glyph glyph-name="uni03A9" unicode="&#x3a9;" horiz-adv-x="611" 
d="M597 516q0 -43 -22 -160q-27 -139 -65 -193q-26 -36 -39 -46h62l-24 -117h-212l20 103q33 13 55 38q21 25 35 67.5t34 140.5q22 113 22 156q0 48 -25.5 72t-61.5 24q-61 0 -100 -42q-20 -20 -35 -64.5t-35 -145.5q-23 -118 -23 -158q0 -64 50 -88l-20 -103h-203l23 117
h61q-34 43 -34 112q0 51 15 127q23 118 44.5 178t64.5 103q39 39 92 60t106 21q98 0 156.5 -58t58.5 -144z" />
    <glyph glyph-name="uni03BC" unicode="&#x3bc;" horiz-adv-x="548" 
d="M531 521l-104 -521h-119l10 50q-56 -56 -137 -56q-25 0 -40 15l-40 -200h-124l142 712h124l-64 -317q-3 -16 -3 -34q0 -32 18 -48.5t43 -16.5q34 0 65 22t42 78l63 316h124z" />
    <glyph glyph-name="pi" unicode="&#x3c0;" horiz-adv-x="576" 
d="M533 521l-105 -521h-124l85 420h-164l-84 -420h-124l104 521h412z" />
    <glyph glyph-name="uni0400" unicode="&#x400;" horiz-adv-x="578" 
d="M436 778h-92l-71 168h118zM615 712l-23 -116h-312l-36 -179h269l-23 -116h-269l-37 -185h318l-23 -116h-451l143 712h444z" />
    <glyph glyph-name="afii10023" unicode="&#x401;" horiz-adv-x="578" 
d="M615 712l-23 -116h-312l-36 -179h269l-23 -116h-269l-37 -185h318l-23 -116h-451l143 712h444zM572 902l-24 -122h-106l24 122h106zM363 902l-24 -122h-106l24 122h106z" />
    <glyph glyph-name="afii10051" unicode="&#x402;" horiz-adv-x="682" 
d="M639 251q0 -103 -70.5 -177t-192.5 -74h-39l23 117h21q59 0 92.5 38t33.5 85q0 85 -84 85h-102l-66 -325h-132l119 595h-147l24 117h484l-24 -117h-205l-30 -153h101q91 0 142.5 -51t51.5 -140z" />
    <glyph glyph-name="afii10052" unicode="&#x403;" horiz-adv-x="532" 
d="M544 946l-131 -168h-99l110 168h120zM599 712l-23 -116h-297l-120 -596h-132l143 712h429z" />
    <glyph glyph-name="afii10053" unicode="&#x404;" horiz-adv-x="592" 
d="M597 498h-132q0 47 -23 75.5t-70 28.5q-54 0 -95 -41q-33 -33 -58 -143h203l-22 -110h-202q-12 -64 -12 -102q0 -45 26.5 -70.5t68.5 -25.5q49 0 83 30t49 74h136q-35 -109 -107.5 -164.5t-170.5 -55.5q-100 0 -159 57.5t-59 144.5q0 61 21 160q23 118 43.5 176.5
t62.5 104.5q78 81 201 81q106 0 161 -61.5t55 -158.5z" />
    <glyph glyph-name="afii10054" unicode="&#x405;" horiz-adv-x="563" 
d="M577 632l-93 -81q-44 52 -126 52q-59 0 -95.5 -33t-36.5 -75q0 -31 19.5 -45.5t56.5 -24.5l59 -14q87 -22 124 -65t37 -120q0 -114 -82 -173t-203 -59q-84 0 -139.5 22.5t-100.5 75.5l96 84q56 -65 156 -65q59 0 100 30t41 73q0 36 -18.5 53t-56.5 26l-59 15
q-83 21 -122.5 65.5t-39.5 103.5q0 105 75.5 173t203.5 68q135 0 204 -86z" />
    <glyph glyph-name="afii10055" unicode="&#x406;" horiz-adv-x="290" 
d="M303 712l-143 -712h-132l143 712h132z" />
    <glyph glyph-name="afii10056" unicode="&#x407;" horiz-adv-x="290" 
d="M303 712l-143 -712h-132l143 712h132zM427 902l-24 -122h-106l24 122h106zM218 902l-24 -122h-106l24 122h106z" />
    <glyph glyph-name="afii10057" unicode="&#x408;" horiz-adv-x="485" 
d="M507 712l-98 -487q-14 -68 -44.5 -116.5t-69.5 -72t-74 -33t-72 -9.5q-119 0 -179 77l95 81q33 -42 87 -42q42 0 78 28.5t49 94.5l96 479h132z" />
    <glyph glyph-name="afii10058" unicode="&#x409;" horiz-adv-x="958" 
d="M919 247q0 -102 -70.5 -174.5t-193.5 -72.5h-263l119 595h-164l-43 -212q-23 -114 -50.5 -188.5t-64 -117.5t-78 -60t-98.5 -17h-56l22 116h20q30 0 52.5 10.5t45 38t41.5 81.5t35 136l67 330h427l-56 -276h116q89 0 140.5 -52t51.5 -137zM786 236q0 37 -19.5 60
t-61.5 23h-117l-40 -202h113q59 0 92 37t33 82z" />
    <glyph glyph-name="afii10059" unicode="&#x40a;" horiz-adv-x="955" 
d="M915 247q0 -102 -70.5 -174.5t-192.5 -72.5h-264l65 319h-229l-65 -319h-132l143 712h132l-54 -276h229l54 276h132l-55 -276h116q89 0 140 -52t51 -137zM782 236q0 37 -19 60t-61 23h-117l-41 -202h113q59 0 92 37t33 82z" />
    <glyph glyph-name="afii10060" unicode="&#x40b;" horiz-adv-x="703" 
d="M639 257q0 -26 -7 -59l-40 -198h-132l42 207q5 18 5 38q0 36 -20 58t-63 22h-103l-66 -325h-132l119 595h-147l24 117h484l-24 -117h-205l-30 -153h103q91 0 141.5 -49t50.5 -136z" />
    <glyph glyph-name="afii10061" unicode="&#x40c;" horiz-adv-x="614" 
d="M670 712l-297 -338l175 -374h-158l-155 372l277 340h158zM303 712l-143 -712h-132l143 712h132zM593 946l-131 -168h-99l110 168h120z" />
    <glyph glyph-name="uni040D" unicode="&#x40d;" horiz-adv-x="677" 
d="M689 712l-143 -712h-132l89 435l-363 -435h-113l143 712h132l-87 -436l361 436h113zM467 778h-92l-71 168h118z" />
    <glyph glyph-name="afii10062" unicode="&#x40e;" horiz-adv-x="577" 
d="M662 712l-369 -586q-45 -70 -89 -98t-114 -28h-63l22 116h44q60 0 98 59l33 52l-131 485h141l76 -360l206 360h146zM461 883h95q-27 -138 -172 -138q-69 0 -104.5 30.5t-35.5 77.5q0 13 3 30h92q-1 -5 -1 -11v-5q0 -46 53 -46q55 0 70 62z" />
    <glyph glyph-name="afii10145" unicode="&#x40f;" horiz-adv-x="646" 
d="M657 712l-143 -712h-180l-29 -152h-127l29 152h-180l143 712h132l-119 -595h223l119 595h132z" />
    <glyph glyph-name="afii10017" unicode="&#x410;" horiz-adv-x="607" 
d="M552 0h-134l-15 130h-241l-67 -130h-141l388 712h105zM393 238l-34 274l-143 -274h177z" />
    <glyph glyph-name="afii10018" unicode="&#x411;" horiz-adv-x="608" 
d="M610 712l-23 -116h-308l-32 -160h121q89 0 140 -52t51 -137q0 -102 -70.5 -174.5t-193.5 -72.5h-268l143 712h440zM426 236q0 37 -19 60t-61 23h-122l-41 -202h118q59 0 92 37t33 82z" />
    <glyph glyph-name="afii10019" unicode="&#x412;" horiz-adv-x="626" 
d="M614 547q0 -128 -116 -186q34 -22 51 -50t17 -75q0 -106 -68 -171t-172 -65h-298l143 712h258q92 0 138.5 -47.5t46.5 -117.5zM433 230q0 34 -19 53.5t-56 19.5h-137l-37 -186h138q51 0 81 32t30 81zM480 525q0 70 -74 70h-126l-36 -175h127q54 0 81.5 32.5t27.5 72.5z
" />
    <glyph glyph-name="afii10020" unicode="&#x413;" horiz-adv-x="532" 
d="M599 712l-23 -116h-297l-120 -596h-132l143 712h429z" />
    <glyph glyph-name="afii10021" unicode="&#x414;" horiz-adv-x="674" 
d="M662 712l-120 -595h81l-53 -269h-127l29 152h-383l-29 -152h-127l52 269h65q114 184 174 492l20 103h418zM507 596h-159l-21 -103q-43 -218 -143 -376h227z" />
    <glyph glyph-name="afii10022" unicode="&#x415;" horiz-adv-x="578" 
d="M615 712l-23 -116h-312l-36 -179h269l-23 -116h-269l-37 -185h318l-23 -116h-451l143 712h444z" />
    <glyph glyph-name="afii10024" unicode="&#x416;" horiz-adv-x="913" 
d="M968 712l-289 -338l167 -374h-158l-147 372l269 340h158zM609 712l-143 -712h-132l143 712h132zM408 374l-298 -374h-164l324 377l-152 335h153z" />
    <glyph glyph-name="afii10025" unicode="&#x417;" horiz-adv-x="574" 
d="M561 539q0 -120 -117 -178q72 -42 72 -127q0 -109 -70.5 -174.5t-187.5 -65.5q-114 0 -173 61t-59 159h132q0 -47 27 -75.5t77 -28.5q56 0 87.5 32.5t31.5 87.5q0 79 -88 79h-89l22 110h88q55 0 84 30t29 73q0 34 -21.5 57t-66.5 23q-50 0 -82 -29t-45 -75h-132
q33 112 100 166t176 54q96 0 150.5 -50.5t54.5 -128.5z" />
    <glyph glyph-name="afii10026" unicode="&#x418;" horiz-adv-x="677" 
d="M689 712l-143 -712h-132l89 435l-363 -435h-113l143 712h132l-87 -436l361 436h113z" />
    <glyph glyph-name="afii10027" unicode="&#x419;" horiz-adv-x="677" 
d="M689 712l-143 -712h-132l89 435l-363 -435h-113l143 712h132l-87 -436l361 436h113zM517 883h95q-27 -138 -172 -138q-69 0 -104.5 30.5t-35.5 77.5q0 13 3 30h92q-1 -5 -1 -11v-5q0 -46 53 -46q55 0 70 62z" />
    <glyph glyph-name="afii10028" unicode="&#x41a;" horiz-adv-x="614" 
d="M670 712l-297 -338l175 -374h-158l-155 372l277 340h158zM303 712l-143 -712h-132l143 712h132z" />
    <glyph glyph-name="afii10029" unicode="&#x41b;" horiz-adv-x="655" 
d="M667 712l-143 -712h-132l119 595h-164l-43 -212q-23 -114 -50.5 -188.5t-64 -117.5t-78 -60t-98.5 -17h-56l22 116h20q30 0 52.5 10.5t45 38t41.5 81.5t35 136l67 330h427z" />
    <glyph glyph-name="afii10030" unicode="&#x41c;" horiz-adv-x="770" 
d="M783 712l-143 -712h-132l85 421l-179 -263h-89l-80 265l-85 -423h-132l143 712h124l101 -380l258 380h129z" />
    <glyph glyph-name="afii10031" unicode="&#x41d;" horiz-adv-x="651" 
d="M664 712l-143 -712h-132l61 302h-229l-61 -302h-132l143 712h132l-58 -294h229l58 294h132z" />
    <glyph glyph-name="afii10032" unicode="&#x41e;" horiz-adv-x="611" 
d="M595 516q0 -60 -20 -160q-22 -117 -43 -176.5t-63 -103.5q-77 -82 -201 -82q-99 0 -157 58t-58 144q0 60 20 160q22 117 43 176.5t63 103.5q77 82 201 82q99 0 157 -58t58 -144zM463 505q0 46 -26 71.5t-66 25.5q-56 0 -95 -43q-38 -42 -71 -203q-20 -100 -20 -149
q0 -46 26.5 -71.5t65.5 -25.5q56 0 95 43q21 22 36 64.5t35 138.5q20 100 20 149z" />
    <glyph glyph-name="afii10033" unicode="&#x41f;" horiz-adv-x="646" 
d="M657 712l-143 -712h-132l120 595h-224l-119 -595h-132l143 712h487z" />
    <glyph glyph-name="afii10034" unicode="&#x420;" horiz-adv-x="597" 
d="M615 524q0 -102 -70.5 -175t-192.5 -73h-137l-55 -276h-132l143 712h253q89 0 140 -51.5t51 -136.5zM482 513q0 82 -80 82h-122l-41 -202h118q59 0 92 37t33 83z" />
    <glyph glyph-name="afii10035" unicode="&#x421;" horiz-adv-x="592" 
d="M597 498h-132q0 47 -23 75.5t-70 28.5q-54 0 -95 -41q-22 -22 -37.5 -66.5t-33.5 -138.5q-20 -109 -20 -150q0 -45 26.5 -70.5t68.5 -25.5q49 0 83 30t49 74h136q-35 -109 -107.5 -164.5t-170.5 -55.5q-100 0 -159 57.5t-59 144.5q0 61 21 160q23 118 43.5 176.5
t62.5 104.5q78 81 201 81q106 0 161 -61.5t55 -158.5z" />
    <glyph glyph-name="afii10036" unicode="&#x422;" horiz-adv-x="544" 
d="M605 712l-23 -117h-175l-119 -595h-132l119 595h-179l23 117h486z" />
    <glyph glyph-name="afii10037" unicode="&#x423;" horiz-adv-x="577" 
d="M662 712l-369 -586q-45 -70 -89 -98t-114 -28h-63l22 116h44q60 0 98 59l33 52l-131 485h141l76 -360l206 360h146z" />
    <glyph glyph-name="afii10038" unicode="&#x424;" horiz-adv-x="803" 
d="M783 469q0 -62 -8 -97q-15 -86 -41 -134.5t-73 -87.5q-79 -67 -230 -67l-17 -88h-132l17 88q-105 4 -169 55.5t-64 148.5q0 62 8 97q15 86 41 134.5t73 87.5q39 31 100.5 49.5t129.5 18.5l14 70h132l-14 -70q105 -4 169 -56.5t64 -148.5zM650 448q0 52 -34 80t-94 28
l-72 -356q74 0 117 30q29 20 46.5 53t29.5 93q7 34 7 72zM327 200l72 356q-73 0 -117 -30q-29 -20 -46.5 -53t-29.5 -92q-7 -35 -7 -73q0 -52 34 -79.5t94 -28.5z" />
    <glyph glyph-name="afii10039" unicode="&#x425;" horiz-adv-x="579" 
d="M647 712l-264 -352l143 -360h-148l-88 253l-180 -253h-154l280 370l-132 342h147l79 -234l163 234h154z" />
    <glyph glyph-name="afii10040" unicode="&#x426;" horiz-adv-x="669" 
d="M657 712l-119 -595h78l-54 -269h-127l30 152h-438l143 712h132l-119 -595h223l119 595h132z" />
    <glyph glyph-name="afii10041" unicode="&#x427;" horiz-adv-x="617" 
d="M630 712l-143 -712h-132l53 266q-80 -18 -153 -18q-72 0 -118 36.5t-46 100.5q0 25 5 52l55 275h132l-50 -249q-4 -16 -4 -36q0 -62 80 -62q54 0 122 14l67 333h132z" />
    <glyph glyph-name="afii10042" unicode="&#x428;" horiz-adv-x="928" 
d="M939 712l-143 -712h-769l143 712h132l-119 -595h186l120 595h132l-120 -595h187l119 595h132z" />
    <glyph glyph-name="afii10043" unicode="&#x429;" horiz-adv-x="951" 
d="M939 712l-119 -595h77l-53 -269h-127l30 152h-720l143 712h132l-119 -595h186l120 595h132l-120 -595h187l119 595h132z" />
    <glyph glyph-name="afii10044" unicode="&#x42a;" horiz-adv-x="689" 
d="M650 247q0 -102 -70.5 -174.5t-192.5 -72.5h-264l119 595h-147l24 117h279l-55 -276h116q89 0 140 -52t51 -137zM517 236q0 37 -19 60t-61 23h-117l-41 -202h113q59 0 92 37t33 82z" />
    <glyph glyph-name="afii10045" unicode="&#x42b;" horiz-adv-x="853" 
d="M554 247q0 -102 -70.5 -174.5t-192.5 -72.5h-264l143 712h132l-55 -276h116q89 0 140 -52t51 -137zM421 236q0 37 -19 60t-61 23h-117l-41 -202h113q59 0 92 37t33 82zM865 712l-143 -712h-132l143 712h132z" />
    <glyph glyph-name="afii10046" unicode="&#x42c;" horiz-adv-x="593" 
d="M554 247q0 -102 -70.5 -174.5t-192.5 -72.5h-264l143 712h132l-55 -276h116q89 0 140 -52t51 -137zM421 236q0 37 -19 60t-61 23h-117l-41 -202h113q59 0 92 37t33 82z" />
    <glyph glyph-name="afii10047" unicode="&#x42d;" horiz-adv-x="592" 
d="M576 516q0 -61 -21 -160q-19 -90 -27.5 -125t-28 -79.5t-49.5 -76.5q-78 -81 -200 -81q-106 0 -163 60t-57 160h135q0 -47 22.5 -75.5t69.5 -28.5q55 0 96 41q19 19 30.5 51t28.5 106h-202l22 110h201q10 56 10 88q0 45 -26 70.5t-69 25.5q-47 0 -80 -29.5t-48 -74.5
h-136q32 107 105 163.5t171 56.5q99 0 157.5 -57.5t58.5 -144.5z" />
    <glyph glyph-name="afii10048" unicode="&#x42e;" horiz-adv-x="870" 
d="M853 516q0 -60 -20 -160q-22 -117 -43 -176.5t-63 -103.5q-77 -82 -201 -82q-99 0 -157 58t-58 144q0 45 10 105h-102l-60 -301h-132l143 712h132l-59 -295h100q17 84 37 133t57 86q77 82 201 82q99 0 157 -58t58 -144zM721 505q0 46 -26 71.5t-66 25.5q-56 0 -95 -43
q-38 -42 -71 -203q-20 -100 -20 -149q0 -46 26.5 -71.5t65.5 -25.5q56 0 95 43q21 22 36 64.5t35 138.5q20 100 20 149z" />
    <glyph glyph-name="afii10049" unicode="&#x42f;" horiz-adv-x="619" 
d="M631 712l-143 -712h-132l57 284h-101l-189 -284h-148l212 316q-81 45 -81 153q0 96 68.5 169.5t193.5 73.5h263zM475 595h-115q-61 0 -91 -37t-30 -78q0 -79 78 -79h119z" />
    <glyph glyph-name="afii10065" unicode="&#x430;" horiz-adv-x="509" 
d="M469 382q0 -21 -5 -46l-68 -336h-119l9 46q-51 -51 -126 -51q-68 0 -108.5 38t-40.5 99q0 76 47 123q54 54 152 54h124l7 31q3 11 3 27q0 56 -77 56q-66 0 -112 -49l-64 83q70 70 193 70q77 0 131 -34.5t54 -110.5zM317 224h-95q-41 0 -65 -22t-24 -58q0 -49 66 -49
q49 0 81 32q23 23 31 66z" />
    <glyph glyph-name="afii10066" unicode="&#x431;" horiz-adv-x="505" 
d="M511 718l-23 -108q-132 -1 -193 -29q-37 -18 -59.5 -48t-37.5 -87q48 60 132 60q65 0 101.5 -40t36.5 -121q0 -37 -10 -91q-15 -80 -36.5 -126t-56.5 -79q-57 -55 -155 -55q-70 0 -120.5 42.5t-50.5 126.5q0 42 18 132q35 171 64.5 244t75.5 110q47 37 119.5 53t194.5 16
zM343 333q0 34 -16.5 50.5t-44.5 16.5q-35 0 -60 -25q-33 -33 -50 -121q-8 -35 -8 -80q0 -34 16.5 -50.5t44.5 -16.5q34 0 60 26q33 33 50 121q8 35 8 79z" />
    <glyph glyph-name="afii10067" unicode="&#x432;" horiz-adv-x="530" 
d="M498 398q0 -92 -85 -134q50 -35 50 -93q0 -79 -52 -125t-134 -46h-260l104 521h234q67 0 105 -32t38 -91zM337 165q0 21 -13 37t-44 16h-95l-25 -124h95q41 0 61.5 19.5t20.5 51.5zM372 379q0 48 -56 48h-89l-24 -117h93q40 0 58 21.5t18 47.5z" />
    <glyph glyph-name="afii10068" unicode="&#x433;" horiz-adv-x="411" 
d="M451 521l-22 -111h-205l-83 -410h-124l104 521h330z" />
    <glyph glyph-name="afii10069" unicode="&#x434;" horiz-adv-x="557" 
d="M522 521l-83 -410h64l-46 -233h-117l24 122h-286l-24 -122h-117l46 233h52q41 69 67 140.5t52 203.5l13 66h355zM375 410h-111l-13 -61q-28 -136 -92 -238h156z" />
    <glyph glyph-name="afii10070" unicode="&#x435;" horiz-adv-x="523" 
d="M486 341q0 -47 -16 -118h-312q-4 -16 -4 -37q0 -40 22.5 -63.5t66.5 -23.5q69 0 124 53l65 -82q-82 -76 -203 -76q-36 0 -69 10t-61.5 30.5t-45.5 57t-17 85.5q0 91 27.5 168.5t89.5 129.5t148 52q82 0 133.5 -51t51.5 -135zM368 341q0 41 -20 62.5t-54 21.5
q-88 0 -120 -119h191q3 16 3 35z" />
    <glyph glyph-name="afii10072" unicode="&#x436;" horiz-adv-x="745" 
d="M484 521l-104 -521h-124l104 521h124zM435 272l202 249h145l-223 -247l132 -274h-145zM309 270l-212 -270h-151l242 283l-122 238h132z" />
    <glyph glyph-name="afii10073" unicode="&#x437;" horiz-adv-x="483" 
d="M448 389q0 -86 -87 -121q56 -30 56 -99q0 -82 -59 -128.5t-174 -46.5q-117 0 -190 80l82 78q46 -53 115 -53q48 0 73.5 18.5t25.5 49.5q0 52 -66 52h-65l17 92h69q40 0 60.5 16.5t20.5 42.5q0 54 -79 54q-67 0 -123 -53l-58 76q47 42 93 61t106 19q89 0 136 -37t47 -101z
" />
    <glyph glyph-name="afii10074" unicode="&#x438;" horiz-adv-x="553" 
d="M536 521l-104 -521h-124l61 302l-228 -302h-124l104 521h124l-60 -302l228 302h123z" />
    <glyph glyph-name="afii10075" unicode="&#x439;" horiz-adv-x="553" 
d="M536 521l-104 -521h-124l61 302l-228 -302h-124l104 521h124l-60 -302l228 302h123zM418 717h95q-27 -138 -172 -138q-69 0 -104.5 30.5t-35.5 77.5q0 13 3 30h92q-1 -5 -1 -11v-5q0 -46 53 -46q54 0 70 62z" />
    <glyph glyph-name="afii10076" unicode="&#x43a;" horiz-adv-x="509" 
d="M245 521l-104 -521h-124l104 521h124zM196 272l207 249h145l-228 -247l133 -274h-143z" />
    <glyph glyph-name="afii10077" unicode="&#x43b;" horiz-adv-x="538" 
d="M521 521l-103 -521h-124l81 410h-115l-26 -129q-32 -160 -83.5 -220.5t-134.5 -60.5h-57l20 102h15q19 0 32.5 5t31 22.5t32.5 60t28 108.5l45 223h358z" />
    <glyph glyph-name="afii10078" unicode="&#x43c;" horiz-adv-x="642" 
d="M626 521l-103 -521h-124l60 301l-131 -190h-70l-57 191l-60 -302h-124l103 521h120l78 -271l183 271h125z" />
    <glyph glyph-name="afii10079" unicode="&#x43d;" horiz-adv-x="539" 
d="M522 521l-103 -521h-124l42 211h-154l-42 -211h-124l103 521h124l-39 -199h154l39 199h124z" />
    <glyph glyph-name="afii10080" unicode="&#x43e;" horiz-adv-x="515" 
d="M477 355q0 -37 -10 -94q-28 -147 -93 -207q-62 -60 -160 -60q-73 0 -125 44t-52 128q0 42 11 95q15 80 36.5 125.5t56.5 80.5q60 60 160 60q72 0 124 -44t52 -128zM354 341q0 37 -18 56t-48 19q-38 0 -64 -26q-33 -32 -53 -129q-11 -55 -11 -81q0 -37 18 -56t48 -19
q38 0 64 26q35 34 53 130q11 54 11 80z" />
    <glyph glyph-name="afii10081" unicode="&#x43f;" horiz-adv-x="566" 
d="M523 521l-104 -521h-124l81 410h-154l-81 -410h-124l104 521h402z" />
    <glyph glyph-name="afii10082" unicode="&#x440;" horiz-adv-x="533" 
d="M501 383q0 -37 -16 -122q-32 -165 -83 -216t-132 -51q-80 0 -118 56l-48 -241h-124l142 712h120l-11 -50q49 56 129 56q75 0 108 -43t33 -101zM372 345q0 71 -62 71q-52 0 -76.5 -37.5t-39.5 -117.5q-11 -59 -11 -84q0 -72 62 -72q52 0 76.5 38t39.5 118q11 59 11 84z
" />
    <glyph glyph-name="afii10083" unicode="&#x441;" horiz-adv-x="458" 
d="M463 455l-93 -82q-32 43 -72 43q-42 0 -74 -33q-40 -42 -55 -122q-7 -40 -7 -67q0 -42 19 -65.5t55 -23.5q47 0 91 44l69 -89q-71 -66 -172 -66q-79 0 -133 49t-54 137q0 35 8 81q28 145 99.5 205.5t165.5 60.5q97 0 153 -72z" />
    <glyph glyph-name="afii10084" unicode="&#x442;" horiz-adv-x="429" 
d="M470 521l-21 -111h-143l-83 -410h-124l83 410h-143l22 111h409z" />
    <glyph glyph-name="afii10085" unicode="&#x443;" horiz-adv-x="464" 
d="M515 521l-325 -605q-20 -38 -43 -61q-46 -46 -124 -46h-48l23 112h28q26 0 41 12.5t30 41.5l33 62l-74 484h123l38 -336l167 336h131z" />
    <glyph glyph-name="afii10086" unicode="&#x444;" horiz-adv-x="687" 
d="M252 106l62 310q-51 0 -86 -27q-43 -34 -62 -125q-6 -29 -6 -66q0 -87 92 -92zM652 338q0 -42 -8 -88q-16 -75 -38.5 -115.5t-64.5 -78.5q-33 -27 -84 -43.5t-105 -16.5l-37 -187h-124l37 188q-80 4 -136.5 54t-56.5 132q0 42 8 88q15 75 38 117.5t65 77.5q32 27 83 43
t105 16l38 187h124l-38 -188q80 -4 137 -54t57 -132zM527 323q0 88 -92 93l-62 -311q53 2 86 27q43 32 62 126q6 29 6 65z" />
    <glyph glyph-name="afii10087" unicode="&#x445;" horiz-adv-x="502" 
d="M531 521l-210 -259l123 -262h-143l-65 163l-121 -163h-153l221 269l-118 252h143l61 -155l111 155h151z" />
    <glyph glyph-name="afii10088" unicode="&#x446;" horiz-adv-x="558" 
d="M523 521l-82 -410h64l-46 -233h-117l25 122h-350l104 521h124l-82 -410h154l82 410h124z" />
    <glyph glyph-name="afii10089" unicode="&#x447;" 
d="M499 521l-104 -521h-124l36 185q-63 -16 -120 -16q-58 0 -91.5 30t-33.5 84q0 15 5 43l39 195h124l-33 -163q-4 -16 -4 -32q0 -46 55 -46q42 0 80 11l47 230h124z" />
    <glyph glyph-name="afii10090" unicode="&#x448;" horiz-adv-x="786" 
d="M769 521l-104 -521h-648l104 521h124l-82 -410h138l82 410h124l-82 -410h138l82 410h124z" />
    <glyph glyph-name="afii10091" unicode="&#x449;" horiz-adv-x="804" 
d="M769 521l-82 -410h64l-47 -233h-116l24 122h-595l104 521h124l-82 -410h138l82 410h124l-82 -410h138l82 410h124z" />
    <glyph glyph-name="afii10092" unicode="&#x44a;" horiz-adv-x="553" 
d="M506 189q0 -79 -54 -134t-149 -55h-235l82 410h-111l22 111h236l-38 -188h99q69 0 108.5 -40t39.5 -104zM384 177q0 56 -56 56h-89l-27 -133h88q45 0 64.5 25.5t19.5 51.5z" />
    <glyph glyph-name="afii10093" unicode="&#x44b;" horiz-adv-x="720" 
d="M454 189q0 -79 -54 -134t-149 -55h-234l104 521h124l-38 -188h99q69 0 108.5 -40t39.5 -104zM332 177q0 56 -55 56h-90l-26 -133h87q45 0 64.5 25.5t19.5 51.5zM704 521l-105 -521h-124l105 521h124z" />
    <glyph glyph-name="afii10094" unicode="&#x44c;" horiz-adv-x="501" 
d="M454 189q0 -79 -54 -134t-149 -55h-234l104 521h124l-38 -188h99q69 0 108.5 -40t39.5 -104zM332 177q0 56 -55 56h-90l-26 -133h87q45 0 64.5 25.5t19.5 51.5z" />
    <glyph glyph-name="afii10095" unicode="&#x44d;" horiz-adv-x="458" 
d="M420 339q0 -49 -8 -92q-24 -130 -83.5 -191.5t-166.5 -61.5q-62 0 -101.5 16.5t-73.5 52.5l87 85q37 -45 92 -45q47 0 79 32q31 34 40 87h-155l17 84h153q2 12 2 16v14q0 38 -22.5 60.5t-58.5 22.5q-52 0 -94 -45l-65 80q70 73 168 73q85 0 137.5 -50t52.5 -138z" />
    <glyph glyph-name="afii10096" unicode="&#x44e;" horiz-adv-x="737" 
d="M700 355q0 -43 -11 -94q-15 -80 -36.5 -127t-56.5 -80q-60 -60 -160 -60q-72 0 -124 44t-52 128q0 34 3 47h-79l-43 -213h-124l104 521h124l-40 -201h79q22 91 79 147q62 60 160 60q73 0 125 -44t52 -128zM577 342q0 37 -18 56t-48 19q-38 0 -64 -26q-35 -34 -53 -130
q-11 -55 -11 -81q0 -37 18 -56t48 -19q38 0 64 26q35 34 53 130q11 55 11 81z" />
    <glyph glyph-name="afii10097" unicode="&#x44f;" horiz-adv-x="518" 
d="M501 521l-104 -521h-124l38 188h-81l-115 -188h-133l144 211q-63 35 -63 121q0 79 54.5 134t149.5 55h234zM357 421h-87q-45 0 -65 -25.5t-20 -51.5q0 -56 56 -56h90z" />
    <glyph glyph-name="uni0450" unicode="&#x450;" horiz-adv-x="523" 
d="M486 341q0 -47 -16 -118h-312q-4 -16 -4 -37q0 -40 22.5 -63.5t66.5 -23.5q69 0 124 53l65 -82q-82 -76 -203 -76q-36 0 -69 10t-61.5 30.5t-45.5 57t-17 85.5q0 91 27.5 168.5t89.5 129.5t148 52q82 0 133.5 -51t51.5 -135zM368 341q0 41 -20 62.5t-54 21.5
q-88 0 -120 -119h191q3 16 3 35zM371 601h-91l-72 167h118z" />
    <glyph glyph-name="afii10071" unicode="&#x451;" horiz-adv-x="523" 
d="M486 341q0 -47 -16 -118h-312q-4 -16 -4 -37q0 -40 22.5 -63.5t66.5 -23.5q69 0 124 53l65 -82q-82 -76 -203 -76q-36 0 -69 10t-61.5 30.5t-45.5 57t-17 85.5q0 91 27.5 168.5t89.5 129.5t148 52q82 0 133.5 -51t51.5 -135zM368 341q0 41 -20 62.5t-54 21.5
q-88 0 -120 -119h191q3 16 3 35zM512 725l-24 -122h-106l24 122h106zM303 725l-24 -122h-106l24 122h106z" />
    <glyph glyph-name="afii10099" unicode="&#x452;" horiz-adv-x="542" 
d="M499 376q0 -24 -6 -58l-69 -344q-15 -73 -59 -113.5t-115 -40.5h-78l22 105h44q53 0 64 59l65 326q4 15 4 34q0 32 -18 48.5t-43 16.5q-35 0 -65.5 -22t-41.5 -78l-62 -309h-124l113 567h-50l16 78h50l13 67h124l-13 -67h194l-16 -78h-194l-19 -94q50 47 128 47
q54 0 95 -36.5t41 -107.5z" />
    <glyph glyph-name="afii10100" unicode="&#x453;" horiz-adv-x="411" 
d="M456 768l-130 -167h-100l111 167h119zM451 521l-22 -111h-205l-83 -410h-124l104 521h330z" />
    <glyph glyph-name="afii10101" unicode="&#x454;" horiz-adv-x="464" 
d="M469 454l-92 -80q-29 45 -79 45q-46 0 -79 -34q-29 -29 -42 -79h155l-17 -84h-155q-3 -18 -3 -35q0 -41 21.5 -62.5t59.5 -21.5q55 0 96 44l68 -87q-69 -66 -175 -66q-80 0 -135 49t-55 137q0 43 7 81q28 145 101 205.5t167 60.5q103 0 157 -73z" />
    <glyph glyph-name="afii10102" unicode="&#x455;" horiz-adv-x="475" 
d="M459 463l-85 -75q-36 37 -99 37q-45 0 -68 -18.5t-23 -44.5q0 -32 48 -39l67 -11q126 -20 126 -135q0 -73 -56 -126q-60 -57 -181 -57q-129 0 -201 78l89 78q44 -50 120 -50q50 0 78 19.5t28 45.5q0 20 -12 29.5t-37 13.5l-68 11q-66 11 -95.5 44t-29.5 74q0 77 53 130
q60 60 173 60q112 0 173 -64z" />
    <glyph glyph-name="afii10103" unicode="&#x456;" horiz-adv-x="262" 
d="M243 505l-101 -505h-124l101 505h124zM285 710l-21 -103h-127l20 103h128z" />
    <glyph glyph-name="afii10104" unicode="&#x457;" horiz-adv-x="262" 
d="M243 505l-101 -505h-124l101 505h124zM377 725l-24 -122h-106l24 122h106zM168 725l-24 -122h-106l24 122h106z" />
    <glyph glyph-name="afii10105" unicode="&#x458;" horiz-adv-x="262" 
d="M243 505l-110 -553q-14 -70 -57 -108.5t-111 -38.5h-77l21 105h45q44 0 56 53l109 542h124zM285 710l-21 -103h-127l20 103h128z" />
    <glyph glyph-name="afii10106" unicode="&#x459;" horiz-adv-x="781" 
d="M734 189q0 -79 -54 -134t-149 -55h-234l81 410h-118l-26 -129q-32 -160 -83.5 -220.5t-134.5 -60.5h-57l20 102h15q19 0 32.5 5t31 22.5t32.5 60t28 108.5l45 223h361l-37 -188h99q69 0 108.5 -40t39.5 -104zM612 177q0 56 -55 56h-90l-27 -133h88q45 0 64.5 25.5
t19.5 51.5z" />
    <glyph glyph-name="afii10107" unicode="&#x45a;" horiz-adv-x="779" 
d="M732 189q0 -79 -54 -134t-149 -55h-234l43 222h-154l-43 -222h-124l104 521h124l-38 -188h154l38 188h124l-38 -188h99q69 0 108.5 -40t39.5 -104zM610 177q0 56 -56 56h-89l-27 -133h88q45 0 64.5 25.5t19.5 51.5z" />
    <glyph glyph-name="afii10108" unicode="&#x45b;" horiz-adv-x="542" 
d="M499 376q0 -32 -6 -58l-64 -318h-124l62 310q4 15 4 34q0 32 -18 48.5t-43 16.5q-35 0 -65.5 -22t-41.5 -78l-62 -309h-124l113 567h-50l16 78h50l13 67h124l-13 -67h194l-16 -78h-194l-19 -94q50 47 128 47q54 0 95 -36.5t41 -107.5z" />
    <glyph glyph-name="afii10109" unicode="&#x45c;" horiz-adv-x="509" 
d="M245 521l-104 -521h-124l104 521h124zM196 272l207 249h145l-228 -247l133 -274h-143zM515 768l-130 -167h-100l111 167h119z" />
    <glyph glyph-name="uni045D" unicode="&#x45d;" horiz-adv-x="553" 
d="M536 521l-104 -521h-124l61 302l-228 -302h-124l104 521h124l-60 -302l228 302h123zM391 601h-91l-72 167h118z" />
    <glyph glyph-name="afii10110" unicode="&#x45e;" horiz-adv-x="464" 
d="M515 521l-325 -605q-20 -38 -43 -61q-46 -46 -124 -46h-48l23 112h28q26 0 41 12.5t30 41.5l33 62l-74 484h123l38 -336l167 336h131zM372 717h95q-27 -138 -172 -138q-69 0 -104.5 30.5t-35.5 77.5q0 13 3 30h92q-1 -5 -1 -11v-5q0 -46 53 -46q54 0 70 62z" />
    <glyph glyph-name="afii10193" unicode="&#x45f;" horiz-adv-x="539" 
d="M523 521l-105 -521h-142l-25 -122h-116l24 122h-142l104 521h124l-82 -410h154l82 410h124z" />
    <glyph glyph-name="afii10146" unicode="&#x462;" horiz-adv-x="612" 
d="M573 247q0 -102 -70.5 -174.5t-192.5 -72.5h-264l106 531h-66l20 100h66l17 81h132l-16 -81h109l-20 -100h-109l-19 -95h116q89 0 140 -52t51 -137zM440 236q0 37 -19 60t-61 23h-117l-41 -202h113q59 0 92 37t33 82z" />
    <glyph glyph-name="afii10194" unicode="&#x463;" horiz-adv-x="518" 
d="M471 189q0 -79 -54 -134t-149 -55h-234l80 403h-51l16 78h51l8 40h124l-8 -40h87l-16 -78h-87l-14 -70h99q69 0 108.5 -40t39.5 -104zM349 177q0 56 -55 56h-90l-26 -133h87q45 0 64.5 25.5t19.5 51.5z" />
    <glyph glyph-name="afii10147" unicode="&#x472;" horiz-adv-x="611" 
d="M595 516q0 -60 -20 -160q-22 -117 -43 -176.5t-63 -103.5q-77 -82 -201 -82q-99 0 -157 58t-58 144q0 60 20 160q22 117 43 176.5t63 103.5q77 82 201 82q99 0 157 -58t58 -144zM372 153q31 33 59 148h-237q-9 -57 -9 -94q0 -46 26.5 -71.5t65.5 -25.5q56 0 95 43z
M463 505q0 46 -26 71.5t-66 25.5q-56 0 -95 -43q-34 -35 -58 -142h236q9 51 9 88z" />
    <glyph glyph-name="afii10195" unicode="&#x473;" horiz-adv-x="515" 
d="M477 355q0 -37 -10 -94q-28 -147 -93 -207q-62 -60 -160 -60q-73 0 -125 44t-52 128q0 42 11 95q15 80 36.5 125.5t56.5 80.5q60 60 160 60q72 0 124 -44t52 -128zM290 131q29 29 45 92h-171q-4 -23 -4 -43q0 -37 18 -56t48 -19q38 0 64 26zM354 342q0 37 -18 56t-48 19
q-38 0 -64 -26q-28 -27 -43 -85h170q3 26 3 36z" />
    <glyph glyph-name="afii10148" unicode="&#x474;" horiz-adv-x="552" 
d="M553 537l-274 -537h-104l-81 712h130l48 -472l167 345q32 67 81 97t122 30h63l-22 -116h-33q-67 0 -97 -59z" />
    <glyph glyph-name="afii10196" unicode="&#x475;" horiz-adv-x="469" 
d="M427 355l-194 -355h-98l-78 521h123l37 -336l114 229q20 38 43 61q46 46 124 46h48l-23 -112h-25q-25 0 -40 -12t-31 -42z" />
    <glyph glyph-name="afii10050" unicode="&#x490;" horiz-adv-x="532" 
d="M629 861l-53 -265h-297l-120 -596h-132l143 712h301l30 149h128z" />
    <glyph glyph-name="afii10098" unicode="&#x491;" horiz-adv-x="412" 
d="M477 646l-48 -236h-205l-83 -410h-124l105 521h212l26 125h117z" />
    <glyph glyph-name="uni0492" unicode="&#x492;" horiz-adv-x="554" 
d="M621 712l-23 -116h-297l-38 -187h111l-20 -100h-111l-62 -309h-132l62 309h-65l20 100h65l61 303h429z" />
    <glyph glyph-name="uni0493" unicode="&#x493;" horiz-adv-x="440" 
d="M480 521l-22 -111h-205l-18 -86h87l-16 -78h-86l-50 -246h-124l49 246h-51l16 78h50l40 197h330z" />
    <glyph glyph-name="uni0496" unicode="&#x496;" horiz-adv-x="911" 
d="M968 712l-289 -338l115 -257h75l-53 -269h-127l30 152h-31l-147 372l269 340h158zM408 374l-298 -374h-164l324 377l-152 335h153zM609 712l-143 -712h-132l143 712h132z" />
    <glyph glyph-name="uni0497" unicode="&#x497;" horiz-adv-x="745" 
d="M435 272l202 249h145l-223 -247l78 -163h76l-47 -233h-116l24 122h-28zM309 270l-212 -270h-151l242 283l-122 238h132zM484 521l-104 -521h-124l104 521h124z" />
    <glyph glyph-name="uni049A" unicode="&#x49a;" horiz-adv-x="613" 
d="M670 712l-297 -338l120 -257h78l-53 -269h-127l30 152h-31l-155 372l277 340h158zM303 712l-143 -712h-132l143 712h132z" />
    <glyph glyph-name="uni049B" unicode="&#x49b;" horiz-adv-x="509" 
d="M196 272l207 249h145l-228 -247l79 -163h76l-47 -233h-116l24 122h-26zM245 521l-104 -521h-124l104 521h124z" />
    <glyph glyph-name="uni049C" unicode="&#x49c;" horiz-adv-x="696" 
d="M631 0h-158l-100 318h-28l-27 -131h-86l27 131h-36l-64 -318h-132l143 712h132l-57 -284h36l28 132h86l-28 -132h28l199 284h158l-255 -338z" />
    <glyph glyph-name="uni049D" unicode="&#x49d;" horiz-adv-x="585" 
d="M530 0h-144l-59 221h-27l-22 -114h-79l22 114h-35l-45 -221h-124l104 521h124l-39 -200h34l23 114h79l-23 -114h27l134 200h144l-186 -247z" />
    <glyph glyph-name="uni04A2" unicode="&#x4a2;" horiz-adv-x="651" 
d="M664 712l-120 -595h62l-53 -269h-127l30 152h-67l61 302h-229l-61 -302h-132l143 712h132l-58 -294h229l58 294h132z" />
    <glyph glyph-name="uni04A3" unicode="&#x4a3;" horiz-adv-x="539" 
d="M522 521l-81 -410h55l-47 -233h-116l24 122h-62l42 211h-154l-42 -211h-124l103 521h124l-39 -199h154l39 199h124z" />
    <glyph glyph-name="uni04AE" unicode="&#x4ae;" horiz-adv-x="550" 
d="M635 712l-286 -425l-58 -287h-132l59 292l-129 420h140l76 -295l184 295h146z" />
    <glyph glyph-name="uni04AF" unicode="&#x4af;" horiz-adv-x="464" 
d="M515 521l-260 -484l-45 -228h-126l46 228l-74 484h123l38 -336l167 336h131z" />
    <glyph glyph-name="uni04B0" unicode="&#x4b0;" horiz-adv-x="550" 
d="M635 712l-283 -420h85l-20 -100h-87l-39 -192h-132l39 192h-89l20 100h89l-129 420h140l76 -295l184 295h146z" />
    <glyph glyph-name="uni04B1" unicode="&#x4b1;" horiz-adv-x="464" 
d="M515 521l-259 -483h67l-16 -78h-67l-30 -151h-126l30 151h-69l16 78h69l-74 483h123l38 -336l167 336h131z" />
    <glyph glyph-name="uni04B2" unicode="&#x4b2;" horiz-adv-x="579" 
d="M647 712l-264 -352l96 -243h70l-53 -269h-127l30 152h-21l-88 253l-180 -253h-154l280 370l-132 342h147l79 -234l163 234h154z" />
    <glyph glyph-name="uni04B3" unicode="&#x4b3;" horiz-adv-x="502" 
d="M531 521l-210 -259l71 -151h74l-47 -233h-116l24 122h-26l-65 163l-121 -163h-153l221 269l-118 252h143l61 -155l111 155h151z" />
    <glyph glyph-name="uni04B6" unicode="&#x4b6;" horiz-adv-x="618" 
d="M630 712l-120 -595h62l-53 -269h-127l30 152h-67l53 266q-80 -18 -153 -18q-72 0 -118 36.5t-46 100.5q0 25 5 52l55 275h132l-50 -249q-4 -16 -4 -36q0 -62 80 -62q54 0 122 14l67 333h132z" />
    <glyph glyph-name="uni04B7" unicode="&#x4b7;" horiz-adv-x="515" 
d="M499 521l-82 -410h55l-47 -233h-116l24 122h-62l36 185q-63 -16 -120 -16q-58 0 -91.5 30t-33.5 84q0 15 5 43l39 195h124l-33 -163q-4 -16 -4 -32q0 -46 55 -46q42 0 80 11l47 230h124z" />
    <glyph glyph-name="uni04B8" unicode="&#x4b8;" horiz-adv-x="627" 
d="M639 712l-143 -712h-132l53 266q-47 -11 -65 -12l-27 -135h-99l25 129q-73 2 -116.5 38t-43.5 99q0 17 6 52l54 275h132l-50 -249q-4 -16 -4 -36q0 -45 47 -54l26 120h100l-26 -125q42 5 64 11l67 333h132z" />
    <glyph glyph-name="uni04B9" unicode="&#x4b9;" horiz-adv-x="538" 
d="M522 521l-104 -521h-124l36 185q-21 -8 -46 -10l-22 -114h-81l21 108q-140 5 -140 114q0 24 5 43l39 195h124l-33 -163q-4 -16 -4 -32q0 -34 33 -40l20 102h81l-21 -106l45 9l47 230h124z" />
    <glyph glyph-name="uni04BA" unicode="&#x4ba;" horiz-adv-x="619" 
d="M28 0l143 712h132l-53 -266q80 18 153 18q72 0 118 -36.5t46 -100.5q0 -25 -5 -52l-55 -275h-132l50 249q4 16 4 36q0 62 -80 62q-54 0 -122 -14l-67 -333h-132z" />
    <glyph glyph-name="uni04BB" unicode="&#x4bb;" 
d="M17 0l104 521h124l-36 -185q63 16 120 16q58 0 91.5 -30t33.5 -84q0 -15 -5 -43l-39 -195h-124l33 163q4 16 4 32q0 46 -55 46q-42 0 -80 -11l-47 -230h-124z" />
    <glyph glyph-name="uni04C0" unicode="&#x4c0;" horiz-adv-x="290" 
d="M303 712l-143 -712h-132l143 712h132z" />
    <glyph glyph-name="uni04CF" unicode="&#x4cf;" horiz-adv-x="263" 
d="M285 712l-143 -712h-124l143 712h124z" />
    <glyph glyph-name="uni04D8" unicode="&#x4d8;" horiz-adv-x="614" 
d="M600 516q0 -55 -21 -160q-18 -86 -27.5 -123t-29.5 -80.5t-50 -76.5q-75 -82 -200 -82q-100 0 -159.5 58t-59.5 144q0 75 17 148l11 50h372q14 81 14 111q0 46 -26 71.5t-66 25.5q-60 0 -100 -43q-21 -23 -35 -64h-135q25 88 75 141q77 82 205 82q99 0 157 -58t58 -144z
M430 284h-237q-8 -45 -8 -77q0 -46 28 -71.5t69 -25.5q55 0 95 43q27 27 53 131z" />
    <glyph glyph-name="afii10846" unicode="&#x4d9;" horiz-adv-x="523" 
d="M37 180q0 47 16 118h312q4 16 4 37q0 40 -22.5 63.5t-66.5 23.5q-69 0 -124 -53l-65 82q82 76 203 76q78 0 135.5 -44.5t57.5 -138.5q0 -91 -27.5 -168.5t-89.5 -129.5t-148 -52q-82 0 -133.5 51t-51.5 135zM155 180q0 -41 20 -62.5t54 -21.5q88 0 120 119h-191
q-3 -17 -3 -35z" />
    <glyph glyph-name="uni04E2" unicode="&#x4e2;" horiz-adv-x="677" 
d="M689 712l-143 -712h-132l89 435l-363 -435h-113l143 712h132l-87 -436l361 436h113zM613 874l-16 -82h-302l17 82h301z" />
    <glyph glyph-name="uni04E3" unicode="&#x4e3;" horiz-adv-x="553" 
d="M536 521l-104 -521h-124l61 302l-228 -302h-124l104 521h124l-60 -302l228 302h123zM516 701l-16 -82h-302l17 82h301z" />
    <glyph glyph-name="uni04E8" unicode="&#x4e8;" horiz-adv-x="611" 
d="M595 516q0 -60 -20 -160q-22 -117 -43 -176.5t-63 -103.5q-77 -82 -201 -82q-99 0 -157 58t-58 144q0 60 20 160q22 117 43 176.5t63 103.5q77 82 201 82q99 0 157 -58t58 -144zM372 153q31 33 59 148h-237q-9 -57 -9 -94q0 -46 26.5 -71.5t65.5 -25.5q56 0 95 43z
M463 505q0 46 -26 71.5t-66 25.5q-56 0 -95 -43q-34 -35 -58 -142h236q9 51 9 88z" />
    <glyph glyph-name="uni04E9" unicode="&#x4e9;" horiz-adv-x="515" 
d="M477 355q0 -37 -10 -94q-28 -147 -93 -207q-62 -60 -160 -60q-73 0 -125 44t-52 128q0 42 11 95q15 80 36.5 125.5t56.5 80.5q60 60 160 60q72 0 124 -44t52 -128zM290 131q29 29 45 92h-171q-4 -23 -4 -43q0 -37 18 -56t48 -19q38 0 64 26zM354 342q0 37 -18 56t-48 19
q-38 0 -64 -26q-28 -27 -43 -85h170q3 26 3 36z" />
    <glyph glyph-name="uni04EE" unicode="&#x4ee;" horiz-adv-x="577" 
d="M662 712l-369 -586q-45 -70 -89 -98t-114 -28h-63l22 116h44q60 0 98 59l33 52l-131 485h141l76 -360l206 360h146zM564 874l-16 -82h-302l17 82h301z" />
    <glyph glyph-name="uni04EF" unicode="&#x4ef;" horiz-adv-x="464" 
d="M515 521l-325 -605q-20 -38 -43 -61q-46 -46 -124 -46h-48l23 112h28q26 0 41 12.5t30 41.5l33 62l-74 484h123l38 -336l167 336h131zM468 701l-16 -82h-302l17 82h301z" />
    <glyph glyph-name="Wgrave" unicode="&#x1e80;" horiz-adv-x="846" 
d="M929 712l-318 -712h-111l-37 438l-216 -438h-110l-42 712h136l16 -455l216 455h99l35 -455l192 455h140zM578 778h-92l-71 168h118z" />
    <glyph glyph-name="wgrave" unicode="&#x1e81;" horiz-adv-x="719" 
d="M765 521l-249 -521h-98l-41 331l-171 -331h-100l-49 521h124l18 -325l165 325h90l38 -325l142 325h131zM460 601h-91l-72 167h118z" />
    <glyph glyph-name="Wacute" unicode="&#x1e82;" horiz-adv-x="846" 
d="M929 712l-318 -712h-111l-37 438l-216 -438h-110l-42 712h136l16 -455l216 455h99l35 -455l192 455h140zM709 946l-131 -168h-99l110 168h120z" />
    <glyph glyph-name="wacute" unicode="&#x1e83;" horiz-adv-x="719" 
d="M765 521l-249 -521h-98l-41 331l-171 -331h-100l-49 521h124l18 -325l165 325h90l38 -325l142 325h131zM605 768l-130 -167h-100l111 167h119z" />
    <glyph glyph-name="Wdieresis" unicode="&#x1e84;" horiz-adv-x="846" 
d="M929 712l-318 -712h-111l-37 438l-216 -438h-110l-42 712h136l16 -455l216 455h99l35 -455l192 455h140zM713 902l-24 -122h-106l24 122h106zM504 902l-24 -122h-106l24 122h106z" />
    <glyph glyph-name="wdieresis" unicode="&#x1e85;" horiz-adv-x="719" 
d="M765 521l-249 -521h-98l-41 331l-171 -331h-100l-49 521h124l18 -325l165 325h90l38 -325l142 325h131zM614 725l-24 -122h-106l24 122h106zM405 725l-24 -122h-106l24 122h106z" />
    <glyph glyph-name="uni1E8A" unicode="&#x1e8a;" horiz-adv-x="579" 
d="M647 712l-264 -352l143 -360h-148l-88 253l-180 -253h-154l280 370l-132 342h147l79 -234l163 234h154zM469 900l-23 -114h-107l23 114h107z" />
    <glyph glyph-name="uni1E8B" unicode="&#x1e8b;" horiz-adv-x="502" 
d="M531 521l-210 -259l123 -262h-143l-65 163l-121 -163h-153l221 269l-118 252h143l61 -155l111 155h151zM396 723l-22 -114h-108l24 114h106z" />
    <glyph glyph-name="Ygrave" unicode="&#x1ef2;" horiz-adv-x="550" 
d="M635 712l-286 -425l-58 -287h-132l59 292l-129 420h140l76 -295l184 295h146zM413 778h-92l-71 168h118z" />
    <glyph glyph-name="ygrave" unicode="&#x1ef3;" horiz-adv-x="464" 
d="M515 521l-325 -605q-20 -38 -43 -61q-46 -46 -124 -46h-48l23 112h28q26 0 41 12.5t30 41.5l33 62l-74 484h123l38 -336l167 336h131zM341 601h-91l-72 167h118z" />
    <glyph glyph-name="uni2007" unicode="&#x2007;" 
 />
    <glyph glyph-name="uni2008" unicode="&#x2008;" horiz-adv-x="271" 
 />
    <glyph glyph-name="uni200B" unicode="&#x200b;" horiz-adv-x="0" 
 />
    <glyph glyph-name="endash" unicode="&#x2013;" 
d="M485 343l-23 -115h-420l23 115h420z" />
    <glyph glyph-name="emdash" unicode="&#x2014;" horiz-adv-x="974" 
d="M936 343l-23 -115h-863l23 115h863z" />
    <glyph glyph-name="afii00208" unicode="&#x2015;" horiz-adv-x="974" 
d="M936 343l-23 -115h-863l23 115h863z" />
    <glyph glyph-name="quoteleft" unicode="&#x2018;" horiz-adv-x="258" 
d="M306 817l-45 -228h-129l24 123z" />
    <glyph glyph-name="quoteright" unicode="&#x2019;" horiz-adv-x="258" 
d="M285 712l-24 -124l-150 -104l45 228h129z" />
    <glyph glyph-name="quotesinglbase" unicode="&#x201a;" horiz-adv-x="258" 
d="M168 124l-25 -124l-149 -104l45 228h129z" />
    <glyph glyph-name="quotedblleft" unicode="&#x201c;" horiz-adv-x="458" 
d="M506 817l-46 -228h-128l24 123zM306 817l-46 -228h-128l24 123z" />
    <glyph glyph-name="quotedblright" unicode="&#x201d;" horiz-adv-x="458" 
d="M485 712l-25 -124l-149 -104l45 228h129zM285 712l-25 -124l-149 -104l45 228h129z" />
    <glyph glyph-name="quotedblbase" unicode="&#x201e;" horiz-adv-x="458" 
d="M368 124l-25 -124l-150 -104l45 228h130zM167 124l-24 -124l-149 -104l45 228h128z" />
    <glyph glyph-name="dagger" unicode="&#x2020;" horiz-adv-x="550" 
d="M550 526l-22 -110h-159l-83 -416h-124l83 416h-159l22 110h159l37 186h124l-37 -186h159z" />
    <glyph glyph-name="daggerdbl" unicode="&#x2021;" horiz-adv-x="550" 
d="M550 526l-22 -110h-159l-62 -305h161l-22 -110h-161l-38 -192h-123l38 192h-158l22 110h158l61 305h-159l22 110h159l37 186h124l-37 -186h159z" />
    <glyph glyph-name="bullet" unicode="&#x2022;" horiz-adv-x="469" 
d="M404 334q0 -68 -43 -111t-111 -43t-111 43t-43 111t43 111t111 43t111 -43t43 -111z" />
    <glyph glyph-name="ellipsis" unicode="&#x2026;" horiz-adv-x="804" 
d="M446 136l-28 -136h-134l27 136h135zM715 136l-26 -136h-135l28 136h133zM175 136l-26 -136h-135l28 136h133z" />
    <glyph glyph-name="perthousand" unicode="&#x2030;" horiz-adv-x="1161" 
d="M392 608q0 -21 -3 -32l-18 -95q-27 -136 -159 -136q-49 0 -83.5 28t-34.5 82q0 21 3 32l18 95q27 136 159 136q49 0 83.5 -28t34.5 -82zM763 257q0 -21 -3 -32l-18 -95q-27 -136 -159 -136q-49 0 -83.5 28t-34.5 82q0 21 3 32l18 95q27 136 159 136q49 0 83.5 -28
t34.5 -82zM1107 257q0 -21 -3 -32l-18 -95q-27 -136 -159 -136q-49 0 -83.5 28t-34.5 82q0 21 3 32l18 95q27 136 159 136q49 0 83.5 -28t34.5 -82zM710 712l-463 -712h-100l463 712h100zM1017 246q0 41 -41 41q-44 0 -57 -58l-18 -90q-2 -10 -2 -15v-9q0 -41 41 -41
q44 0 57 58l18 93q2 14 2 21zM673 246q0 41 -41 41q-44 0 -57 -58l-18 -90q-2 -10 -2 -15v-9q0 -41 41 -41q44 0 57 58l18 93q2 14 2 21zM302 597q0 41 -41 41q-44 0 -57 -58l-18 -90q-2 -10 -2 -15v-9q0 -41 41 -41q44 0 57 58l18 93q2 14 2 21z" />
    <glyph glyph-name="guilsinglleft" unicode="&#x2039;" horiz-adv-x="333" 
d="M323 521l-33 -160l-111 -96l73 -96l-27 -142l-189 249z" />
    <glyph glyph-name="guilsinglright" unicode="&#x203a;" horiz-adv-x="333" 
d="M305 273l-287 -246l32 160l111 96l-73 97l28 141z" />
    <glyph glyph-name="fraction" unicode="&#x2044;" horiz-adv-x="200" 
d="M401 712l-462 -712h-100l463 712h99z" />
    <glyph glyph-name="uni2070" unicode="&#x2070;" horiz-adv-x="316" 
d="M345 609q0 -22 -3 -30l-32 -165q-28 -133 -148 -133q-53 0 -83 31t-30 76q0 19 3 30l33 165q13 70 54 101.5t93 31.5q53 0 83 -31t30 -76zM254 594q0 33 -32 33q-39 0 -48 -48l-31 -156q-3 -11 -3 -19q0 -17 9.5 -25.5t23.5 -8.5q39 0 48 48l31 157q2 14 2 19z" />
    <glyph glyph-name="uni2074" unicode="&#x2074;" horiz-adv-x="316" 
d="M326 426l-16 -81h-33l-12 -60h-85l12 60h-170l15 81l193 286h100l-194 -286h71l13 66h86l-14 -66h34z" />
    <glyph glyph-name="uni2075" unicode="&#x2075;" horiz-adv-x="316" 
d="M360 712l-16 -82h-162l-14 -74q21 16 54 16q48 0 73.5 -29.5t25.5 -71.5q0 -29 -3 -41q-14 -74 -50 -110q-38 -38 -104 -38q-51 0 -82 28.5t-31 75.5v10q0 6 2 16h86q-1 -3 -1 -12q0 -37 33 -37q41 0 54 67q4 17 4 29q0 37 -33 37t-47 -31h-83l50 247h244z" />
    <glyph glyph-name="uni2076" unicode="&#x2076;" horiz-adv-x="316" 
d="M326 428q0 -63 -39.5 -105t-105.5 -42q-63 0 -95 36t-32 82q0 32 11.5 59.5t39.5 68.5l123 185h101l-119 -174q16 2 22 2q42 0 68 -30t26 -82zM236 425q0 44 -40 44q-25 0 -38.5 -18t-13.5 -44q0 -45 40 -45q23 0 37.5 18t14.5 45z" />
    <glyph glyph-name="uni2077" unicode="&#x2077;" horiz-adv-x="316" 
d="M377 712l-16 -81l-192 -346h-92l192 346h-106l-13 -68h-81l29 149h279z" />
    <glyph glyph-name="uni2078" unicode="&#x2078;" horiz-adv-x="316" 
d="M346 598q0 -31 -18 -58.5t-44 -42.5q32 -26 32 -74q0 -62 -40 -102t-110 -40q-54 0 -89.5 30t-35.5 87q0 76 68 112q-30 35 -30 75q0 54 40 92.5t104 38.5q55 0 89 -32.5t34 -85.5zM225 421q0 18 -10 31t-30 13q-23 0 -38.5 -16.5t-15.5 -42.5q0 -18 10 -31t30 -13
q23 0 38.5 16.5t15.5 42.5zM255 595q0 16 -9.5 28t-27.5 12q-21 0 -35 -15.5t-14 -39.5q0 -16 9.5 -27.5t27.5 -11.5q21 0 35 15t14 39z" />
    <glyph glyph-name="uni2079" unicode="&#x2079;" horiz-adv-x="316" 
d="M348 599q0 -33 -11.5 -60.5t-39.5 -68.5l-123 -185h-101l119 174q-8 -2 -11 -2h-11q-43 0 -68.5 30t-25.5 82q0 64 39.5 105.5t104.5 41.5q63 0 95.5 -36t32.5 -81zM258 590q0 45 -40 45q-25 0 -38.5 -17.5t-13.5 -45.5q0 -44 40 -44q25 0 38.5 17t13.5 45z" />
    <glyph glyph-name="uni2080" unicode="&#x2080;" horiz-adv-x="316" 
d="M257 174q0 -22 -3 -30l-32 -165q-28 -133 -148 -133q-53 0 -83 31t-30 76q0 19 3 30l33 165q13 70 54 101.5t93 31.5q53 0 83 -31t30 -76zM166 159q0 33 -32 33q-39 0 -48 -48l-31 -156q-3 -11 -3 -19q0 -17 9.5 -25.5t23.5 -8.5q39 0 48 48l31 157q2 14 2 19z" />
    <glyph glyph-name="uni2081" unicode="&#x2081;" horiz-adv-x="316" 
d="M223 277l-85 -427h-90l64 321l-101 -73l22 107l101 72h89z" />
    <glyph glyph-name="uni2082" unicode="&#x2082;" horiz-adv-x="316" 
d="M257 171q0 -36 -16.5 -64t-51.5 -60l-125 -117h151l-16 -80h-263l17 80l177 169q36 35 36 65q0 37 -34 37q-41 0 -49 -46h-90q24 126 148 126q56 0 86 -29t30 -81z" />
    <glyph glyph-name="uni2083" unicode="&#x2083;" horiz-adv-x="316" 
d="M259 171q0 -73 -63 -104q33 -24 33 -79q0 -63 -40.5 -102t-109.5 -39q-62 0 -92.5 28.5t-30.5 69.5q0 10 2 32h89q-6 -50 38 -50q22 0 37.5 16t15.5 44q0 44 -39 44h-11l15 76h10q29 0 42 18t13 40q0 37 -32 37q-41 0 -51 -46h-90q22 126 151 126q51 0 82 -30.5t31 -80.5
z" />
    <glyph glyph-name="uni2084" unicode="&#x2084;" horiz-adv-x="316" 
d="M239 -9l-16 -81h-33l-12 -60h-85l12 60h-170l15 81l193 286h100l-194 -286h71l13 66h86l-14 -66h34z" />
    <glyph glyph-name="uni2085" unicode="&#x2085;" horiz-adv-x="316" 
d="M273 277l-16 -82h-162l-14 -74q21 16 54 16q48 0 73.5 -29.5t25.5 -71.5q0 -29 -3 -41q-14 -74 -50 -110q-38 -38 -104 -38q-51 0 -82 28.5t-31 75.5v10q0 6 2 16h86q-1 -3 -1 -12q0 -37 33 -37q41 0 54 67q4 17 4 29q0 37 -33 37t-47 -31h-83l50 247h244z" />
    <glyph glyph-name="uni2086" unicode="&#x2086;" horiz-adv-x="316" 
d="M239 -7q0 -63 -39.5 -105t-105.5 -42q-63 0 -95 36t-32 82q0 32 11.5 59.5t39.5 68.5l123 185h101l-119 -174q16 2 22 2q42 0 68 -30t26 -82zM149 -10q0 44 -40 44q-25 0 -38.5 -18t-13.5 -44q0 -45 40 -45q23 0 37.5 18t14.5 45z" />
    <glyph glyph-name="uni2087" unicode="&#x2087;" horiz-adv-x="316" 
d="M290 277l-16 -81l-192 -346h-92l192 346h-106l-13 -68h-81l29 149h279z" />
    <glyph glyph-name="uni2088" unicode="&#x2088;" horiz-adv-x="316" 
d="M259 163q0 -31 -18 -58.5t-44 -42.5q32 -26 32 -74q0 -62 -40 -102t-110 -40q-54 0 -89.5 30t-35.5 87q0 76 68 112q-30 35 -30 75q0 54 40 92.5t104 38.5q55 0 89 -32.5t34 -85.5zM138 -14q0 18 -10 31t-30 13q-23 0 -38.5 -16.5t-15.5 -42.5q0 -18 10 -31t30 -13
q23 0 38.5 16.5t15.5 42.5zM168 160q0 16 -9.5 28t-27.5 12q-21 0 -35 -15.5t-14 -39.5q0 -16 9.5 -27.5t27.5 -11.5q21 0 35 15t14 39z" />
    <glyph glyph-name="uni2089" unicode="&#x2089;" horiz-adv-x="316" 
d="M262 164q0 -33 -11.5 -60.5t-39.5 -68.5l-123 -185h-101l119 174q-8 -2 -11 -2h-11q-43 0 -68.5 30t-25.5 82q0 64 39.5 105.5t104.5 41.5q63 0 95.5 -36t32.5 -81zM172 155q0 45 -40 45q-25 0 -38.5 -17.5t-13.5 -45.5q0 -44 40 -44q25 0 38.5 17t13.5 45z" />
    <glyph glyph-name="Euro" unicode="&#x20ac;" horiz-adv-x="650" 
d="M641 498h-132q-2 104 -92 104q-54 0 -95 -41q-28 -30 -43 -88h143l-16 -78h-147l-15 -75h147l-16 -78h-142q-3 -13 -3 -36q0 -45 26.5 -70.5t69.5 -25.5q90 0 132 104h135q-35 -108 -108 -164t-169 -56q-100 0 -159.5 57.5t-59.5 144.5q0 21 4 46h-69l15 78h65l15 75h-64
l15 78h67q29 112 81 164q78 81 198 81q106 0 161.5 -61.5t55.5 -158.5z" />
    <glyph glyph-name="uni20B4" unicode="&#x20b4;" horiz-adv-x="652" 
d="M655 471l-15 -74h-70q-42 -36 -137 -65l-33 -10h226l-15 -74h-386q-24 -23 -24 -53q0 -39 32 -62.5t91 -23.5q51 0 89.5 14.5t80.5 49.5l75 -87q-58 -50 -119.5 -70.5t-142.5 -20.5q-109 0 -173.5 51t-64.5 131q0 47 8 71h-45q4 24 14 74h77q44 40 146 72l9 3h-217l15 74
h392q26 24 26 53q0 37 -28 59t-85 22q-85 0 -148 -56q-71 82 -74 86q52 44 106 63.5t128 19.5q109 0 169.5 -49t60.5 -129q0 -37 -8 -69h40z" />
    <glyph glyph-name="afii61352" unicode="&#x2116;" horiz-adv-x="913" 
d="M939 598q0 -29 -7 -64q-10 -55 -23.5 -87.5t-38.5 -55.5q-40 -40 -108 -40q-47 0 -84 29.5t-37 89.5q0 29 7 64q10 55 23.5 87.5t38.5 55.5q40 40 108 40q49 0 85 -29t36 -90zM850 586q0 49 -44 49q-22 0 -39 -18q-18 -20 -31 -83q-6 -30 -6 -52q0 -49 44 -49q24 0 39 18
q18 20 31 83q6 30 6 52zM886 314l-19 -90h-272l19 90h272zM633 712l-144 -712h-109l-145 458l-93 -458h-124l145 712h109l145 -458l92 458h124z" />
    <glyph glyph-name="trademark" unicode="&#x2122;" horiz-adv-x="878" 
d="M909 712l-84 -427h-92l51 253l-106 -153h-79l-46 155l-52 -255h-90l84 427h89l70 -228l163 228h92zM431 712l-15 -81h-103l-70 -346h-89l69 346h-106l16 81h298z" />
    <glyph glyph-name="Omega" unicode="&#x2126;" horiz-adv-x="611" 
d="M597 516q0 -43 -22 -160q-27 -139 -65 -193q-26 -36 -39 -46h62l-24 -117h-212l20 103q33 13 55 38q21 25 35 67.5t34 140.5q22 113 22 156q0 48 -25.5 72t-61.5 24q-61 0 -100 -42q-20 -20 -35 -64.5t-35 -145.5q-23 -118 -23 -158q0 -64 50 -88l-20 -103h-203l23 117
h61q-34 43 -34 112q0 51 15 127q23 118 44.5 178t64.5 103q39 39 92 60t106 21q98 0 156.5 -58t58.5 -144z" />
    <glyph glyph-name="uni2150" unicode="&#x2150;" horiz-adv-x="832" 
d="M310 712l-85 -427h-90l64 321l-101 -73l22 107l101 72h89zM717 712l-462 -712h-100l463 712h99zM836 427l-16 -81l-192 -346h-92l192 346h-106l-13 -68h-81l29 149h279z" />
    <glyph glyph-name="uni2151" unicode="&#x2151;" horiz-adv-x="832" 
d="M310 712l-85 -427h-90l64 321l-101 -73l22 107l101 72h89zM717 712l-462 -712h-100l463 712h99zM808 314q0 -33 -11.5 -60.5t-39.5 -68.5l-123 -185h-101l119 174q-8 -2 -11 -2h-11q-43 0 -68.5 30t-25.5 82q0 64 39.5 105.5t104.5 41.5q63 0 95.5 -36t32.5 -81zM718 305
q0 45 -40 45q-25 0 -38.5 -17.5t-13.5 -45.5q0 -44 40 -44q25 0 38.5 17t13.5 45z" />
    <glyph glyph-name="uni2152" unicode="&#x2152;" horiz-adv-x="1148" 
d="M310 712l-85 -427h-90l64 321l-101 -73l22 107l101 72h89zM717 712l-462 -712h-100l463 712h99zM769 427l-85 -427h-90l64 321l-101 -73l22 107l101 72h89zM1119 324q0 -22 -3 -30l-32 -165q-28 -133 -148 -133q-53 0 -83 31t-30 76q0 19 3 30l33 165q13 70 54 101.5
t93 31.5q53 0 83 -31t30 -76zM1028 309q0 33 -32 33q-39 0 -48 -48l-31 -156q-3 -10 -3 -19q0 -17 9.5 -25.5t23.5 -8.5q39 0 48 48l31 157q2 14 2 19z" />
    <glyph glyph-name="onethird" unicode="&#x2153;" horiz-adv-x="832" 
d="M310 712l-85 -427h-90l64 321l-101 -73l22 107l101 72h89zM717 712l-462 -712h-100l463 712h99zM804 321q0 -73 -63 -104q33 -24 33 -79q0 -63 -40.5 -102t-109.5 -39q-62 0 -92.5 28.5t-30.5 69.5q0 10 2 32h89q-6 -50 38 -50q22 0 37.5 16t15.5 44q0 44 -39 44h-11
l15 76h10q29 0 42 18t13 40q0 37 -32 37q-41 0 -51 -46h-90q22 126 151 126q51 0 82 -30.5t31 -80.5z" />
    <glyph glyph-name="twothirds" unicode="&#x2154;" horiz-adv-x="832" 
d="M345 606q0 -36 -16.5 -64t-51.5 -60l-125 -117h151l-16 -80h-263l17 80l177 169q36 35 36 65q0 37 -34 37q-41 0 -49 -46h-90q24 126 148 126q56 0 86 -29t30 -81zM717 712l-462 -712h-100l463 712h99zM804 321q0 -73 -63 -104q33 -24 33 -79q0 -63 -40.5 -102
t-109.5 -39q-62 0 -92.5 28.5t-30.5 69.5q0 10 2 32h89q-6 -50 38 -50q22 0 37.5 16t15.5 44q0 44 -39 44h-11l15 76h10q29 0 42 18t13 40q0 37 -32 37q-41 0 -51 -46h-90q22 126 151 126q51 0 82 -30.5t31 -80.5z" />
    <glyph glyph-name="uni2155" unicode="&#x2155;" horiz-adv-x="832" 
d="M310 712l-85 -427h-90l64 321l-101 -73l22 107l101 72h89zM717 712l-462 -712h-100l463 712h99zM819 427l-16 -82h-162l-14 -74q21 16 54 16q48 0 73.5 -29.5t25.5 -71.5q0 -29 -3 -41q-14 -74 -50 -110q-38 -38 -104 -38q-51 0 -82 28.5t-31 75.5v10q0 6 2 16h86
q-1 -3 -1 -12q0 -37 33 -37q41 0 54 67q4 17 4 29q0 37 -33 37t-47 -31h-83l50 247h244z" />
    <glyph glyph-name="uni2156" unicode="&#x2156;" horiz-adv-x="832" 
d="M345 606q0 -36 -16.5 -64t-51.5 -60l-125 -117h151l-16 -80h-263l17 80l177 169q36 35 36 65q0 37 -34 37q-41 0 -49 -46h-90q24 126 148 126q56 0 86 -29t30 -81zM717 712l-462 -712h-100l463 712h99zM819 427l-16 -82h-162l-14 -74q21 16 54 16q48 0 73.5 -29.5
t25.5 -71.5q0 -29 -3 -41q-14 -74 -50 -110q-38 -38 -104 -38q-51 0 -82 28.5t-31 75.5v10q0 6 2 16h86q-1 -3 -1 -12q0 -37 33 -37q41 0 54 67q4 17 4 29q0 37 -33 37t-47 -31h-83l50 247h244z" />
    <glyph glyph-name="uni2157" unicode="&#x2157;" horiz-adv-x="832" 
d="M345 606q0 -73 -63 -104q33 -24 33 -79q0 -63 -40.5 -102t-109.5 -39q-62 0 -92.5 28.5t-30.5 69.5q0 10 2 32h89q-6 -50 38 -50q22 0 37.5 16t15.5 44q0 44 -39 44h-11l15 76h10q29 0 42 18t13 40q0 37 -32 37q-41 0 -51 -46h-90q22 126 151 126q51 0 82 -30.5t31 -80.5
zM717 712l-462 -712h-100l463 712h99zM819 427l-16 -82h-162l-14 -74q21 16 54 16q48 0 73.5 -29.5t25.5 -71.5q0 -29 -3 -41q-14 -74 -50 -110q-38 -38 -104 -38q-51 0 -82 28.5t-31 75.5v10q0 6 2 16h86q-1 -3 -1 -12q0 -37 33 -37q41 0 54 67q4 17 4 29q0 37 -33 37
t-47 -31h-83l50 247h244z" />
    <glyph glyph-name="uni2158" unicode="&#x2158;" horiz-adv-x="832" 
d="M326 426l-16 -81h-33l-12 -60h-85l12 60h-170l15 81l193 286h100l-194 -286h71l13 66h86l-14 -66h34zM717 712l-462 -712h-100l463 712h99zM819 427l-16 -82h-162l-14 -74q21 16 54 16q48 0 73.5 -29.5t25.5 -71.5q0 -29 -3 -41q-14 -74 -50 -110q-38 -38 -104 -38
q-51 0 -82 28.5t-31 75.5v10q0 6 2 16h86q-1 -3 -1 -12q0 -37 33 -37q41 0 54 67q4 17 4 29q0 37 -33 37t-47 -31h-83l50 247h244z" />
    <glyph glyph-name="uni2159" unicode="&#x2159;" horiz-adv-x="832" 
d="M310 712l-85 -427h-90l64 321l-101 -73l22 107l101 72h89zM717 712l-462 -712h-100l463 712h99zM785 143q0 -63 -39.5 -105t-105.5 -42q-63 0 -95 36t-32 82q0 32 11.5 59.5t39.5 68.5l123 185h101l-119 -174q16 2 22 2q42 0 68 -30t26 -82zM695 140q0 44 -40 44
q-25 0 -38.5 -18t-13.5 -44q0 -45 40 -45q23 0 37.5 18t14.5 45z" />
    <glyph glyph-name="uni215A" unicode="&#x215a;" horiz-adv-x="832" 
d="M360 712l-16 -82h-162l-14 -74q21 16 54 16q48 0 73.5 -29.5t25.5 -71.5q0 -29 -3 -41q-14 -74 -50 -110q-38 -38 -104 -38q-51 0 -82 28.5t-31 75.5v10q0 6 2 16h86q-1 -3 -1 -12q0 -37 33 -37q41 0 54 67q4 17 4 29q0 37 -33 37t-47 -31h-83l50 247h244zM717 712
l-462 -712h-100l463 712h99zM785 143q0 -63 -39.5 -105t-105.5 -42q-63 0 -95 36t-32 82q0 32 11.5 59.5t39.5 68.5l123 185h101l-119 -174q16 2 22 2q42 0 68 -30t26 -82zM695 140q0 44 -40 44q-25 0 -38.5 -18t-13.5 -44q0 -45 40 -45q23 0 37.5 18t14.5 45z" />
    <glyph glyph-name="oneeighth" unicode="&#x215b;" horiz-adv-x="832" 
d="M310 712l-85 -427h-90l64 321l-101 -73l22 107l101 72h89zM717 712l-462 -712h-100l463 712h99zM806 313q0 -31 -18 -58.5t-44 -42.5q32 -26 32 -74q0 -62 -40 -102t-110 -40q-54 0 -89.5 30t-35.5 87q0 76 68 112q-30 35 -30 75q0 54 40 92.5t104 38.5q55 0 89 -32.5
t34 -85.5zM685 136q0 18 -10 31t-30 13q-23 0 -38.5 -16.5t-15.5 -42.5q0 -18 10 -31t30 -13q23 0 38.5 16.5t15.5 42.5zM715 310q0 16 -9.5 28t-27.5 12q-21 0 -35 -15.5t-14 -39.5q0 -16 9.5 -27.5t27.5 -11.5q21 0 35 15t14 39z" />
    <glyph glyph-name="threeeighths" unicode="&#x215c;" horiz-adv-x="832" 
d="M345 606q0 -73 -63 -104q33 -24 33 -79q0 -63 -40.5 -102t-109.5 -39q-62 0 -92.5 28.5t-30.5 69.5q0 10 2 32h89q-6 -50 38 -50q22 0 37.5 16t15.5 44q0 44 -39 44h-11l15 76h10q29 0 42 18t13 40q0 37 -32 37q-41 0 -51 -46h-90q22 126 151 126q51 0 82 -30.5t31 -80.5
zM717 712l-462 -712h-100l463 712h99zM806 313q0 -31 -18 -58.5t-44 -42.5q32 -26 32 -74q0 -62 -40 -102t-110 -40q-54 0 -89.5 30t-35.5 87q0 76 68 112q-30 35 -30 75q0 54 40 92.5t104 38.5q55 0 89 -32.5t34 -85.5zM685 136q0 18 -10 31t-30 13q-23 0 -38.5 -16.5
t-15.5 -42.5q0 -18 10 -31t30 -13q23 0 38.5 16.5t15.5 42.5zM715 310q0 16 -9.5 28t-27.5 12q-21 0 -35 -15.5t-14 -39.5q0 -16 9.5 -27.5t27.5 -11.5q21 0 35 15t14 39z" />
    <glyph glyph-name="fiveeighths" unicode="&#x215d;" horiz-adv-x="832" 
d="M360 712l-16 -82h-162l-14 -74q21 16 54 16q48 0 73.5 -29.5t25.5 -71.5q0 -29 -3 -41q-14 -74 -50 -110q-38 -38 -104 -38q-51 0 -82 28.5t-31 75.5v10q0 6 2 16h86q-1 -3 -1 -12q0 -37 33 -37q41 0 54 67q4 17 4 29q0 37 -33 37t-47 -31h-83l50 247h244zM717 712
l-462 -712h-100l463 712h99zM806 313q0 -31 -18 -58.5t-44 -42.5q32 -26 32 -74q0 -62 -40 -102t-110 -40q-54 0 -89.5 30t-35.5 87q0 76 68 112q-30 35 -30 75q0 54 40 92.5t104 38.5q55 0 89 -32.5t34 -85.5zM685 136q0 18 -10 31t-30 13q-23 0 -38.5 -16.5t-15.5 -42.5
q0 -18 10 -31t30 -13q23 0 38.5 16.5t15.5 42.5zM715 310q0 16 -9.5 28t-27.5 12q-21 0 -35 -15.5t-14 -39.5q0 -16 9.5 -27.5t27.5 -11.5q21 0 35 15t14 39z" />
    <glyph glyph-name="seveneighths" unicode="&#x215e;" horiz-adv-x="832" 
d="M377 712l-16 -81l-192 -346h-92l192 346h-106l-13 -68h-81l29 149h279zM717 712l-462 -712h-100l463 712h99zM806 313q0 -31 -18 -58.5t-44 -42.5q32 -26 32 -74q0 -62 -40 -102t-110 -40q-54 0 -89.5 30t-35.5 87q0 76 68 112q-30 35 -30 75q0 54 40 92.5t104 38.5
q55 0 89 -32.5t34 -85.5zM685 136q0 18 -10 31t-30 13q-23 0 -38.5 -16.5t-15.5 -42.5q0 -18 10 -31t30 -13q23 0 38.5 16.5t15.5 42.5zM715 310q0 16 -9.5 28t-27.5 12q-21 0 -35 -15.5t-14 -39.5q0 -16 9.5 -27.5t27.5 -11.5q21 0 35 15t14 39z" />
    <glyph glyph-name="uni215F" unicode="&#x215f;" 
d="M310 712l-85 -427h-90l64 321l-101 -73l22 107l101 72h89zM717 712l-462 -712h-100l463 712h99z" />
    <glyph glyph-name="uni2189" unicode="&#x2189;" horiz-adv-x="832" 
d="M345 609q0 -22 -3 -30l-32 -165q-28 -133 -148 -133q-53 0 -83 31t-30 76q0 19 3 30l33 165q13 70 54 101.5t93 31.5q53 0 83 -31t30 -76zM254 594q0 33 -32 33q-39 0 -48 -48l-31 -156q-3 -11 -3 -19q0 -17 9.5 -25.5t23.5 -8.5q39 0 48 48l31 157q2 14 2 19zM717 712
l-462 -712h-100l463 712h99zM804 321q0 -73 -63 -104q33 -24 33 -79q0 -63 -40.5 -102t-109.5 -39q-62 0 -92.5 28.5t-30.5 69.5q0 10 2 32h89q-6 -50 38 -50q22 0 37.5 16t15.5 44q0 44 -39 44h-11l15 76h10q29 0 42 18t13 40q0 37 -32 37q-41 0 -51 -46h-90
q22 126 151 126q51 0 82 -30.5t31 -80.5z" />
    <glyph glyph-name="arrowleft" unicode="&#x2190;" horiz-adv-x="1027" 
d="M436 -100l-386 385l386 385h164l-327 -324h704v-123h-704l327 -323h-164z" />
    <glyph glyph-name="arrowup" unicode="&#x2191;" horiz-adv-x="1027" 
d="M899 200l-324 327v-705h-122v705l-324 -327v164l385 385l385 -385v-164z" />
    <glyph glyph-name="arrowright" unicode="&#x2192;" horiz-adv-x="1027" 
d="M429 -100l327 324h-705v122h705l-327 324h164l385 -385l-385 -385h-164z" />
    <glyph glyph-name="arrowdown" unicode="&#x2193;" horiz-adv-x="1027" 
d="M898 208l-385 -386l-385 386v164l324 -327v704h123v-704l323 327v-164z" />
    <glyph glyph-name="uni2196" unicode="&#x2196;" horiz-adv-x="1027" 
d="M884 1l-87 -86l-497 497l1 -460l-116 116v545h545l117 -116l-460 1z" />
    <glyph glyph-name="uni2197" unicode="&#x2197;" horiz-adv-x="1027" 
d="M841 69l-116 -116l2 459l-498 -497l-87 86l498 498l-460 -2l117 116h544v-544z" />
    <glyph glyph-name="uni2198" unicode="&#x2198;" horiz-adv-x="1027" 
d="M841 -85h-544l-117 116l460 -3l-498 498l87 87l498 -497l-2 459l116 -116v-544z" />
    <glyph glyph-name="uni2199" unicode="&#x2199;" horiz-adv-x="1027" 
d="M884 526l-497 -497l460 2l-117 -116h-545v545l116 116l-1 -460l497 497z" />
    <glyph glyph-name="partialdiff" unicode="&#x2202;" horiz-adv-x="527" 
d="M506 538q0 -29 -5 -57l-43 -227q-15 -75 -32.5 -121t-52.5 -81q-58 -58 -151 -58q-82 0 -130.5 46t-48.5 129q0 41 10 85q16 78 36 125.5t57 81.5q57 52 144 52q61 0 88 -34l5 33q2 14 2 18q0 83 -83 83q-34 0 -57 -9t-51 -32l-63 83q74 63 182 63q85 0 139 -46t54 -134z
M345 334q0 32 -17 50t-45 18q-34 0 -56 -22q-28 -25 -50 -126q-11 -62 -11 -81q0 -32 17 -50t45 -18q34 0 56 22q28 25 50 127q11 62 11 80z" />
    <glyph glyph-name="Delta" unicode="&#x2206;" horiz-adv-x="604" 
d="M550 0h-598l389 712h105zM410 110l-48 403l-214 -403h262z" />
    <glyph glyph-name="product" unicode="&#x220f;" horiz-adv-x="651" 
d="M673 760l-189 -951h-132l166 836h-228l-168 -836h-131l189 951h493z" />
    <glyph glyph-name="summation" unicode="&#x2211;" horiz-adv-x="524" 
d="M584 760l-23 -116h-297l88 -297l-25 -122l-199 -300h298l-23 -116h-451l20 104l258 390l-111 357l20 100h445z" />
    <glyph glyph-name="minus" unicode="&#x2212;" 
d="M485 343l-23 -115h-420l23 115h420z" />
    <glyph glyph-name="uni2219" unicode="&#x2219;" 
d="M412 334q0 -68 -43 -111t-111 -43t-111 43t-43 111t43 111t111 43t111 -43t43 -111z" />
    <glyph glyph-name="radical" unicode="&#x221a;" horiz-adv-x="566" 
d="M635 712l-23 -116h-83l-305 -596h-106l-62 521h129l29 -287l235 478h186z" />
    <glyph glyph-name="infinity" unicode="&#x221e;" horiz-adv-x="808" 
d="M763 285q0 -78 -48 -129t-133 -51q-94 0 -171 90q-77 -90 -171 -90q-85 0 -133 51t-48 129t48 129t133 51q93 0 171 -91q78 91 171 91q85 0 133 -51t48 -129zM644 281q0 29 -18 46.5t-45 17.5q-24 0 -43 -15.5t-46 -48.5q27 -32 46 -47.5t43 -15.5q27 0 45 17t18 46z
M329 281q-27 33 -46 48.5t-43 15.5q-27 0 -45 -17.5t-18 -46.5t18 -46t45 -17q24 0 43 15.5t46 47.5z" />
    <glyph glyph-name="integral" unicode="&#x222b;" horiz-adv-x="471" 
d="M501 719l-21 -104h-43q-35 0 -54 -16.5t-27 -53.5l-110 -549q-21 -102 -73 -142t-138 -40h-65l21 105h42q35 0 54.5 16t27.5 53l110 550q21 102 72.5 141.5t138.5 39.5h65z" />
    <glyph glyph-name="approxequal" unicode="&#x2248;" horiz-adv-x="576" 
d="M464 250l64 -83q-83 -78 -169 -78q-52 0 -107 32q-41 24 -76 24q-50 0 -95 -42l-64 84q82 77 169 77q53 0 108 -32q41 -24 75 -24q49 0 95 42zM507 468l64 -83q-83 -78 -169 -78q-52 0 -107 32q-41 24 -76 24q-49 0 -94 -42l-65 84q84 77 170 77q52 0 107 -32
q41 -24 75 -24q50 0 95 42z" />
    <glyph glyph-name="notequal" unicode="&#x2260;" horiz-adv-x="572" 
d="M574 520l-68 -72h57l-24 -115h-138l-93 -95h213l-23 -115h-294l-128 -136l-66 64l68 72h-57l24 115h138l93 95h-214l24 115h295l127 136z" />
    <glyph glyph-name="lessequal" unicode="&#x2264;" 
d="M526 644l-27 -136l-264 -110l222 -116l-25 -125l-353 199l20 103zM418 78l-24 -120l-353 199l24 120z" />
    <glyph glyph-name="greaterequal" unicode="&#x2265;" 
d="M494 450l-21 -103l-426 -185l27 136l263 109l-222 116l26 126zM460 268l-25 -131l-426 -185l25 130z" />
    <glyph glyph-name="dotmath" unicode="&#x22c5;" 
d="M342 356l-28 -141h-141l28 141h141z" />
    <glyph glyph-name="lozenge" unicode="&#x25ca;" horiz-adv-x="605" 
d="M572 325l-315 -351l-186 382l313 351zM435 341l-81 168l-146 -168l80 -170z" />
    <glyph glyph-name="uniFEFF" unicode="&#xfeff;" horiz-adv-x="0" 
 />
    <glyph glyph-name="NULL" horiz-adv-x="0" 
 />
    <glyph glyph-name="CR" horiz-adv-x="220" 
 />
    <glyph glyph-name="zero.osf" 
d="M494 432q0 -24 -5 -49l-35 -175q-22 -113 -88 -163.5t-148 -50.5q-80 0 -129 47.5t-49 123.5q0 24 5 49l35 175q22 113 88.5 163.5t148.5 50.5q80 0 128.5 -47.5t48.5 -123.5zM371 423q0 35 -19 52t-46 17q-83 0 -103 -99l-36 -184q-4 -15 -4 -35q0 -35 19 -52t46 -17
q83 0 103 99l36 184q4 15 4 35z" />
    <glyph glyph-name="one.osf" horiz-adv-x="416" 
d="M381 597l-119 -597h-124l91 455l-162 -117l28 143l162 116h124z" />
    <glyph glyph-name="two.osf" horiz-adv-x="526" 
d="M497 447q0 -55 -34.5 -100t-118.5 -114l-149 -122h257l-23 -111h-431l22 111l257 204q57 46 76 70.5t19 56.5q0 34 -18.5 52t-49.5 18q-82 0 -102 -90h-124q38 201 240 201q85 0 132 -49t47 -127z" />
    <glyph glyph-name="three.osf" horiz-adv-x="509" 
d="M482 434q0 -130 -109 -185q34 -19 49 -48.5t15 -78.5q0 -102 -69 -172.5t-168 -70.5q-93 0 -147.5 45.5t-54.5 123.5q0 23 3 36h122q-2 -8 -2 -10v-12q0 -32 20.5 -52t59.5 -20q46 0 78.5 38t32.5 89q0 78 -80 78h-19l21 108h20q44 0 74 35.5t30 81.5q0 35 -18 53.5
t-49 18.5q-34 0 -62.5 -23t-39.5 -64h-125q23 99 85.5 148.5t158.5 49.5q78 0 126 -48t48 -121z" />
    <glyph glyph-name="four.osf" horiz-adv-x="564" 
d="M507 150l-23 -116h-76l-31 -157h-119l31 157h-295l23 116l325 491h137l-326 -491h158l30 148h118l-29 -148h77z" />
    <glyph glyph-name="five.osf" horiz-adv-x="524" 
d="M524 597l-22 -111h-273l-31 -158q41 33 102 33q77 0 118 -47t41 -115q0 -34 -7 -74q-24 -125 -83 -184q-62 -62 -163 -62q-83 0 -131 46.5t-48 119.5v14q0 8 2 22h119q-1 -3 -1 -10v-10q0 -71 66 -71q48 0 73.5 35t38.5 100q7 40 7 58q0 73 -64 73q-61 0 -96 -59h-112
l80 400h384z" />
    <glyph glyph-name="six.osf" horiz-adv-x="519" 
d="M478 245q0 -106 -65.5 -178.5t-173.5 -72.5q-105 0 -157 60.5t-52 144.5q0 97 89 220l221 309h135l-217 -297q19 8 52 8q67 0 117.5 -48.5t50.5 -145.5zM355 237q0 49 -24 76t-63 27q-49 0 -82 -39t-33 -94q0 -49 24 -76t63 -27q48 0 81.5 38.5t33.5 94.5z" />
    <glyph glyph-name="seven.osf" horiz-adv-x="528" 
d="M564 597l-22 -111l-366 -604h-136l366 604h-200l-22 -109h-118l44 220h454z" />
    <glyph glyph-name="eight.osf" horiz-adv-x="533" 
d="M529 534q0 -57 -30.5 -104.5t-78.5 -71.5q59 -46 59 -131q0 -99 -65 -166t-179 -67q-86 0 -141.5 47t-55.5 139q0 133 122 195q-52 44 -52 123q0 92 64.5 156t166.5 64q84 0 137 -50.5t53 -133.5zM353 226q0 37 -21 61t-58 24q-48 0 -79.5 -34.5t-31.5 -86.5
q0 -37 21.5 -61t58.5 -24q48 0 79 34t31 87zM404 531q0 32 -18.5 54t-52.5 22q-44 0 -72.5 -33.5t-28.5 -79.5q0 -32 18.5 -53.5t52.5 -21.5q44 0 72.5 33t28.5 79z" />
    <glyph glyph-name="nine.osf" horiz-adv-x="519" 
d="M506 398q0 -97 -89 -220l-221 -309h-135l217 297q-19 -8 -53 -8q-66 0 -116.5 48.5t-50.5 145.5q0 106 65.5 178.5t173.5 72.5q105 0 157 -60.5t52 -144.5zM383 390q0 46 -23.5 74.5t-64.5 28.5q-47 0 -80.5 -38.5t-33.5 -94.5q0 -46 24 -74.5t65 -28.5q48 0 80.5 39
t32.5 94z" />
    <glyph glyph-name="caroncomma.ss01" horiz-adv-x="258" 
d="M736 747l-24 -121l-126 -85l42 206h108z" />
    <glyph glyph-name="caroncomma" horiz-adv-x="508" 
d="M767 740l-91 -165h-91l67 165h115z" />
    <glyph glyph-name="commaaccent" horiz-adv-x="271" 
d="M257 -57l-70 -144h-114l86 144h98z" />
    <glyph glyph-name="commaturn" horiz-adv-x="346" 
d="M495 768l-131 -167h-99l110 167h120z" />
    <glyph glyph-name="breveCyrLc.comp" horiz-adv-x="499" 
d="M402 717h95q-27 -138 -172 -138q-69 0 -104.5 30.5t-35.5 77.5q0 13 3 30h92q-1 -5 -1 -11v-5q0 -46 53 -46q54 0 70 62z" />
    <glyph glyph-name="breveCyrUc.comp" horiz-adv-x="499" 
d="M498 883h95q-27 -138 -172 -138q-69 0 -104.5 30.5t-35.5 77.5q0 13 3 30h92q-1 -5 -1 -11v-5q0 -46 53 -46q54 0 70 62z" />
    <glyph glyph-name="grave.lc" horiz-adv-x="515" 
d="M370 601h-91l-72 167h118z" />
    <glyph glyph-name="dieresis.lc" horiz-adv-x="514" 
d="M507 725l-24 -122h-106l24 122h106zM298 725l-24 -122h-106l24 122h106z" />
    <glyph glyph-name="macron.lc" horiz-adv-x="514" 
d="M496 701l-16 -82h-302l17 82h301z" />
    <glyph glyph-name="acute.lc" horiz-adv-x="515" 
d="M501 768l-130 -167h-100l111 167h119z" />
    <glyph glyph-name="circumflex.lc" horiz-adv-x="514" 
d="M499 601h-91l-60 94l-98 -94h-101l159 169h99z" />
    <glyph glyph-name="caron.lc" horiz-adv-x="514" 
d="M536 770l-160 -169h-99l-93 169h93l59 -94l99 94h101z" />
    <glyph glyph-name="breve.lc" horiz-adv-x="515" 
d="M412 736h84q-15 -76 -56.5 -110t-110.5 -34q-64 0 -99 31.5t-35 81.5q0 15 3 31h82q-1 -5 -1 -11v-5q0 -44 59 -44t74 60z" />
    <glyph glyph-name="dotaccent.lc" horiz-adv-x="514" 
d="M403 723l-22 -114h-108l24 114h106z" />
    <glyph glyph-name="ring.lc" horiz-adv-x="514" 
d="M469 711q0 -54 -37.5 -90.5t-89.5 -36.5t-89 36.5t-37 90.5q0 53 37 89.5t89 36.5t89.5 -36.5t37.5 -89.5zM401 711q0 23 -18 40t-41 17t-40.5 -17t-17.5 -40q0 -24 17.5 -41.5t40.5 -17.5t41 17.5t18 41.5z" />
    <glyph glyph-name="tilde.lc" horiz-adv-x="514" 
d="M465 718l45 -59q-55 -52 -111 -52q-40 0 -77 22q-28 17 -52 17q-31 0 -62 -31l-45 60q53 52 110 52q40 0 77 -22q28 -17 53 -17q32 0 62 30z" />
    <glyph glyph-name="hungarumlaut.lc" horiz-adv-x="515" 
d="M600 768l-131 -168h-99l111 168h119zM403 768l-131 -168h-99l110 168h120z" />
    <glyph glyph-name="grave.uc" horiz-adv-x="575" 
d="M446 778h-92l-71 168h118z" />
    <glyph glyph-name="dieresis.uc" horiz-adv-x="575" 
d="M582 902l-24 -122h-106l24 122h106zM373 902l-24 -122h-106l24 122h106z" />
    <glyph glyph-name="macron.uc" horiz-adv-x="482" 
d="M569 874l-16 -82h-302l17 82h301z" />
    <glyph glyph-name="acute.uc" horiz-adv-x="575" 
d="M577 946l-131 -168h-99l110 168h120z" />
    <glyph glyph-name="circumflex.uc" horiz-adv-x="575" 
d="M575 778h-92l-59 94l-99 -94h-101l159 170h100z" />
    <glyph glyph-name="caron.uc" horiz-adv-x="514" 
d="M611 948l-159 -170h-100l-92 170h92l59 -95l99 95h101z" />
    <glyph glyph-name="breve.uc" horiz-adv-x="499" 
d="M493 915h84q-15 -76 -56.5 -110t-110.5 -34q-64 0 -99 31.5t-35 81.5q0 14 3 31h82q-1 -5 -1 -11v-5q0 -44 59 -44t74 60z" />
    <glyph glyph-name="dotaccent.uc" horiz-adv-x="482" 
d="M480 900l-23 -114h-107l23 114h107z" />
    <glyph glyph-name="ring.uc" horiz-adv-x="475" 
d="M542 878q0 -54 -37 -90.5t-89 -36.5q-53 0 -90 36.5t-37 90.5t37 90.5t90 36.5q52 0 89 -36.5t37 -90.5zM474 878q0 24 -17.5 41t-40.5 17t-40.5 -17t-17.5 -41t17.5 -41t40.5 -17t40.5 17t17.5 41z" />
    <glyph glyph-name="tilde.uc" horiz-adv-x="575" 
d="M542 901l45 -59q-55 -52 -111 -52q-40 0 -77 22q-28 17 -53 17q-31 0 -62 -31l-45 60q55 52 111 52q40 0 77 -22q28 -17 53 -17q32 0 62 30z" />
    <glyph glyph-name="hungarumlaut.uc" horiz-adv-x="515" 
d="M676 945l-131 -167h-99l110 167h120zM478 945l-130 -167h-100l110 167h120z" />
    </font>
</defs>
</svg>
